{"glyphs":{"0":{"ha":694,"x_min":75,"x_max":619,"o":"m 347 -11 q 272 -4 310 -11 q 202 22 235 3 q 144 69 169 40 q 103 131 118 97 q 81 203 88 165 q 75 278 75 240 l 75 743 q 81 818 75 781 q 103 890 88 856 q 144 952 118 924 q 202 999 169 981 q 272 1025 235 1018 q 347 1032 310 1032 q 422 1025 385 1032 q 492 999 460 1018 q 551 952 525 981 q 592 890 576 924 q 613 818 607 856 q 619 743 619 781 l 619 278 q 613 203 619 240 q 592 131 607 165 q 551 69 576 97 q 492 22 525 40 q 422 -4 460 3 q 347 -11 385 -11 m 200 456 l 494 690 l 494 743 q 488 809 494 776 q 461 868 481 842 q 411 908 442 894 q 347 921 381 921 q 283 908 314 921 q 233 868 253 894 q 207 809 214 842 q 200 743 200 776 l 200 456 m 347 100 q 411 113 381 100 q 461 153 442 126 q 488 212 481 179 q 494 278 494 244 l 494 565 l 200 331 l 200 278 q 207 212 200 244 q 233 153 214 179 q 283 113 253 126 q 347 100 314 100 z "},"1":{"ha":694,"x_min":78,"x_max":451,"o":"m 326 0 l 326 890 l 147 742 l 78 815 l 326 1021 l 451 1021 l 451 0 l 326 0 z "},"2":{"ha":694,"x_min":83,"x_max":614,"o":"m 86 0 l 86 1 q 88 76 86 39 q 94 149 89 113 q 111 222 100 186 q 139 291 122 258 q 177 354 156 324 q 225 411 199 385 q 280 461 251 438 q 338 507 308 485 q 397 553 368 529 q 447 607 426 576 q 478 674 468 638 q 489 747 489 710 q 483 810 489 779 q 458 868 476 842 q 410 908 439 894 q 349 921 381 921 q 292 910 319 921 q 244 878 264 900 q 217 828 225 857 q 208 771 208 800 l 208 765 l 83 765 l 83 775 q 91 844 83 810 q 115 909 99 878 q 157 965 132 940 q 213 1004 182 989 q 279 1026 244 1019 q 349 1032 314 1032 q 422 1025 386 1032 q 490 1000 458 1018 q 547 953 522 982 q 588 892 572 925 q 608 822 603 858 q 614 747 614 785 q 601 651 614 699 q 560 564 588 604 q 497 491 533 524 q 423 428 461 458 q 349 364 385 397 q 285 291 313 331 q 240 206 257 251 q 215 111 222 160 l 608 111 l 608 0 l 86 0 z "},"3":{"ha":694,"x_min":72,"x_max":631,"o":"m 351 -11 q 280 -6 315 -11 q 212 15 244 0 q 152 55 179 31 q 107 110 125 79 q 81 177 89 142 q 72 249 72 213 l 72 256 l 197 256 l 197 251 q 208 191 197 221 q 240 140 218 161 q 291 109 261 118 q 351 100 321 100 q 416 113 385 100 q 467 150 447 125 q 497 208 488 175 q 506 274 506 240 q 500 327 506 300 q 481 378 494 354 q 448 422 468 403 q 403 453 428 442 q 350 468 378 465 q 294 471 322 471 l 294 582 q 344 585 319 582 q 392 598 369 588 q 433 626 415 608 q 463 666 451 643 q 478 713 474 689 q 483 763 483 738 q 476 821 483 792 q 452 873 469 850 q 408 908 435 896 q 351 921 381 921 q 297 910 324 921 q 252 877 269 899 q 227 828 235 856 q 219 772 219 800 l 219 765 l 94 765 l 94 776 q 102 844 94 810 q 125 908 110 878 q 165 963 140 939 q 219 1003 189 988 q 283 1026 250 1019 q 351 1032 317 1032 q 421 1025 386 1032 q 486 1001 456 1018 q 540 958 517 985 q 579 901 564 932 q 601 835 594 869 q 608 767 608 801 q 600 694 608 729 q 574 626 592 658 q 529 569 556 594 q 469 528 503 544 q 538 485 507 513 q 590 424 569 458 q 621 349 611 389 q 631 269 631 310 q 623 195 631 232 q 599 125 615 158 q 556 65 582 92 q 496 20 529 38 q 426 -4 463 3 q 351 -11 389 -11 z "},"4":{"ha":694,"x_min":75,"x_max":608,"o":"m 400 0 l 400 265 l 75 265 l 75 375 l 393 1021 l 519 1021 l 203 375 l 400 375 l 400 610 l 525 610 l 525 375 l 608 375 l 608 265 l 525 265 l 525 0 l 400 0 z "},"5":{"ha":694,"x_min":83,"x_max":619,"o":"m 350 -11 q 281 -5 315 -11 q 217 17 247 1 q 161 56 186 32 q 119 111 136 81 q 94 176 103 142 q 83 243 85 210 l 208 243 q 219 188 210 215 q 249 140 229 161 q 295 110 268 119 q 350 100 322 100 q 399 110 375 100 q 440 138 424 119 q 467 179 457 156 q 484 227 478 203 q 492 276 490 251 q 494 326 494 301 q 492 376 494 351 q 485 426 490 401 q 469 473 479 450 q 443 515 460 496 q 403 543 426 533 q 354 553 379 553 q 307 548 331 553 q 264 529 283 543 q 233 493 244 515 q 221 447 222 471 l 96 447 l 96 1021 l 582 1021 l 582 910 l 221 910 l 221 639 q 287 658 253 653 q 354 664 321 664 q 435 653 396 664 q 507 619 475 643 q 562 560 539 594 q 597 487 585 525 q 615 408 610 449 q 619 326 619 368 q 615 245 619 286 q 597 166 610 204 q 560 93 583 128 q 504 34 538 58 q 431 -1 471 10 q 350 -11 392 -11 z "},"6":{"ha":694,"x_min":75,"x_max":619,"o":"m 347 -11 q 268 -2 307 -11 q 196 29 229 7 q 138 83 163 51 q 100 152 114 115 q 81 228 86 189 q 75 308 75 268 q 86 431 75 371 q 117 551 97 492 q 163 666 136 610 q 217 778 189 722 l 338 1021 l 474 1021 l 328 728 q 290 649 308 689 q 254 567 271 608 q 320 613 282 597 q 399 628 358 628 q 470 616 435 628 q 532 579 506 604 q 576 521 558 554 q 603 453 593 488 q 616 381 613 418 q 619 308 619 344 q 614 228 619 268 q 594 152 608 189 q 556 83 581 115 q 499 29 532 51 q 426 -2 465 7 q 347 -11 388 -11 m 347 100 q 394 108 371 100 q 435 131 418 115 q 465 169 453 147 q 483 213 476 190 q 492 260 490 236 q 494 308 494 285 q 492 356 494 332 q 483 403 490 381 q 465 448 476 426 q 435 485 453 469 q 394 509 418 501 q 347 517 371 517 q 304 510 325 517 q 266 491 283 504 q 237 460 249 478 q 217 421 225 442 q 206 378 210 400 q 200 336 201 357 l 200 308 q 202 260 200 285 q 211 213 204 236 q 230 169 218 190 q 259 131 242 147 q 300 108 276 115 q 347 100 324 100 z "},"7":{"ha":694,"x_min":86,"x_max":608,"o":"m 197 0 l 479 910 l 86 910 l 86 1021 l 608 1021 l 608 910 l 326 0 l 197 0 z "},"8":{"ha":694,"x_min":75,"x_max":619,"o":"m 347 -11 q 278 -6 313 -11 q 213 13 244 -1 q 154 49 181 26 q 110 101 128 72 q 84 165 93 131 q 75 233 75 199 q 89 319 75 276 q 128 398 103 361 q 185 466 153 435 q 251 524 217 497 q 192 580 219 550 q 142 644 164 610 q 108 717 121 678 q 96 797 96 757 q 104 862 96 831 q 128 922 113 893 q 167 972 143 950 q 221 1008 192 994 q 283 1026 250 1021 q 347 1032 315 1032 q 412 1026 379 1032 q 474 1008 444 1021 q 527 972 503 994 q 567 922 551 950 q 590 862 582 893 q 599 797 599 831 q 586 717 599 757 q 552 644 574 678 q 503 580 531 610 q 443 524 475 550 q 510 466 478 497 q 567 398 542 435 q 606 319 592 361 q 619 233 619 276 q 610 165 619 199 q 584 101 601 131 q 540 49 567 72 q 482 13 514 26 q 416 -6 450 -1 q 347 -11 382 -11 m 347 596 q 394 635 371 614 q 434 682 417 657 q 463 736 451 707 q 474 796 474 765 q 465 845 474 821 q 439 888 457 869 q 397 913 421 906 q 347 921 372 921 q 298 913 322 921 q 256 888 274 906 q 229 845 238 869 q 221 796 221 821 q 232 736 221 765 q 260 682 243 707 q 301 635 278 657 q 347 596 324 614 m 347 100 q 403 108 375 100 q 452 134 431 115 q 484 180 474 153 q 494 235 494 207 q 481 301 494 269 q 447 360 468 333 q 401 410 426 388 q 347 451 375 432 q 294 410 319 432 q 247 360 268 388 q 213 301 226 333 q 200 235 200 269 q 210 180 200 207 q 242 134 221 153 q 292 108 264 115 q 347 100 319 100 z "},"9":{"ha":694,"x_min":75,"x_max":619,"o":"m 221 0 l 367 293 q 405 372 386 332 q 440 454 424 413 q 374 408 413 424 q 296 393 336 393 q 224 405 260 393 q 163 442 189 417 q 119 500 136 467 q 92 568 101 533 q 78 640 82 603 q 75 713 75 676 q 81 792 75 753 q 100 869 86 832 q 138 938 114 906 q 196 992 163 969 q 268 1023 229 1014 q 347 1032 307 1032 q 426 1023 388 1032 q 499 992 465 1014 q 556 938 532 969 q 594 869 581 906 q 614 792 608 832 q 619 713 619 753 q 608 590 619 650 q 578 470 597 529 q 532 355 558 411 q 478 243 506 299 l 357 0 l 221 0 m 347 504 q 390 510 369 504 q 428 530 411 517 q 458 561 446 543 q 477 600 469 579 q 489 642 485 621 q 494 685 493 664 l 494 713 q 492 760 494 736 q 483 808 490 785 q 465 852 476 831 q 435 890 453 874 q 394 913 418 906 q 347 921 371 921 q 300 913 324 921 q 259 890 276 906 q 230 852 242 874 q 211 808 218 831 q 202 760 204 785 q 200 713 200 736 q 202 665 200 689 q 211 617 204 640 q 230 573 218 594 q 259 535 242 551 q 300 512 276 519 q 347 504 324 504 z "},"\r":{"ha":0,"x_min":0,"x_max":0,"o":""}," ":{"ha":694,"x_min":0,"x_max":0,"o":""},"!":{"ha":694,"x_min":240,"x_max":454,"o":"m 410 361 l 285 361 l 285 1021 l 410 1021 l 410 361 m 347 -11 q 304 -5 325 -11 q 268 17 283 1 q 247 53 253 32 q 240 96 240 75 q 247 140 240 118 q 268 176 253 161 q 304 198 283 192 q 347 204 325 204 q 390 198 369 204 q 426 176 411 192 q 448 140 442 161 q 454 96 454 118 q 448 53 454 75 q 426 17 442 32 q 390 -5 411 1 q 347 -11 369 -11 z "},"\"":{"ha":694,"x_min":140,"x_max":554,"o":"m 149 614 q 142 842 144 728 q 140 1072 140 957 l 276 1072 q 274 842 276 957 q 268 614 272 728 l 149 614 m 426 614 q 420 842 422 728 q 418 1072 418 957 l 554 1072 q 552 842 554 957 q 546 614 550 728 l 426 614 z "},"#":{"ha":694,"x_min":35,"x_max":660,"o":"m 151 25 l 151 261 l 35 261 l 35 372 l 151 372 l 151 649 l 35 649 l 35 760 l 151 760 l 151 996 l 268 996 l 268 760 l 426 760 l 426 996 l 543 996 l 543 760 l 660 760 l 660 649 l 543 649 l 543 372 l 660 372 l 660 261 l 543 261 l 543 25 l 426 25 l 426 261 l 268 261 l 268 25 l 151 25 m 268 372 l 426 372 l 426 649 l 268 649 l 268 372 z "},"$":{"ha":694,"x_min":72,"x_max":619,"o":"m 290 -149 l 290 43 q 203 69 244 49 q 131 124 161 89 q 87 203 101 158 q 72 293 72 247 l 72 306 l 197 306 l 197 299 q 203 251 197 274 q 223 208 210 228 q 257 174 236 188 q 300 156 278 161 l 300 464 q 219 510 258 483 q 151 572 181 536 q 103 652 121 608 q 86 743 86 696 q 100 826 86 785 q 142 901 114 868 q 209 952 169 933 q 290 978 249 971 l 290 1171 l 404 1171 l 404 978 q 489 950 449 971 q 557 894 529 929 q 598 816 585 860 q 611 728 611 772 l 611 715 l 486 715 l 486 722 q 481 768 486 746 q 465 810 476 790 q 434 844 453 829 q 394 864 415 858 l 394 561 q 478 515 438 542 q 551 453 519 489 q 601 372 582 418 q 619 279 619 326 q 604 192 619 235 q 559 118 589 150 q 488 67 529 86 q 404 43 447 49 l 404 -149 l 290 -149 m 300 604 l 300 864 q 263 847 281 858 q 234 819 246 836 q 217 783 222 803 q 211 742 211 763 q 217 700 211 721 q 236 661 224 679 q 265 629 249 643 q 300 604 282 615 m 394 156 q 435 171 415 160 q 467 199 454 182 q 488 237 481 215 q 494 279 494 258 q 487 325 494 303 q 465 365 479 347 q 433 397 451 383 q 394 422 414 411 l 394 156 z "},"%":{"ha":694,"x_min":32,"x_max":663,"o":"m 194 500 q 133 508 164 500 q 78 535 101 515 q 43 585 54 556 q 32 647 32 615 l 32 885 q 43 946 32 915 q 78 997 54 976 q 133 1024 101 1017 q 194 1032 164 1032 q 258 1024 226 1032 q 313 997 289 1017 q 347 946 336 976 q 358 885 358 915 l 358 647 q 347 585 358 615 q 313 535 336 556 q 258 508 289 515 q 194 500 226 500 m 400 599 l 525 1021 l 651 1021 l 513 599 l 400 599 m 196 594 q 217 598 206 594 q 235 608 228 601 q 247 626 243 615 q 250 647 250 636 l 250 885 q 247 906 250 896 q 235 924 243 917 q 217 933 228 931 q 196 936 206 936 q 174 933 185 936 q 155 924 163 931 q 144 906 147 917 q 140 885 140 896 l 140 647 q 144 626 140 636 q 155 608 147 615 q 174 598 163 601 q 196 594 185 594 m 499 -11 q 437 -3 468 -11 q 382 24 406 4 q 347 75 358 44 q 336 136 336 106 l 336 374 q 347 435 336 406 q 382 485 358 465 q 437 513 406 506 q 499 521 468 521 q 562 513 531 521 q 617 485 593 506 q 651 435 640 465 q 663 374 663 406 l 663 136 q 651 75 663 106 q 617 24 640 44 q 562 -3 593 4 q 499 -11 531 -11 m 500 85 q 521 88 510 85 q 540 97 532 90 q 551 115 547 104 q 554 136 554 125 l 554 374 q 551 395 554 385 q 540 413 547 406 q 521 423 532 419 q 500 426 510 426 q 478 423 489 426 q 459 413 467 419 q 448 395 451 406 q 444 374 444 385 l 444 136 q 448 115 444 125 q 459 97 451 104 q 478 88 467 90 q 500 85 489 85 m 43 0 l 182 422 l 294 422 l 169 0 l 43 0 z "},"&":{"ha":694,"x_min":75,"x_max":675,"o":"m 317 -11 q 248 -3 282 -11 q 185 24 214 6 q 135 71 157 43 q 101 131 114 99 q 81 197 88 163 q 75 265 75 231 q 85 347 75 307 q 115 422 96 386 q 163 488 135 457 q 221 546 190 518 q 182 608 201 576 q 147 672 163 639 q 122 741 131 706 q 113 814 113 776 q 126 899 113 857 q 168 972 139 940 q 239 1017 197 1003 q 322 1032 281 1032 q 407 1017 365 1032 q 478 972 449 1003 q 520 898 507 940 q 533 813 533 856 q 520 728 533 769 q 485 651 507 688 q 432 583 463 614 q 369 525 401 553 q 378 510 374 518 q 388 494 382 503 l 500 300 l 553 436 l 672 436 l 589 218 q 581 198 585 208 q 572 178 576 188 l 675 0 l 542 0 l 501 67 l 494 81 q 440 26 472 49 q 369 -6 407 3 q 343 -10 357 -8 q 317 -11 329 -11 m 308 621 q 348 661 329 640 q 381 706 367 682 q 405 756 396 729 q 414 813 414 783 q 409 853 414 832 q 393 890 404 874 q 363 916 382 907 q 322 925 343 925 q 283 916 303 925 q 253 890 264 907 q 237 852 242 872 q 232 811 232 832 q 239 760 232 785 q 256 711 246 735 q 281 665 267 688 q 308 621 294 643 m 329 96 q 364 101 347 96 q 395 117 381 107 q 422 140 410 126 q 443 168 433 153 l 283 440 q 282 444 283 443 q 279 447 281 446 q 245 409 261 429 q 218 366 229 389 q 201 317 207 343 q 194 267 194 292 q 198 226 194 246 q 208 186 201 206 q 225 149 214 167 q 253 119 236 132 q 289 101 269 107 q 329 96 308 96 z "},"'":{"ha":694,"x_min":279,"x_max":415,"o":"m 288 614 q 281 842 283 728 q 279 1072 279 957 l 415 1072 q 413 842 415 957 q 407 614 411 728 l 288 614 z "},"(":{"ha":694,"x_min":154,"x_max":575,"o":"m 513 -224 q 401 -145 453 -190 q 307 -45 349 -100 q 235 72 265 10 q 188 201 206 135 q 162 335 169 267 q 154 472 154 404 q 162 609 154 540 q 188 744 169 678 q 235 872 206 810 q 307 990 265 935 q 401 1090 349 1044 q 513 1168 453 1135 l 575 1072 q 440 961 499 1028 q 344 815 381 894 q 294 647 308 735 q 279 472 279 560 q 294 297 279 385 q 344 130 308 210 q 440 -17 381 50 q 575 -128 499 -83 l 513 -224 z "},")":{"ha":694,"x_min":119,"x_max":540,"o":"m 182 -224 l 119 -128 q 255 -17 196 -83 q 350 130 314 50 q 401 297 386 210 q 415 472 415 385 q 401 647 415 560 q 350 815 386 735 q 255 961 314 894 q 119 1072 196 1028 l 182 1168 q 294 1090 242 1135 q 388 990 346 1044 q 459 872 429 935 q 507 744 489 810 q 533 609 525 678 q 540 472 540 540 q 533 335 540 404 q 507 201 525 267 q 459 72 489 135 q 388 -45 429 10 q 294 -145 346 -100 q 182 -224 242 -190 z "},"*":{"ha":694,"x_min":50,"x_max":644,"o":"m 226 574 l 125 639 l 267 818 l 50 879 l 89 985 l 294 908 l 285 1133 l 410 1133 l 400 908 l 606 985 l 644 879 l 428 818 l 569 639 l 468 574 l 347 756 l 226 574 z "},"+":{"ha":694,"x_min":86,"x_max":608,"o":"m 289 200 l 289 421 l 86 421 l 86 524 l 289 524 l 289 744 l 406 744 l 406 524 l 608 524 l 608 421 l 406 421 l 406 200 l 289 200 z "},",":{"ha":694,"x_min":204,"x_max":467,"o":"m 293 -299 l 249 -262 l 204 -225 q 288 -126 250 -179 q 349 -11 326 -72 l 346 -11 q 299 -3 322 -11 q 259 21 276 4 q 235 61 242 38 q 228 108 228 85 q 235 156 228 132 q 260 196 243 179 q 300 219 276 213 q 347 226 324 226 q 396 219 372 226 q 436 194 419 213 q 460 152 453 176 q 467 104 467 128 q 453 -6 467 49 q 415 -112 439 -61 q 360 -209 392 -162 q 293 -299 329 -256 z "},"-":{"ha":694,"x_min":86,"x_max":608,"o":"m 86 417 l 86 528 l 608 528 l 608 417 l 86 417 z "},".":{"ha":694,"x_min":228,"x_max":467,"o":"m 347 -11 q 300 -4 324 -11 q 260 20 276 3 q 235 61 243 38 q 228 108 228 85 q 235 156 228 132 q 260 196 243 179 q 300 219 276 213 q 347 226 324 226 q 394 219 371 226 q 435 196 418 213 q 459 156 451 179 q 467 108 467 132 q 459 61 467 85 q 435 20 451 38 q 394 -4 418 3 q 347 -11 371 -11 z "},"/":{"ha":694,"x_min":78,"x_max":617,"o":"m 78 -199 l 489 1143 l 617 1143 l 206 -199 l 78 -199 z "},":":{"ha":694,"x_min":228,"x_max":467,"o":"m 347 -11 q 300 -4 324 -11 q 260 20 276 3 q 235 61 243 38 q 228 108 228 85 q 235 156 228 132 q 260 196 243 179 q 300 219 276 213 q 347 226 324 226 q 394 219 371 226 q 435 196 418 213 q 459 156 451 179 q 467 108 467 132 q 459 61 467 85 q 435 20 451 38 q 394 -4 418 3 q 347 -11 371 -11 m 347 496 q 300 503 324 496 q 260 526 276 510 q 235 567 243 543 q 228 614 228 590 q 235 661 228 638 q 260 702 243 685 q 300 726 276 719 q 347 733 324 733 q 394 726 371 733 q 435 702 418 719 q 459 661 451 685 q 467 614 467 638 q 459 567 467 590 q 435 526 451 543 q 394 503 418 510 q 347 496 371 496 z "},";":{"ha":694,"x_min":204,"x_max":467,"o":"m 293 -299 l 249 -262 l 204 -225 q 288 -126 250 -179 q 349 -11 326 -72 l 346 -11 q 299 -3 322 -11 q 259 21 276 4 q 235 61 242 38 q 228 108 228 85 q 235 156 228 132 q 260 196 243 179 q 300 219 276 213 q 347 226 324 226 q 396 219 372 226 q 436 194 419 213 q 460 152 453 176 q 467 104 467 128 q 453 -6 467 49 q 415 -112 439 -61 q 360 -209 392 -162 q 293 -299 329 -256 m 347 496 q 300 503 324 496 q 260 526 276 510 q 235 567 243 543 q 228 614 228 590 q 235 661 228 638 q 260 702 243 685 q 300 726 276 719 q 347 733 324 733 q 394 726 371 733 q 435 702 418 719 q 459 661 451 685 q 467 614 467 638 q 459 567 467 590 q 435 526 451 543 q 394 503 418 510 q 347 496 371 496 z "},"<":{"ha":694,"x_min":86,"x_max":639,"o":"m 578 107 l 86 411 l 86 533 l 578 838 l 639 750 l 186 472 l 639 194 l 578 107 z "},"=":{"ha":694,"x_min":86,"x_max":608,"o":"m 86 546 l 86 650 l 608 650 l 608 546 l 86 546 m 608 294 l 86 294 l 86 399 l 608 399 l 608 294 z "},">":{"ha":694,"x_min":56,"x_max":608,"o":"m 117 107 l 56 194 l 508 472 l 56 750 l 117 838 l 608 533 l 608 411 l 117 107 z "},"?":{"ha":694,"x_min":83,"x_max":608,"o":"m 285 307 q 287 374 285 340 q 298 439 289 407 q 322 501 307 471 q 357 558 338 531 q 399 610 376 585 q 440 663 421 636 q 471 722 458 690 q 483 786 483 753 q 474 840 483 814 q 446 885 465 867 q 400 913 426 904 q 346 921 374 921 q 290 911 317 921 q 244 880 263 901 q 217 831 225 858 q 208 774 208 803 l 208 765 l 83 765 l 83 779 q 91 847 83 814 q 115 911 99 881 q 157 966 132 942 q 213 1006 182 990 q 277 1026 243 1021 q 346 1032 311 1032 q 413 1026 379 1032 q 478 1007 447 1021 q 534 969 508 993 q 576 917 560 946 q 601 854 593 888 q 608 786 608 821 q 601 720 608 753 q 582 657 594 688 q 552 598 569 626 q 515 542 535 569 q 472 490 494 515 q 435 435 450 465 q 415 372 419 406 q 410 307 410 339 l 285 307 m 347 -11 q 304 -5 325 -11 q 268 17 283 1 q 247 53 253 32 q 240 96 240 75 q 247 140 240 118 q 268 176 253 161 q 304 198 283 192 q 347 204 325 204 q 390 198 369 204 q 426 176 411 192 q 448 140 442 161 q 454 96 454 118 q 448 53 454 75 q 426 17 442 32 q 390 -5 411 1 q 347 -11 369 -11 z "},"@":{"ha":694,"x_min":86,"x_max":608,"o":"m 347 -108 q 275 -101 311 -108 q 207 -75 239 -93 q 151 -29 175 -57 q 112 33 126 -1 q 92 103 97 67 q 86 175 86 139 l 86 769 q 92 842 86 806 q 112 912 97 878 q 151 974 126 946 q 206 1020 175 1001 q 274 1046 238 1039 q 347 1053 311 1053 q 420 1046 383 1053 q 488 1020 457 1039 q 544 974 519 1001 q 583 912 568 946 q 603 842 597 878 q 608 769 608 806 l 608 314 q 606 267 608 290 q 594 220 603 243 q 572 178 586 197 q 539 144 558 158 q 496 125 519 131 q 449 119 472 119 q 401 125 425 119 q 358 144 378 131 q 325 178 339 158 q 303 220 311 197 q 292 267 296 243 q 289 314 289 290 l 289 574 q 292 622 289 599 q 305 669 296 646 q 328 711 314 692 q 363 744 343 731 q 407 763 383 757 q 456 768 431 768 l 500 768 l 500 769 q 492 834 500 801 q 464 892 485 867 q 412 930 443 918 q 347 942 381 942 q 283 930 314 942 q 231 892 251 918 q 202 834 210 867 q 194 769 194 801 l 194 175 q 202 110 194 143 q 231 52 210 78 q 283 15 251 26 q 347 3 314 3 l 553 3 l 553 -108 l 347 -108 m 449 215 q 476 227 464 215 q 492 253 488 239 q 499 283 497 268 q 500 314 500 299 l 500 672 l 456 672 q 426 662 439 672 q 408 637 414 651 q 399 606 401 622 q 397 574 397 590 l 397 314 q 399 283 397 299 q 406 253 400 268 q 422 227 411 239 q 449 215 433 215 z "},"A":{"ha":694,"x_min":57,"x_max":638,"o":"m 57 0 l 275 1021 l 419 1021 l 638 0 l 510 0 l 460 250 l 235 250 l 185 0 l 57 0 m 439 361 l 375 681 q 361 753 368 717 q 347 826 354 789 q 333 753 340 789 q 319 681 326 717 l 256 361 l 439 361 z "},"B":{"ha":694,"x_min":86,"x_max":631,"o":"m 86 0 l 86 1021 l 325 1021 q 397 1015 361 1021 q 465 992 432 1008 q 523 949 497 975 q 565 890 549 922 q 588 822 581 858 q 594 750 594 786 q 588 684 594 717 q 567 622 582 651 q 528 570 551 593 q 475 532 504 547 q 542 494 511 518 q 593 437 572 469 q 622 366 614 404 q 631 289 631 328 q 623 210 631 250 q 596 135 615 171 q 547 73 576 100 q 480 29 517 46 q 403 6 443 13 q 325 0 364 0 l 86 0 m 211 585 l 325 585 q 385 596 356 585 q 435 631 415 607 q 462 686 454 656 q 469 747 469 717 q 462 808 469 778 q 435 863 454 839 q 385 899 415 888 q 325 910 356 910 l 211 910 l 211 585 m 211 111 l 325 111 q 373 115 349 111 q 419 131 397 119 q 458 159 440 142 q 486 198 475 176 q 501 244 497 219 q 506 292 506 268 q 501 340 506 317 q 486 386 497 364 q 458 426 475 408 q 419 454 440 443 q 373 469 397 465 q 325 474 349 474 l 211 474 l 211 111 z "},"C":{"ha":694,"x_min":75,"x_max":611,"o":"m 343 -11 q 269 -4 306 -11 q 200 21 232 3 q 143 67 168 39 q 102 128 118 94 q 81 199 86 163 q 75 272 75 236 l 75 749 q 81 822 75 785 q 102 892 86 858 q 143 954 118 926 q 200 1000 168 982 q 269 1025 232 1018 q 343 1032 306 1032 q 413 1026 378 1032 q 479 1004 447 1019 q 536 965 511 989 q 578 910 561 940 q 603 844 594 879 q 611 775 611 810 l 611 765 l 486 765 l 486 771 q 477 829 486 800 q 449 880 468 858 q 401 911 429 901 q 343 921 372 921 q 281 908 311 921 q 233 869 251 894 q 207 812 214 843 q 200 749 200 781 l 200 272 q 207 209 200 240 q 233 152 214 178 q 281 113 251 126 q 343 100 311 100 q 401 110 372 100 q 449 141 429 119 q 477 192 468 163 q 486 250 486 221 l 486 256 l 611 256 l 611 246 q 603 176 611 211 q 578 111 594 142 q 536 56 561 81 q 479 17 511 32 q 413 -5 447 1 q 343 -11 378 -11 z "},"D":{"ha":694,"x_min":86,"x_max":619,"o":"m 308 0 l 86 0 l 86 1021 l 308 1021 q 390 1014 349 1021 q 468 990 431 1007 q 535 944 506 972 q 585 879 565 915 q 612 802 604 843 q 619 721 619 761 l 619 300 q 612 219 619 260 q 585 142 604 178 q 535 77 565 106 q 468 31 506 49 q 390 7 431 14 q 308 0 349 0 m 211 111 l 308 111 q 358 115 333 111 q 406 131 383 119 q 446 161 428 143 q 475 202 464 179 q 490 250 486 225 q 494 300 494 275 l 494 721 q 490 771 494 746 q 475 819 486 796 q 446 860 464 842 q 406 890 428 878 q 358 906 383 901 q 308 910 333 910 l 211 910 l 211 111 z "},"E":{"ha":694,"x_min":97,"x_max":608,"o":"m 97 0 l 97 1021 l 608 1021 l 608 910 l 222 910 l 222 586 l 531 586 l 531 475 l 222 475 l 222 111 l 608 111 l 608 0 l 97 0 z "},"F":{"ha":694,"x_min":129,"x_max":608,"o":"m 129 0 l 129 1021 l 608 1021 l 608 910 l 254 910 l 254 586 l 531 586 l 531 475 l 254 475 l 254 0 l 129 0 z "},"G":{"ha":694,"x_min":75,"x_max":611,"o":"m 290 -11 q 224 -1 257 -11 q 165 29 190 8 q 121 79 139 50 q 92 140 103 108 q 78 206 82 172 q 75 272 75 239 l 75 749 q 81 822 75 785 q 102 892 86 858 q 143 954 118 926 q 200 1000 168 982 q 269 1025 232 1018 q 343 1032 306 1032 q 413 1026 378 1032 q 479 1004 447 1019 q 536 965 511 989 q 578 910 561 940 q 603 844 594 879 q 611 775 611 810 l 611 765 l 486 765 l 486 771 q 477 829 486 800 q 449 880 468 858 q 401 911 429 901 q 343 921 372 921 q 281 908 311 921 q 233 869 251 894 q 207 812 214 843 q 200 749 200 781 l 200 272 q 207 210 200 242 q 232 152 214 178 q 280 113 250 126 q 342 100 310 100 q 403 113 374 100 q 451 152 433 126 q 476 210 469 178 q 483 272 483 242 l 483 447 l 347 447 l 347 558 l 608 558 l 608 0 l 494 0 l 494 164 q 469 96 486 129 q 425 38 451 63 q 363 1 399 13 q 290 -11 326 -11 z "},"H":{"ha":694,"x_min":86,"x_max":608,"o":"m 86 0 l 86 1021 l 211 1021 l 211 582 l 483 582 l 483 1021 l 608 1021 l 608 0 l 483 0 l 483 471 l 211 471 l 211 0 l 86 0 z "},"I":{"ha":694,"x_min":104,"x_max":590,"o":"m 104 0 l 104 111 l 285 111 l 285 910 l 104 910 l 104 1021 l 590 1021 l 590 910 l 410 910 l 410 111 l 590 111 l 590 0 l 104 0 z "},"J":{"ha":694,"x_min":61,"x_max":571,"o":"m 317 -11 q 249 -5 282 -11 q 185 17 215 1 q 131 58 154 33 q 92 114 107 83 q 69 178 76 144 q 61 246 61 211 l 61 256 l 186 256 l 186 250 q 194 194 186 221 q 218 144 201 167 q 262 111 235 122 q 317 100 289 100 q 356 106 336 100 q 392 124 376 111 q 419 155 408 138 q 435 192 429 172 q 444 232 442 211 q 446 272 446 253 l 446 910 l 265 910 l 265 1021 l 571 1021 l 571 272 q 566 201 571 236 q 547 132 561 165 q 509 70 532 99 q 455 23 486 42 q 388 -3 424 4 q 317 -11 353 -11 z "},"K":{"ha":694,"x_min":108,"x_max":625,"o":"m 490 0 l 289 439 l 232 342 l 232 0 l 108 0 l 108 1021 l 232 1021 l 232 560 l 486 1021 l 625 1021 l 357 557 l 625 0 l 490 0 z "},"L":{"ha":694,"x_min":129,"x_max":617,"o":"m 129 0 l 129 1021 l 254 1021 l 254 111 l 617 111 l 617 0 l 129 0 z "},"M":{"ha":694,"x_min":65,"x_max":629,"o":"m 65 0 l 65 1021 l 211 1021 l 347 493 l 483 1021 l 629 1021 l 629 0 l 510 0 l 510 204 q 516 510 510 357 q 526 815 522 663 l 394 307 l 300 307 l 168 815 q 178 510 172 663 q 185 204 185 357 l 185 0 l 65 0 z "},"N":{"ha":694,"x_min":86,"x_max":608,"o":"m 86 0 l 86 1021 l 229 1021 l 501 207 q 490 410 496 308 q 483 613 483 511 l 483 1021 l 608 1021 l 608 0 l 465 0 l 193 814 q 205 611 199 713 q 211 408 211 510 l 211 0 l 86 0 z "},"O":{"ha":694,"x_min":75,"x_max":619,"o":"m 347 -11 q 273 -4 310 -11 q 203 21 236 3 q 144 67 171 39 q 103 128 118 94 q 81 199 88 161 q 75 272 75 236 l 75 749 q 81 822 75 785 q 103 893 88 860 q 144 954 118 926 q 203 1000 171 982 q 273 1025 236 1018 q 347 1032 310 1032 q 422 1025 385 1032 q 491 1000 458 1018 q 550 954 524 982 q 592 893 576 926 q 613 822 607 860 q 619 749 619 785 l 619 272 q 613 199 619 236 q 592 128 607 161 q 550 67 576 94 q 491 21 524 39 q 422 -4 458 3 q 347 -11 385 -11 m 347 100 q 410 113 379 100 q 460 151 440 125 q 488 208 481 176 q 494 272 494 240 l 494 749 q 488 813 494 781 q 460 870 481 844 q 410 908 440 896 q 347 921 379 921 q 285 908 315 921 q 234 870 254 896 q 207 813 214 844 q 200 749 200 781 l 200 272 q 207 208 200 240 q 234 151 214 176 q 285 113 254 125 q 347 100 315 100 z "},"P":{"ha":694,"x_min":108,"x_max":631,"o":"m 108 0 l 108 1021 l 356 1021 q 432 1013 393 1021 q 504 985 471 1004 q 563 935 538 965 q 604 869 589 906 q 625 794 619 833 q 631 717 631 756 q 625 639 631 678 q 604 565 619 600 q 563 499 589 529 q 504 449 538 468 q 433 422 471 429 q 356 414 394 414 l 232 414 l 232 0 l 108 0 m 356 525 q 401 531 378 525 q 442 550 424 536 q 473 584 460 564 q 493 626 486 604 q 503 671 500 647 q 506 717 506 694 q 503 763 506 740 q 493 808 500 786 q 473 850 486 831 q 442 883 460 869 q 401 903 424 897 q 356 910 378 910 l 232 910 l 232 525 l 356 525 z "},"Q":{"ha":694,"x_min":75,"x_max":619,"o":"m 583 -256 l 549 -256 q 482 -249 515 -256 q 418 -228 449 -243 q 363 -190 388 -214 q 323 -137 339 -167 q 300 -74 307 -107 q 293 -8 293 -42 q 230 8 261 -3 q 173 40 199 19 q 128 87 147 60 q 96 144 108 114 q 79 208 83 175 q 75 272 75 240 l 75 749 q 81 822 75 785 q 103 893 88 860 q 144 954 118 926 q 203 1000 171 982 q 273 1025 236 1018 q 347 1032 310 1032 q 422 1025 385 1032 q 491 1000 458 1018 q 550 954 524 982 q 592 893 576 926 q 613 822 607 860 q 619 749 619 785 l 619 272 q 615 210 619 242 q 601 150 611 179 q 572 94 590 121 q 531 47 554 68 q 478 14 507 26 q 418 -6 449 1 q 426 -58 418 -32 q 451 -105 433 -85 q 495 -135 469 -125 q 549 -144 521 -144 l 583 -144 l 583 -256 m 347 100 q 410 113 379 100 q 460 151 440 125 q 488 208 481 176 q 494 272 494 240 l 494 749 q 488 813 494 781 q 460 870 481 844 q 410 908 440 896 q 347 921 379 921 q 285 908 315 921 q 234 870 254 896 q 207 813 214 844 q 200 749 200 781 l 200 272 q 207 208 200 240 q 234 151 214 176 q 285 113 254 125 q 347 100 315 100 z "},"R":{"ha":694,"x_min":86,"x_max":642,"o":"m 642 0 l 507 0 l 311 414 l 211 414 l 211 0 l 86 0 l 86 1021 l 356 1021 q 431 1013 393 1021 q 501 984 468 1004 q 557 933 533 964 q 594 867 581 903 q 614 794 608 832 q 619 717 619 756 q 611 625 619 671 q 581 538 603 579 q 522 467 558 497 q 442 424 486 438 l 642 0 m 356 525 q 399 531 378 525 q 438 552 421 538 q 466 587 454 567 q 484 628 478 607 q 492 672 490 650 q 494 717 494 694 q 492 762 494 739 q 484 806 490 785 q 466 847 478 828 q 438 881 454 867 q 399 903 421 896 q 356 910 378 910 l 211 910 l 211 525 l 356 525 z "},"S":{"ha":694,"x_min":72,"x_max":619,"o":"m 346 -11 q 276 -6 311 -11 q 208 15 240 0 q 150 54 176 31 q 106 108 124 78 q 81 174 89 139 q 72 243 72 208 l 72 256 l 197 256 l 197 249 q 207 190 197 218 q 238 140 217 161 q 288 109 258 118 q 346 100 317 100 q 405 110 376 100 q 454 141 433 119 q 485 192 475 163 q 494 250 494 221 q 481 318 494 285 q 442 377 467 351 q 388 420 418 403 q 325 453 357 438 q 263 488 293 469 q 206 528 233 506 q 157 578 179 551 q 119 637 135 606 q 94 703 103 668 q 86 772 86 738 q 94 841 86 807 q 117 906 101 875 q 158 963 133 938 q 214 1003 183 988 q 279 1026 244 1019 q 349 1032 314 1032 q 417 1026 383 1032 q 483 1004 451 1019 q 539 965 514 989 q 580 910 564 940 q 603 845 596 879 q 611 778 611 811 l 611 765 l 486 765 l 486 772 q 478 829 486 801 q 451 878 469 857 q 405 910 432 900 q 349 921 378 921 q 292 910 319 921 q 247 878 265 900 q 219 828 228 857 q 211 771 211 800 q 225 703 211 736 q 263 644 239 669 q 318 601 288 619 q 380 567 349 583 q 442 533 411 551 q 499 493 472 515 q 549 443 526 471 q 587 384 571 415 q 611 319 603 353 q 619 249 619 285 q 611 178 619 214 q 585 113 603 143 q 542 57 568 82 q 485 17 517 32 q 417 -5 453 1 q 346 -11 382 -11 z "},"T":{"ha":694,"x_min":78,"x_max":617,"o":"m 285 0 l 285 910 l 78 910 l 78 1021 l 617 1021 l 617 910 l 410 910 l 410 0 l 285 0 z "},"U":{"ha":694,"x_min":86,"x_max":608,"o":"m 347 -11 q 274 -3 311 -11 q 206 22 238 4 q 151 69 175 40 q 112 131 126 97 q 92 200 97 164 q 86 272 86 236 l 86 1021 l 211 1021 l 211 272 q 213 231 211 251 q 222 191 215 211 q 241 153 229 171 q 269 124 253 136 q 306 106 286 111 q 347 100 326 100 q 388 106 368 100 q 425 124 408 111 q 453 153 442 136 q 472 191 465 171 q 481 231 479 211 q 483 272 483 251 l 483 1021 l 608 1021 l 608 272 q 603 200 608 236 q 583 131 597 164 q 544 69 568 97 q 488 22 519 40 q 420 -3 457 4 q 347 -11 383 -11 z "},"V":{"ha":694,"x_min":57,"x_max":638,"o":"m 275 0 l 57 1021 l 185 1021 l 319 340 q 333 268 326 304 q 347 194 340 232 q 361 268 354 232 q 375 340 368 304 l 510 1021 l 638 1021 l 419 0 l 275 0 z "},"W":{"ha":694,"x_min":43,"x_max":651,"o":"m 161 0 l 43 1021 l 163 1021 l 224 244 l 293 735 l 401 735 l 471 244 l 532 1021 l 651 1021 l 533 0 l 425 0 l 347 547 l 269 0 l 161 0 z "},"X":{"ha":694,"x_min":61,"x_max":633,"o":"m 61 0 l 286 510 l 61 1021 l 197 1021 l 347 657 l 497 1021 l 633 1021 l 408 510 l 633 0 l 497 0 l 347 364 l 197 0 l 61 0 z "},"Y":{"ha":694,"x_min":57,"x_max":638,"o":"m 285 0 l 285 415 l 57 1021 l 190 1021 l 347 576 l 504 1021 l 638 1021 l 410 415 l 410 0 l 285 0 z "},"Z":{"ha":694,"x_min":86,"x_max":608,"o":"m 86 0 l 86 111 l 465 910 l 86 910 l 86 1021 l 608 1021 l 608 910 l 229 111 l 608 111 l 608 0 l 86 0 z "},"[":{"ha":694,"x_min":165,"x_max":556,"o":"m 165 -199 l 165 1143 l 556 1143 l 556 1032 l 290 1032 l 290 -87 l 556 -87 l 556 -199 l 165 -199 z "},"\\":{"ha":694,"x_min":78,"x_max":617,"o":"m 489 -199 l 78 1143 l 206 1143 l 617 -199 l 489 -199 z "},"]":{"ha":694,"x_min":139,"x_max":529,"o":"m 139 -199 l 139 -87 l 404 -87 l 404 1032 l 139 1032 l 139 1143 l 529 1143 l 529 -199 l 139 -199 z "},"^":{"ha":694,"x_min":46,"x_max":649,"o":"m 154 621 l 46 686 l 281 1014 l 414 1014 l 649 686 l 540 621 l 347 913 l 154 621 z "},"_":{"ha":694,"x_min":86,"x_max":608,"o":"m 86 -111 l 86 0 l 608 0 l 608 -111 l 86 -111 z "},"`":{"ha":694,"x_min":119,"x_max":467,"o":"m 381 746 l 119 1044 l 226 1122 l 467 810 l 381 746 z "},"a":{"ha":694,"x_min":75,"x_max":608,"o":"m 289 -11 q 206 1 247 -11 q 133 44 164 14 q 89 115 103 74 q 75 199 75 157 q 84 270 75 235 q 115 333 93 306 q 168 381 138 361 q 233 411 199 400 q 302 426 267 422 q 374 431 338 431 l 483 431 l 483 493 q 474 547 483 521 q 445 590 465 572 q 399 615 425 608 q 346 622 372 622 q 297 617 321 622 q 253 599 274 613 q 221 565 233 586 q 208 519 208 543 l 208 515 l 83 515 l 83 522 q 93 585 83 554 q 121 641 103 615 q 165 685 139 667 q 222 714 192 703 q 283 729 251 725 q 346 733 314 733 q 413 728 379 733 q 478 710 447 724 q 535 675 508 697 q 578 624 561 653 q 601 561 594 594 q 608 493 608 528 l 608 0 l 483 0 l 483 117 q 453 63 472 89 q 408 20 433 38 q 351 -4 382 3 q 289 -11 321 -11 m 342 100 q 399 110 371 100 q 448 141 428 119 q 476 192 468 163 q 483 250 483 221 l 483 319 l 374 319 q 335 318 354 319 q 297 312 315 317 q 261 299 279 307 q 228 279 243 292 q 207 249 214 267 q 200 211 200 231 q 212 163 200 186 q 244 124 224 139 q 290 105 265 110 q 342 100 315 100 z "},"b":{"ha":694,"x_min":86,"x_max":619,"o":"m 404 -11 q 340 -2 372 -11 q 283 26 308 7 q 240 73 258 46 q 211 131 222 100 l 211 0 l 86 0 l 86 1021 l 211 1021 l 211 592 q 240 649 222 622 q 283 696 258 676 q 340 724 308 715 q 404 733 372 733 q 472 724 439 733 q 531 692 504 714 q 574 640 557 669 q 602 578 592 611 q 616 512 613 546 q 619 444 619 478 l 619 278 q 616 210 619 244 q 602 144 613 176 q 574 82 592 111 q 531 31 557 53 q 472 -1 504 8 q 404 -11 439 -11 m 353 100 q 395 106 374 100 q 434 124 417 111 q 463 154 451 136 q 482 193 475 172 q 492 235 489 214 q 494 278 494 257 l 494 444 q 492 487 494 465 q 482 529 489 508 q 463 568 475 550 q 434 599 451 586 q 395 617 417 611 q 353 622 374 622 q 310 617 332 622 q 272 599 289 611 q 242 568 254 586 q 224 529 231 550 q 214 487 217 508 q 211 444 211 465 l 211 278 q 214 235 211 257 q 224 193 217 214 q 242 154 231 172 q 272 124 254 136 q 310 106 289 111 q 353 100 332 100 z "},"c":{"ha":694,"x_min":75,"x_max":611,"o":"m 343 -11 q 269 -3 306 -11 q 199 22 232 4 q 142 69 167 40 q 101 132 117 97 q 81 203 86 167 q 75 278 75 240 l 75 444 q 81 519 75 482 q 101 590 86 556 q 142 653 117 625 q 199 700 167 682 q 269 726 232 718 q 343 733 306 733 q 413 727 378 733 q 479 706 447 721 q 537 666 511 690 q 579 610 563 642 q 603 545 596 579 q 611 475 611 511 l 611 467 l 486 467 l 486 472 q 477 530 486 501 q 449 581 468 558 q 401 613 429 603 q 343 622 372 622 q 281 608 311 622 q 231 568 250 594 q 206 509 213 542 q 200 444 200 476 l 200 278 q 206 213 200 246 q 231 154 213 181 q 281 114 250 128 q 343 100 311 100 q 401 110 372 100 q 449 142 429 119 q 477 192 468 164 q 486 250 486 221 l 486 256 l 611 256 l 611 247 q 603 177 611 211 q 579 112 596 143 q 537 56 563 81 q 479 17 511 32 q 413 -5 447 1 q 343 -11 378 -11 z "},"d":{"ha":694,"x_min":75,"x_max":608,"o":"m 290 -11 q 223 -1 256 -11 q 164 31 190 8 q 120 82 138 53 q 92 144 103 111 q 78 210 82 176 q 75 278 75 244 l 75 444 q 78 512 75 478 q 92 578 82 546 q 120 640 103 611 q 164 692 138 669 q 223 724 190 714 q 290 733 256 733 q 354 724 322 733 q 411 696 386 715 q 454 649 436 676 q 483 592 472 622 l 483 1021 l 608 1021 l 608 0 l 483 0 l 483 131 q 454 73 472 100 q 411 26 436 46 q 354 -2 386 7 q 290 -11 322 -11 m 342 100 q 384 106 363 100 q 423 124 406 111 q 452 154 440 136 q 471 193 464 172 q 481 235 478 214 q 483 278 483 257 l 483 444 q 481 487 483 465 q 471 529 478 508 q 452 568 464 550 q 423 599 440 586 q 384 617 406 611 q 342 622 363 622 q 299 617 321 622 q 260 599 278 611 q 231 568 243 586 q 213 529 219 550 q 203 487 206 508 q 200 444 200 465 l 200 278 q 203 235 200 257 q 213 193 206 214 q 231 154 219 172 q 260 124 243 136 q 299 106 278 111 q 342 100 321 100 z "},"e":{"ha":694,"x_min":75,"x_max":619,"o":"m 347 -11 q 272 -4 310 -11 q 202 22 235 3 q 144 69 169 40 q 102 131 118 97 q 81 203 86 165 q 75 278 75 240 l 75 444 q 81 519 75 482 q 103 591 88 557 q 144 653 118 625 q 202 701 169 682 q 272 726 235 719 q 347 733 310 733 q 422 726 385 733 q 492 701 460 719 q 551 653 525 682 q 592 591 576 625 q 613 519 607 557 q 619 444 619 482 l 619 306 l 200 306 l 200 278 q 207 213 200 244 q 233 153 214 181 q 283 113 253 126 q 347 100 314 100 q 397 105 372 100 q 444 123 422 110 q 478 158 465 136 q 492 207 492 181 l 617 207 q 606 142 617 174 q 577 85 596 111 q 532 39 558 58 q 475 8 506 19 q 412 -7 444 -3 q 347 -11 379 -11 m 200 417 l 494 417 l 494 444 q 488 510 494 478 q 461 569 481 543 q 411 609 442 596 q 347 622 381 622 q 283 609 314 622 q 233 569 253 596 q 207 510 214 543 q 200 444 200 478 l 200 417 z "},"f":{"ha":694,"x_min":86,"x_max":632,"o":"m 363 0 l 238 0 l 238 549 l 86 549 l 86 660 l 238 660 l 238 803 q 242 860 238 831 q 256 915 246 889 q 284 965 267 942 q 326 1003 301 988 q 378 1026 350 1019 q 435 1032 407 1032 q 513 1019 475 1032 q 578 978 551 1007 q 619 912 606 950 q 632 833 632 874 l 632 829 l 507 829 l 507 832 q 503 863 507 847 q 490 893 500 879 q 466 914 481 907 q 435 921 451 921 q 399 908 415 921 q 376 878 383 896 q 365 842 368 861 q 363 803 363 822 l 363 660 l 582 660 l 582 549 l 363 549 l 363 0 z "},"g":{"ha":694,"x_min":75,"x_max":608,"o":"m 344 -310 q 282 -306 313 -310 q 222 -291 251 -301 q 167 -263 193 -281 q 123 -222 142 -246 q 94 -167 104 -197 q 83 -106 85 -137 l 208 -106 q 222 -149 208 -129 q 256 -179 236 -168 q 298 -194 275 -190 q 344 -199 321 -199 q 386 -193 365 -199 q 424 -174 407 -187 q 453 -143 442 -161 q 472 -105 465 -125 q 481 -63 479 -85 q 483 -21 483 -42 l 483 131 q 454 73 472 100 q 411 26 436 46 q 354 -2 386 7 q 290 -11 322 -11 q 223 -1 256 -11 q 164 31 190 8 q 120 82 138 53 q 92 144 103 111 q 78 210 82 176 q 75 278 75 244 l 75 444 q 78 512 75 478 q 92 578 82 546 q 120 640 103 611 q 164 692 138 669 q 223 724 190 714 q 290 733 256 733 q 354 724 322 733 q 411 696 386 715 q 454 649 436 676 q 483 592 472 622 l 483 722 l 608 722 l 608 -21 q 603 -95 608 -58 q 583 -166 597 -132 q 544 -228 568 -200 q 487 -276 519 -257 q 417 -302 454 -294 q 344 -310 381 -310 m 342 100 q 384 106 363 100 q 423 124 406 111 q 452 154 440 136 q 471 193 464 172 q 481 235 478 214 q 483 278 483 257 l 483 444 q 481 487 483 465 q 471 529 478 508 q 452 568 464 550 q 423 599 440 586 q 384 617 406 611 q 342 622 363 622 q 299 617 321 622 q 260 599 278 611 q 231 568 243 586 q 213 529 219 550 q 203 487 206 508 q 200 444 200 465 l 200 278 q 203 235 200 257 q 213 193 206 214 q 231 154 219 172 q 260 124 243 136 q 299 106 278 111 q 342 100 321 100 z "},"h":{"ha":694,"x_min":86,"x_max":608,"o":"m 86 0 l 86 1021 l 211 1021 l 211 593 q 238 649 221 622 q 281 696 256 676 q 336 724 306 715 q 399 733 367 733 q 465 723 432 733 q 523 690 497 713 q 565 639 549 668 q 592 577 582 610 q 605 511 601 544 q 608 444 608 478 l 608 0 l 483 0 l 483 444 q 481 487 483 465 q 472 528 479 508 q 454 567 465 549 q 426 598 443 585 q 389 617 410 611 q 347 622 368 622 q 306 617 326 622 q 268 598 285 611 q 240 567 251 585 q 222 528 229 549 q 213 487 215 508 q 211 444 211 465 l 211 0 l 86 0 z "},"i":{"ha":694,"x_min":104,"x_max":590,"o":"m 104 0 l 104 111 l 294 111 l 294 611 l 124 611 l 124 722 l 419 722 l 419 111 l 590 111 l 590 0 l 104 0 m 354 835 q 316 840 335 835 q 283 860 297 846 q 264 892 269 874 q 258 931 258 911 q 264 969 258 950 q 283 1001 269 988 q 316 1021 297 1015 q 354 1026 335 1026 q 392 1021 374 1026 q 425 1001 411 1015 q 444 969 439 988 q 450 931 450 950 q 444 892 450 911 q 425 860 439 874 q 392 840 411 846 q 354 835 374 835 z "},"j":{"ha":694,"x_min":19,"x_max":521,"o":"m 257 -310 q 196 -305 226 -310 q 138 -287 165 -300 q 87 -252 110 -274 q 49 -203 64 -231 q 27 -147 35 -176 q 19 -85 19 -117 l 144 -85 q 152 -130 144 -108 q 175 -168 160 -151 q 213 -192 190 -185 q 257 -199 235 -199 q 295 -192 276 -199 q 328 -171 314 -185 q 350 -140 342 -157 q 364 -103 358 -122 q 371 -65 369 -85 q 372 -26 372 -46 l 372 611 l 192 611 l 192 722 l 497 722 l 497 -26 q 492 -96 497 -61 q 475 -164 488 -131 q 442 -226 463 -197 q 392 -274 421 -254 q 328 -301 363 -293 q 257 -310 293 -310 m 424 835 q 385 840 404 835 q 353 860 367 846 q 333 892 339 874 q 328 931 328 911 q 333 969 328 950 q 353 1001 339 988 q 385 1021 367 1015 q 424 1026 404 1026 q 462 1021 443 1026 q 494 1001 481 1015 q 514 969 508 988 q 519 931 519 950 q 514 892 519 911 q 494 860 508 874 q 462 840 481 846 q 424 835 443 835 z "},"k":{"ha":694,"x_min":108,"x_max":622,"o":"m 481 0 l 300 299 l 232 211 l 232 0 l 108 0 l 108 1021 l 232 1021 l 232 388 l 475 722 l 622 722 l 371 393 l 622 0 l 481 0 z "},"l":{"ha":694,"x_min":104,"x_max":590,"o":"m 104 0 l 104 111 l 294 111 l 294 910 l 124 910 l 124 1021 l 419 1021 l 419 111 l 590 111 l 590 0 l 104 0 z "},"m":{"ha":694,"x_min":65,"x_max":629,"o":"m 65 0 l 65 722 l 179 722 l 179 656 q 194 685 185 671 q 217 711 204 700 q 247 728 231 722 q 282 733 264 733 q 323 725 303 733 q 358 701 343 717 q 381 667 372 686 q 396 626 390 647 q 409 667 400 647 q 432 701 418 686 q 466 725 446 717 q 507 733 486 733 q 548 725 528 733 q 583 701 568 717 q 606 667 597 686 q 620 626 615 647 q 627 584 625 606 q 629 542 629 563 l 629 0 l 515 0 l 515 542 q 513 572 515 557 q 505 600 511 586 q 487 623 499 614 q 460 632 475 632 q 433 623 444 632 q 415 600 421 614 q 406 572 408 586 q 404 542 404 557 l 404 0 l 290 0 l 290 542 q 288 572 290 557 q 280 600 286 586 q 262 623 274 614 q 235 632 250 632 q 208 623 219 632 q 190 600 196 614 q 181 572 183 586 q 179 542 179 557 l 179 0 l 65 0 z "},"n":{"ha":694,"x_min":86,"x_max":608,"o":"m 86 0 l 86 722 l 211 722 l 211 593 q 238 649 221 622 q 281 696 256 676 q 336 724 306 715 q 399 733 367 733 q 465 723 432 733 q 523 690 497 713 q 565 639 549 668 q 592 577 582 610 q 605 511 601 544 q 608 444 608 478 l 608 0 l 483 0 l 483 444 q 481 487 483 465 q 472 528 479 508 q 454 567 465 549 q 426 598 443 585 q 389 617 410 611 q 347 622 368 622 q 306 617 326 622 q 268 598 285 611 q 240 567 251 585 q 222 528 229 549 q 213 487 215 508 q 211 444 211 465 l 211 0 l 86 0 z "},"o":{"ha":694,"x_min":75,"x_max":619,"o":"m 347 -11 q 272 -4 310 -11 q 202 22 235 3 q 144 69 169 40 q 103 131 118 97 q 81 203 88 165 q 75 278 75 240 l 75 444 q 81 519 75 482 q 103 591 88 557 q 144 653 118 625 q 202 701 169 682 q 272 726 235 719 q 347 733 310 733 q 422 726 385 733 q 492 701 460 719 q 551 653 525 682 q 592 591 576 625 q 613 519 607 557 q 619 444 619 482 l 619 278 q 613 203 619 240 q 592 131 607 165 q 551 69 576 97 q 492 22 525 40 q 422 -4 460 3 q 347 -11 385 -11 m 347 100 q 411 113 381 100 q 461 153 442 126 q 488 212 481 179 q 494 278 494 244 l 494 444 q 488 510 494 478 q 461 569 481 543 q 411 609 442 596 q 347 622 381 622 q 283 609 314 622 q 233 569 253 596 q 207 510 214 543 q 200 444 200 478 l 200 278 q 207 212 200 244 q 233 153 214 179 q 283 113 253 126 q 347 100 314 100 z "},"p":{"ha":694,"x_min":86,"x_max":619,"o":"m 86 -299 l 86 722 l 211 722 l 211 592 q 240 649 222 622 q 283 696 258 676 q 340 724 308 715 q 404 733 372 733 q 472 724 439 733 q 531 692 504 714 q 574 640 557 669 q 602 578 592 611 q 616 512 613 546 q 619 444 619 478 l 619 278 q 616 210 619 244 q 602 144 613 176 q 574 82 592 111 q 531 31 557 53 q 472 -1 504 8 q 404 -11 439 -11 q 340 -2 372 -11 q 283 26 308 7 q 240 73 258 46 q 211 131 222 100 l 211 -299 l 86 -299 m 353 100 q 395 106 374 100 q 434 124 417 111 q 463 154 451 136 q 482 193 475 172 q 492 235 489 214 q 494 278 494 257 l 494 444 q 492 487 494 465 q 482 529 489 508 q 463 568 475 550 q 434 599 451 586 q 395 617 417 611 q 353 622 374 622 q 310 617 332 622 q 272 599 289 611 q 242 568 254 586 q 224 529 231 550 q 214 487 217 508 q 211 444 211 465 l 211 278 q 214 235 211 257 q 224 193 217 214 q 242 154 231 172 q 272 124 254 136 q 310 106 289 111 q 353 100 332 100 z "},"q":{"ha":694,"x_min":75,"x_max":608,"o":"m 483 -299 l 483 131 q 454 73 472 100 q 411 26 436 46 q 354 -2 386 7 q 290 -11 322 -11 q 223 -1 256 -11 q 164 31 190 8 q 120 82 138 53 q 92 144 103 111 q 78 210 82 176 q 75 278 75 244 l 75 444 q 78 512 75 478 q 92 578 82 546 q 120 640 103 611 q 164 692 138 669 q 223 724 190 714 q 290 733 256 733 q 354 724 322 733 q 411 696 386 715 q 454 649 436 676 q 483 592 472 622 l 483 722 l 608 722 l 608 -299 l 483 -299 m 342 100 q 384 106 363 100 q 423 124 406 111 q 452 154 440 136 q 471 193 464 172 q 481 235 478 214 q 483 278 483 257 l 483 444 q 481 487 483 465 q 471 529 478 508 q 452 568 464 550 q 423 599 440 586 q 384 617 406 611 q 342 622 363 622 q 299 617 321 622 q 260 599 278 611 q 231 568 243 586 q 213 529 219 550 q 203 487 206 508 q 200 444 200 465 l 200 278 q 203 235 200 257 q 213 193 206 214 q 231 154 219 172 q 260 124 243 136 q 299 106 278 111 q 342 100 321 100 z "},"r":{"ha":694,"x_min":169,"x_max":629,"o":"m 169 0 l 169 722 l 294 722 l 294 569 q 317 629 303 600 q 352 683 331 658 q 403 720 374 707 q 467 733 433 733 q 517 726 492 733 q 563 703 543 719 q 597 664 583 686 q 617 617 610 642 q 626 566 624 592 q 629 514 629 540 l 504 514 q 501 552 504 533 q 490 588 499 571 q 463 613 481 604 q 426 622 446 622 q 378 610 401 622 q 340 577 356 597 q 317 533 325 557 q 303 483 308 508 q 296 433 297 458 q 294 383 294 408 l 294 0 l 169 0 z "},"s":{"ha":694,"x_min":83,"x_max":608,"o":"m 346 -11 q 285 -8 315 -11 q 225 6 254 -4 q 169 31 196 15 q 124 71 143 47 q 94 124 104 94 q 83 183 83 153 l 83 193 l 208 193 l 208 189 q 222 147 208 167 q 257 117 236 128 q 301 103 278 107 q 346 100 324 100 q 391 103 368 100 q 435 117 414 107 q 469 146 456 126 q 483 188 483 165 q 469 231 483 211 q 435 263 456 250 q 393 283 415 275 q 349 297 371 290 q 304 311 326 304 q 261 328 282 318 q 219 349 240 338 q 181 376 199 361 q 147 408 163 390 q 121 447 132 426 q 103 490 110 467 q 97 536 97 513 q 107 594 97 565 q 134 648 117 624 q 177 689 151 672 q 231 716 203 706 q 288 730 258 726 q 349 733 318 733 q 408 730 378 733 q 466 717 438 726 q 519 690 494 707 q 563 650 544 674 q 590 597 581 626 q 600 539 600 568 l 600 529 l 475 529 l 475 533 q 463 574 475 556 q 433 604 451 593 q 392 619 414 615 q 349 622 371 622 q 306 619 326 622 q 265 605 285 615 q 234 576 246 594 q 222 535 222 557 q 236 492 222 513 q 269 460 250 472 q 311 440 289 447 q 356 426 333 432 q 400 412 378 419 q 444 394 422 404 q 485 373 465 385 q 524 347 506 361 q 558 315 543 332 q 585 276 574 297 q 602 233 596 256 q 608 188 608 211 q 598 127 608 157 q 569 73 588 97 q 524 32 550 49 q 467 6 497 15 q 407 -8 438 -4 q 346 -11 376 -11 z "},"t":{"ha":694,"x_min":97,"x_max":649,"o":"m 435 -11 q 372 -3 403 -11 q 314 24 340 6 q 269 70 288 43 q 241 127 251 97 q 226 190 231 157 q 222 254 222 222 l 222 611 l 97 611 l 97 722 l 222 722 l 222 1021 l 347 1021 l 347 722 l 583 722 l 583 611 l 347 611 l 347 254 q 349 221 347 238 q 353 188 350 204 q 363 157 357 172 q 378 128 368 142 q 403 108 389 115 q 435 100 418 100 q 466 107 451 100 q 490 126 481 114 q 506 153 500 139 q 516 184 513 168 q 522 216 519 200 q 524 247 524 232 l 524 256 l 649 256 l 649 242 q 643 180 649 211 q 626 119 638 149 q 597 65 615 90 q 553 22 578 40 q 497 -3 528 4 q 435 -11 467 -11 z "},"u":{"ha":694,"x_min":86,"x_max":608,"o":"m 296 -11 q 230 -1 263 -11 q 172 32 197 10 q 129 83 146 54 q 103 145 113 113 q 90 211 93 178 q 86 278 86 244 l 86 722 l 211 722 l 211 278 q 213 235 211 257 q 222 194 215 214 q 240 156 229 174 q 268 124 251 138 q 306 106 285 111 q 347 100 326 100 q 389 106 368 100 q 426 124 410 111 q 454 156 443 138 q 472 194 465 174 q 481 235 479 214 q 483 278 483 257 l 483 722 l 608 722 l 608 0 l 483 0 l 483 129 q 456 73 474 100 q 414 26 439 46 q 358 -2 389 7 q 296 -11 328 -11 z "},"v":{"ha":694,"x_min":57,"x_max":638,"o":"m 419 0 l 275 0 l 57 722 l 189 722 l 322 240 q 335 194 328 218 q 347 149 342 171 q 360 194 353 171 q 372 240 367 218 l 506 722 l 638 722 l 419 0 z "},"w":{"ha":694,"x_min":43,"x_max":651,"o":"m 533 0 l 425 0 l 347 386 l 269 0 l 161 0 l 43 722 l 163 722 l 224 174 l 293 519 l 401 519 l 471 174 l 532 722 l 651 722 l 533 0 z "},"x":{"ha":694,"x_min":68,"x_max":626,"o":"m 68 0 l 283 361 l 68 722 l 214 722 l 347 478 l 481 722 l 626 722 l 411 361 l 626 0 l 481 0 l 347 244 l 214 0 l 68 0 z "},"y":{"ha":694,"x_min":69,"x_max":625,"o":"m 201 -299 q 228 -208 215 -253 q 254 -117 242 -162 l 285 -14 l 69 722 l 197 722 l 349 149 l 497 722 l 625 722 l 374 -147 l 331 -299 l 201 -299 z "},"z":{"ha":694,"x_min":86,"x_max":608,"o":"m 86 0 l 86 111 l 474 611 l 86 611 l 86 722 l 608 722 l 608 611 l 221 111 l 608 111 l 608 0 l 86 0 z "},"{":{"ha":694,"x_min":113,"x_max":556,"o":"m 556 -212 q 478 -208 517 -212 q 403 -190 440 -203 q 333 -157 367 -178 q 276 -106 300 -136 q 240 -39 251 -76 q 228 38 228 -1 q 231 79 228 58 q 240 120 233 100 q 255 160 246 140 q 273 198 264 179 q 288 237 282 217 q 294 279 294 257 q 288 321 294 300 q 269 359 282 342 q 237 388 256 376 q 197 406 218 399 q 155 415 176 413 q 113 417 133 417 l 113 528 q 155 530 133 528 q 197 539 176 532 q 237 557 218 546 q 269 585 256 568 q 288 624 282 603 q 294 665 294 644 q 288 708 294 688 q 273 747 282 728 q 255 785 264 765 q 240 824 246 804 q 231 865 233 844 q 228 907 228 886 q 240 983 228 946 q 276 1051 251 1021 q 333 1101 300 1081 q 403 1135 367 1122 q 478 1152 440 1147 q 556 1157 517 1157 l 556 1046 q 510 1043 533 1046 q 465 1034 488 1040 q 422 1017 443 1028 q 385 990 401 1007 q 361 952 369 974 q 353 907 353 931 q 359 866 353 886 q 374 826 365 846 q 392 788 383 807 q 406 749 400 769 q 416 708 413 729 q 419 665 419 688 q 410 603 419 635 q 383 547 401 572 q 338 503 364 521 q 282 472 313 485 q 338 442 313 460 q 383 398 364 424 q 410 341 401 372 q 419 279 419 310 q 416 236 419 257 q 406 195 413 215 q 392 156 400 175 q 374 118 383 138 q 359 78 365 99 q 353 38 353 58 q 361 -8 353 14 q 385 -46 369 -29 q 422 -73 401 -62 q 465 -90 443 -83 q 510 -99 488 -96 q 556 -101 533 -101 l 556 -212 z "},"|":{"ha":694,"x_min":285,"x_max":410,"o":"m 285 -199 l 285 1143 l 410 1143 l 410 -199 l 285 -199 z "},"}":{"ha":694,"x_min":139,"x_max":582,"o":"m 139 -212 l 139 -101 q 184 -99 161 -101 q 229 -90 207 -96 q 272 -73 251 -83 q 309 -46 293 -62 q 333 -8 325 -29 q 342 38 342 14 q 335 78 342 58 q 320 118 329 99 q 303 156 311 138 q 288 195 294 175 q 278 236 282 215 q 275 279 275 257 q 284 341 275 310 q 312 398 293 372 q 356 442 331 424 q 413 472 382 460 q 356 503 382 485 q 312 547 331 521 q 284 603 293 572 q 275 665 275 635 q 278 708 275 688 q 288 749 282 729 q 303 788 294 769 q 320 826 311 807 q 335 866 329 846 q 342 907 342 886 q 333 952 342 931 q 309 990 325 974 q 272 1017 293 1007 q 229 1034 251 1028 q 184 1043 207 1040 q 139 1046 161 1046 l 139 1157 q 216 1152 178 1157 q 291 1135 254 1147 q 361 1101 328 1122 q 419 1051 394 1081 q 455 983 443 1021 q 467 907 467 946 q 464 865 467 886 q 455 824 461 844 q 440 785 449 804 q 422 747 431 765 q 406 708 413 728 q 400 665 400 688 q 406 624 400 644 q 426 585 413 603 q 458 557 439 568 q 497 539 476 546 q 540 530 518 532 q 582 528 561 528 l 582 417 q 540 415 561 417 q 497 406 518 413 q 458 388 476 399 q 426 359 439 376 q 406 321 413 342 q 400 279 400 300 q 406 237 400 257 q 422 198 413 217 q 440 160 431 179 q 455 120 449 140 q 464 79 461 100 q 467 38 467 58 q 455 -39 467 -1 q 419 -106 443 -76 q 361 -157 394 -136 q 291 -190 328 -178 q 216 -208 254 -203 q 139 -212 178 -212 z "},"~":{"ha":694,"x_min":32,"x_max":663,"o":"m 449 254 q 428 256 439 254 q 410 262 418 258 q 393 270 401 265 q 376 281 385 275 q 362 294 368 288 q 349 308 356 300 q 338 323 343 315 q 326 339 332 331 q 316 356 321 347 q 306 372 311 364 q 296 390 301 381 q 285 408 290 399 q 274 425 279 417 q 263 441 268 433 q 250 456 258 449 q 242 468 242 463 l 250 468 q 244 461 250 467 q 233 449 238 456 q 224 437 228 443 q 217 426 219 431 q 212 417 214 422 q 206 408 210 413 q 200 397 203 403 q 194 386 197 392 q 189 374 192 381 q 183 360 186 367 q 176 346 179 353 q 169 331 172 339 q 162 314 165 322 q 155 297 158 306 q 148 278 151 288 q 140 260 144 269 l 32 296 q 44 328 38 313 q 56 357 50 343 q 67 383 61 371 q 78 408 72 396 q 89 431 83 419 q 100 451 94 442 q 111 470 106 461 q 122 488 117 479 q 137 508 128 496 q 155 528 146 519 q 174 545 164 538 q 195 558 183 553 q 219 567 207 564 q 246 571 232 571 q 266 569 256 571 q 285 564 276 567 q 301 556 293 561 q 318 545 310 551 q 333 533 326 539 q 345 519 339 526 q 357 503 351 511 q 368 487 363 494 q 378 471 374 479 q 388 454 383 463 q 399 437 393 446 q 410 418 404 428 q 421 400 415 408 q 431 385 426 392 q 444 371 436 378 q 453 358 453 364 l 444 358 q 451 365 444 360 q 462 377 457 371 q 471 390 467 383 q 478 400 475 396 q 483 408 481 404 q 488 418 485 413 q 494 429 492 424 q 500 440 497 435 q 506 452 503 446 q 512 465 508 458 q 519 480 515 472 q 526 495 522 488 q 533 511 529 503 q 540 528 536 519 q 547 547 543 538 q 554 567 550 557 l 663 531 q 651 499 657 514 q 639 469 644 483 q 628 442 633 456 q 617 417 622 429 q 606 395 611 406 q 594 374 600 385 q 583 355 589 364 q 572 338 578 346 q 558 319 567 331 q 540 298 549 307 q 521 281 531 289 q 499 267 511 274 q 475 258 488 261 q 449 254 463 254 z "},"":{"ha":694,"x_min":0,"x_max":0,"o":""},"":{"ha":694,"x_min":240,"x_max":454,"o":"m 347 518 q 304 524 325 518 q 268 546 283 531 q 247 583 253 561 q 240 626 240 604 q 247 669 240 647 q 268 706 253 690 q 304 727 283 721 q 347 733 325 733 q 390 727 369 733 q 426 706 411 721 q 448 669 442 690 q 454 626 454 647 q 448 583 454 604 q 426 546 442 561 q 390 524 411 531 q 347 518 369 518 m 285 -299 l 285 361 l 410 361 l 410 -299 l 285 -299 z "},"":{"ha":694,"x_min":75,"x_max":611,"o":"m 290 -149 l 290 -8 q 227 9 258 -3 q 170 42 196 21 q 126 90 144 63 q 95 149 107 118 q 79 212 83 179 q 75 278 75 244 l 75 444 q 79 510 75 478 q 95 574 83 543 q 126 632 107 604 q 170 681 144 660 q 227 713 196 701 q 290 731 258 725 l 290 872 l 404 872 l 404 729 q 489 701 449 722 q 557 644 529 679 q 598 565 585 608 q 611 475 611 521 l 611 467 l 486 467 l 486 472 q 481 517 486 494 q 464 560 475 540 q 434 594 453 579 q 394 615 415 608 l 394 107 q 434 128 415 114 q 464 163 453 143 q 481 205 475 182 q 486 250 486 228 l 486 256 l 611 256 l 611 247 q 598 158 611 201 q 557 78 585 114 q 489 22 529 43 q 404 -7 449 0 l 404 -149 l 290 -149 m 300 106 l 300 617 q 254 592 275 610 q 221 549 233 574 q 204 498 208 525 q 200 444 200 471 l 200 278 q 204 224 200 251 q 221 173 208 197 q 254 131 233 149 q 300 106 275 113 z "},"":{"ha":694,"x_min":71,"x_max":608,"o":"m 86 0 l 86 111 q 133 168 114 136 q 164 236 153 200 q 177 310 175 272 q 179 383 179 347 l 179 464 l 71 464 l 71 557 l 179 557 l 179 817 q 183 872 179 844 q 199 926 188 900 q 231 972 211 951 q 274 1007 250 993 q 326 1026 299 1021 q 382 1032 354 1032 q 465 1017 424 1032 q 533 972 506 1003 q 572 899 560 940 q 585 815 585 857 l 585 804 l 460 804 l 460 810 q 456 848 460 829 q 444 883 453 867 q 418 910 435 900 q 382 921 401 921 q 347 912 364 921 q 321 887 331 903 q 308 853 311 871 q 304 817 304 835 l 304 557 l 436 557 l 436 464 l 304 464 l 304 383 q 303 313 304 349 q 295 243 301 278 q 276 174 289 208 q 244 111 264 140 l 608 111 l 608 0 l 86 0 z "},"":{"ha":694,"x_min":49,"x_max":646,"o":"m 124 178 l 49 244 l 135 332 q 108 399 115 363 q 101 472 101 436 q 108 545 101 508 q 135 613 115 582 l 49 700 l 124 767 l 207 685 q 274 711 238 704 q 347 718 311 718 q 420 711 383 718 q 488 685 457 704 l 571 767 l 646 700 l 560 613 q 586 545 579 582 q 593 472 593 508 q 586 399 593 436 q 560 332 579 363 l 646 244 l 571 178 l 488 260 q 420 233 457 240 q 347 226 383 226 q 274 233 311 226 q 207 260 238 240 l 124 178 m 347 322 q 404 332 376 322 q 451 364 432 342 q 478 415 471 386 q 486 472 486 443 q 478 530 486 501 q 451 581 471 558 q 404 613 432 603 q 347 622 376 622 q 290 613 318 622 q 243 581 263 603 q 216 530 224 558 q 208 472 208 501 q 216 415 208 443 q 243 364 224 386 q 290 332 263 342 q 347 322 318 322 z "},"":{"ha":694,"x_min":57,"x_max":638,"o":"m 285 0 l 285 158 l 86 158 l 86 250 l 285 250 l 285 363 l 86 363 l 86 454 l 269 454 l 57 1021 l 190 1021 l 347 576 l 504 1021 l 638 1021 l 425 454 l 608 454 l 608 363 l 410 363 l 410 250 l 608 250 l 608 158 l 410 158 l 410 0 l 285 0 z "},"":{"ha":694,"x_min":285,"x_max":410,"o":"m 285 536 l 285 1143 l 410 1143 l 410 536 l 285 536 m 285 -199 l 285 408 l 410 408 l 410 -199 l 285 -199 z "},"":{"ha":694,"x_min":83,"x_max":611,"o":"m 346 -210 q 277 -203 311 -210 q 212 -182 243 -197 q 156 -142 181 -167 q 115 -86 131 -117 q 91 -22 99 -56 q 83 47 83 13 l 83 57 l 208 57 l 208 51 q 217 -6 208 22 q 244 -56 225 -35 q 290 -88 263 -78 q 346 -99 317 -99 q 403 -87 375 -99 q 449 -54 431 -76 q 476 -3 467 -32 q 485 54 485 25 q 471 115 485 86 q 433 165 457 144 q 378 199 408 186 q 319 222 349 211 q 259 244 289 232 q 202 274 229 256 q 153 315 175 292 q 115 365 131 338 q 93 424 100 393 q 86 488 86 456 q 92 546 86 517 q 108 602 97 575 q 135 653 118 629 q 174 697 151 678 q 136 736 153 714 q 108 783 119 758 q 92 834 97 807 q 86 889 86 861 q 94 958 86 924 q 117 1024 101 993 q 158 1081 133 1056 q 213 1124 182 1107 q 278 1147 243 1140 q 349 1154 314 1154 q 417 1148 383 1154 q 483 1126 451 1142 q 539 1086 514 1111 q 580 1031 564 1061 q 603 966 596 1000 q 611 897 611 932 l 611 888 l 486 888 l 486 893 q 478 951 486 922 q 451 1001 469 979 q 405 1033 432 1022 q 349 1043 378 1043 q 292 1032 319 1043 q 246 999 264 1021 q 219 948 228 976 q 210 890 210 919 q 224 829 210 858 q 262 779 238 800 q 316 746 286 758 q 376 723 346 733 q 435 701 406 713 q 492 671 465 689 q 542 630 519 653 q 579 579 564 607 q 601 520 594 551 q 608 457 608 489 q 603 399 608 428 q 587 342 597 369 q 560 291 576 315 q 521 247 543 267 q 558 208 542 231 q 586 162 575 186 q 603 110 597 138 q 608 56 608 83 q 601 -14 608 21 q 577 -80 593 -49 q 537 -137 561 -111 q 482 -179 513 -162 q 416 -203 451 -196 q 346 -210 381 -210 m 401 311 q 438 335 421 319 q 464 369 454 350 q 479 410 474 389 q 485 453 485 432 q 467 521 485 489 q 422 574 450 553 q 360 608 393 594 q 293 633 326 621 q 257 610 274 625 q 231 575 240 594 q 215 534 221 556 q 210 492 210 513 q 227 424 210 456 q 273 371 244 392 q 335 337 301 350 q 401 311 368 324 z "},"":{"ha":694,"x_min":115,"x_max":579,"o":"m 486 838 q 449 843 468 838 q 417 862 431 849 q 399 894 404 875 q 393 931 393 913 q 399 967 393 949 q 417 999 404 986 q 449 1018 431 1013 q 486 1024 468 1024 q 523 1018 504 1024 q 555 999 542 1013 q 574 967 568 986 q 579 931 579 949 q 574 894 579 913 q 555 862 568 875 q 523 843 542 849 q 486 838 504 838 m 208 838 q 172 843 190 838 q 140 862 153 849 q 121 894 126 875 q 115 931 115 913 q 121 967 115 949 q 140 999 126 986 q 172 1018 153 1013 q 208 1024 190 1024 q 245 1018 226 1024 q 277 999 264 1013 q 296 967 290 986 q 301 931 301 949 q 296 894 301 913 q 277 862 290 875 q 245 843 264 849 q 208 838 226 838 z "},"":{"ha":694,"x_min":142,"x_max":544,"o":"m 297 440 q 237 449 267 440 q 185 479 207 458 q 152 529 163 500 q 142 589 142 558 q 149 642 142 617 q 174 688 157 668 q 214 722 190 708 q 263 744 238 736 q 314 754 288 751 q 367 757 340 757 l 438 757 l 438 797 q 430 828 438 814 q 408 852 422 843 q 378 864 394 861 q 346 867 363 867 q 316 865 331 867 q 288 856 301 863 q 264 838 274 850 q 254 811 254 826 l 254 810 l 147 810 l 147 814 q 165 880 147 849 q 213 930 183 911 q 276 956 242 949 q 346 963 311 963 q 395 959 371 963 q 442 947 419 956 q 485 924 465 939 q 519 890 506 910 q 539 846 533 869 q 544 797 544 822 l 544 449 l 438 449 l 438 529 q 415 491 429 508 q 383 462 401 474 q 342 445 364 450 q 297 440 319 440 m 343 536 q 379 541 361 536 q 411 558 397 546 q 431 588 425 569 q 438 624 438 606 l 438 663 l 367 663 q 342 662 354 663 q 317 658 329 661 q 294 652 306 656 q 272 642 282 649 q 255 624 261 635 q 249 600 249 613 q 258 569 249 583 q 281 548 267 556 q 310 538 294 540 q 343 536 326 536 m 150 263 l 150 343 l 544 343 l 544 263 l 150 263 z "},"":{"ha":694,"x_min":47,"x_max":643,"o":"m 549 119 q 505 213 529 168 q 451 301 481 258 q 386 381 422 343 q 308 447 350 418 l 308 497 q 386 564 350 526 q 451 644 422 601 q 505 731 481 686 q 549 825 529 776 l 643 790 q 559 620 608 703 q 442 472 510 538 q 559 324 510 407 q 643 154 608 242 l 549 119 m 288 119 q 244 213 268 168 q 190 301 219 258 q 125 381 161 343 q 47 447 89 418 l 47 497 q 125 564 89 526 q 190 644 161 601 q 244 731 219 686 q 288 825 268 776 l 382 790 q 298 620 347 703 q 181 472 249 538 q 298 324 249 407 q 382 154 347 242 l 288 119 z "},"":{"ha":694,"x_min":86,"x_max":608,"o":"m 492 185 l 492 421 l 86 421 l 86 524 l 608 524 l 608 185 l 492 185 z "},"":{"ha":694,"x_min":86,"x_max":608,"o":"m 86 417 l 86 528 l 608 528 l 608 417 l 86 417 z "},"":{"ha":694,"x_min":21,"x_max":674,"o":"m 225 714 l 225 1122 l 356 1122 q 405 1113 381 1122 q 445 1085 429 1104 q 467 1042 461 1067 q 474 992 474 1017 q 470 956 474 974 q 459 921 467 938 q 438 891 451 904 q 407 871 424 878 l 482 714 l 396 714 l 325 861 l 306 861 l 306 714 l 225 714 m 306 932 l 356 932 q 374 938 365 932 q 386 953 382 944 q 392 972 390 963 q 393 992 393 982 q 392 1012 393 1001 q 386 1031 390 1022 q 374 1045 382 1039 q 356 1051 365 1051 l 306 1051 l 306 932 m 347 592 q 260 599 304 592 q 178 626 217 607 q 107 678 139 646 q 56 749 75 710 q 28 831 36 788 q 21 918 21 875 q 28 1005 21 961 q 56 1088 36 1049 q 107 1158 75 1126 q 178 1210 139 1190 q 260 1237 217 1229 q 347 1244 304 1244 q 434 1237 390 1244 q 517 1210 478 1229 q 588 1158 556 1190 q 639 1088 619 1126 q 666 1005 658 1049 q 674 918 674 961 q 666 831 674 875 q 639 749 658 788 q 588 678 619 710 q 517 626 556 646 q 434 599 478 607 q 347 592 390 592 m 347 663 q 414 669 381 663 q 477 691 447 675 q 531 732 507 707 q 569 788 554 757 q 588 851 583 818 q 593 918 593 885 q 588 985 593 951 q 569 1049 583 1018 q 531 1104 554 1079 q 477 1145 507 1129 q 414 1167 447 1161 q 347 1174 381 1174 q 281 1167 314 1174 q 217 1145 247 1161 q 164 1104 188 1129 q 126 1049 140 1079 q 106 985 111 1018 q 101 918 101 951 q 106 851 101 885 q 126 788 111 818 q 164 732 140 757 q 217 691 188 707 q 281 669 247 675 q 347 663 314 663 z "},"":{"ha":694,"x_min":86,"x_max":608,"o":"m 86 882 l 86 979 l 608 979 l 608 882 l 86 882 z "},"":{"ha":694,"x_min":181,"x_max":514,"o":"m 347 744 q 281 755 314 744 q 225 789 249 765 q 191 845 201 813 q 181 911 181 878 q 191 977 181 944 q 225 1033 201 1010 q 281 1067 249 1057 q 347 1078 314 1078 q 413 1067 381 1078 q 469 1033 446 1057 q 503 977 493 1010 q 514 911 514 944 q 503 845 514 878 q 469 789 493 813 q 413 755 446 765 q 347 744 381 744 m 347 844 q 374 849 361 844 q 397 862 388 853 q 410 884 406 871 q 414 911 414 897 q 410 938 414 925 q 397 960 406 951 q 374 974 388 969 q 347 978 361 978 q 320 974 333 978 q 298 960 307 969 q 285 938 289 951 q 281 911 281 925 q 285 884 281 897 q 298 862 289 871 q 320 849 307 853 q 347 844 333 844 z "},"":{"ha":694,"x_min":86,"x_max":608,"o":"m 289 200 l 289 421 l 86 421 l 86 524 l 289 524 l 289 744 l 406 744 l 406 524 l 608 524 l 608 421 l 406 421 l 406 200 l 289 200 m 86 0 l 86 104 l 608 104 l 608 0 l 86 0 z "},"":{"ha":694,"x_min":147,"x_max":549,"o":"m 150 449 l 150 450 q 151 512 150 481 q 159 574 153 543 q 177 633 165 604 q 207 689 189 663 q 247 738 225 715 q 293 778 268 760 q 345 814 318 797 q 394 853 372 831 q 428 904 417 875 q 440 965 440 933 q 436 1006 440 986 q 419 1042 432 1026 q 388 1067 407 1058 q 349 1075 368 1075 q 313 1070 331 1075 q 281 1053 294 1065 q 262 1023 268 1040 q 256 988 256 1006 l 256 985 l 147 985 l 147 990 q 163 1065 147 1028 q 206 1126 178 1101 q 272 1161 235 1151 q 349 1171 310 1171 q 428 1158 389 1171 q 497 1116 468 1146 q 537 1046 525 1086 q 549 965 549 1006 q 540 900 549 932 q 513 840 531 868 q 471 790 496 813 q 419 749 446 768 q 367 708 393 729 q 321 662 342 688 q 285 606 300 636 q 264 544 271 576 l 544 544 l 544 449 l 150 449 z "},"":{"ha":694,"x_min":140,"x_max":561,"o":"m 350 440 q 272 450 311 440 q 203 485 233 460 q 156 547 172 510 q 140 622 140 583 l 140 626 l 247 626 l 247 625 q 256 588 247 606 q 278 558 264 569 q 312 541 293 546 q 350 536 331 536 q 391 543 371 536 q 426 565 411 550 q 447 601 440 581 q 453 643 453 621 q 442 695 453 669 q 410 739 431 721 q 362 762 389 757 q 308 767 335 767 l 308 863 q 357 868 332 863 q 400 890 382 874 q 428 930 418 906 q 438 978 438 954 q 432 1015 438 997 q 415 1047 426 1033 q 386 1068 404 1061 q 350 1075 368 1075 q 316 1069 333 1075 q 287 1051 299 1064 q 269 1022 275 1039 q 264 988 264 1006 l 264 985 l 156 985 l 156 990 q 169 1064 156 1028 q 211 1125 183 1100 q 276 1160 239 1150 q 350 1171 313 1171 q 426 1159 389 1171 q 491 1120 464 1147 q 531 1056 518 1093 q 544 981 544 1019 q 539 931 544 956 q 521 885 533 907 q 490 846 508 864 q 450 817 472 828 q 496 787 475 806 q 531 745 517 768 q 553 695 546 722 q 561 640 561 668 q 546 560 561 599 q 501 492 531 521 q 431 452 471 464 q 350 440 390 440 z "},"":{"ha":694,"x_min":228,"x_max":575,"o":"m 314 746 l 228 810 l 468 1122 l 575 1044 l 314 746 z "},"":{"ha":694,"x_min":86,"x_max":608,"o":"m 86 -299 l 86 722 l 211 722 l 211 278 q 213 235 211 257 q 222 194 215 214 q 240 156 229 174 q 268 124 251 138 q 306 106 285 111 q 347 100 326 100 q 406 113 378 100 q 452 152 435 126 q 476 208 469 178 q 483 268 483 238 l 483 722 l 608 722 l 608 0 l 483 0 l 483 129 q 456 73 474 100 q 414 26 439 46 q 358 -2 389 7 q 296 -11 328 -11 q 249 -6 272 -11 q 204 8 225 -1 q 210 -70 208 -31 q 211 -150 211 -110 l 211 -299 l 86 -299 z "},"":{"ha":694,"x_min":86,"x_max":608,"o":"m 324 0 l 324 468 q 255 476 289 468 q 192 502 221 483 q 142 549 163 521 q 108 608 121 576 q 91 675 96 640 q 86 744 86 710 q 91 813 86 779 q 108 880 96 847 q 142 940 121 913 q 192 987 163 968 q 255 1013 221 1006 q 324 1021 289 1021 l 608 1021 l 608 0 l 513 0 l 513 936 l 419 936 l 419 0 l 324 0 z "},"":{"ha":694,"x_min":228,"x_max":467,"o":"m 347 353 q 300 360 324 353 q 260 385 276 368 q 235 425 243 401 q 228 472 228 449 q 235 519 228 496 q 260 560 243 543 q 300 584 276 576 q 347 592 324 592 q 394 584 371 592 q 435 560 418 576 q 459 519 451 543 q 467 472 467 496 q 459 425 467 449 q 435 385 451 401 q 394 360 418 368 q 347 353 371 353 z "},"":{"ha":694,"x_min":208,"x_max":497,"o":"m 208 -306 l 208 -208 l 347 -208 q 367 -206 357 -208 q 385 -199 376 -204 q 398 -185 393 -194 q 403 -165 403 -175 q 399 -146 403 -156 q 386 -131 394 -136 q 367 -122 378 -125 q 347 -119 357 -119 l 293 -119 l 293 0 l 401 0 l 401 -54 q 441 -71 422 -60 q 473 -99 460 -82 q 492 -135 486 -115 q 497 -178 497 -156 q 486 -232 497 -206 q 453 -276 475 -258 q 403 -299 431 -293 q 347 -306 375 -306 l 208 -306 z "},"":{"ha":694,"x_min":157,"x_max":431,"o":"m 322 449 l 322 1053 l 215 958 l 157 1018 l 322 1164 l 431 1164 l 431 449 l 322 449 z "},"":{"ha":694,"x_min":142,"x_max":553,"o":"m 347 440 q 292 445 319 440 q 241 462 265 450 q 197 493 217 474 q 164 537 176 513 q 147 588 151 561 q 142 643 142 615 l 142 760 q 147 815 142 788 q 164 866 151 842 q 197 910 176 890 q 241 941 217 929 q 292 958 265 953 q 347 963 319 963 q 402 958 375 963 q 453 941 429 953 q 498 910 478 929 q 531 866 518 890 q 548 815 543 842 q 553 760 553 788 l 553 643 q 548 588 553 615 q 531 537 543 561 q 498 493 518 513 q 453 462 478 474 q 402 445 429 450 q 347 440 375 440 m 347 536 q 388 544 368 536 q 421 567 407 551 q 440 602 435 582 q 444 643 444 622 l 444 760 q 440 801 444 781 q 421 836 435 821 q 388 859 407 851 q 347 867 368 867 q 307 859 326 867 q 274 836 288 851 q 255 801 260 821 q 250 760 250 781 l 250 643 q 255 602 250 622 q 274 567 260 582 q 307 544 288 551 q 347 536 326 536 m 150 263 l 150 343 l 544 343 l 544 263 l 150 263 z "},"":{"ha":694,"x_min":51,"x_max":647,"o":"m 407 119 l 313 154 q 397 324 347 242 q 514 472 446 407 q 397 620 446 538 q 313 790 347 703 l 407 825 q 451 731 426 776 q 504 644 475 686 q 569 564 533 601 q 647 497 606 526 l 647 447 q 569 381 606 418 q 504 301 533 343 q 451 213 475 258 q 407 119 426 168 m 146 119 l 51 154 q 135 324 86 242 q 253 472 185 407 q 135 620 185 538 q 51 790 86 703 l 146 825 q 190 731 165 776 q 243 644 214 686 q 308 564 272 601 q 386 497 344 526 l 386 447 q 308 381 344 418 q 243 301 272 343 q 190 213 214 258 q 146 119 165 168 z "},"":{"ha":694,"x_min":86,"x_max":608,"o":"m 86 435 l 86 510 l 608 510 l 608 435 l 86 435 m 321 617 l 321 1076 l 250 1010 l 196 1063 l 321 1178 l 421 1178 l 421 617 l 321 617 m 369 -233 l 369 -97 l 175 -97 l 175 -10 l 364 328 l 464 328 l 274 -10 l 369 -10 l 369 89 l 468 89 l 468 -10 l 515 -10 l 515 -97 l 468 -97 l 468 -233 l 369 -233 z "},"":{"ha":694,"x_min":86,"x_max":608,"o":"m 86 435 l 86 510 l 608 510 l 608 435 l 86 435 m 321 617 l 321 1076 l 250 1010 l 196 1063 l 321 1178 l 421 1178 l 421 617 l 321 617 m 181 -233 l 181 -232 q 182 -183 181 -208 q 188 -134 183 -158 q 203 -87 193 -110 q 226 -43 213 -64 q 258 -5 240 -22 q 295 27 275 13 q 338 53 315 42 q 378 81 360 65 q 408 120 397 97 q 419 168 419 143 q 416 198 419 183 q 403 224 413 213 q 378 241 393 236 q 349 246 364 246 q 323 243 336 246 q 299 233 310 240 q 283 214 289 226 q 278 189 278 201 l 278 188 l 179 188 l 179 192 q 192 251 179 222 q 231 300 206 281 q 286 327 256 319 q 349 335 317 335 q 415 325 382 335 q 473 292 449 315 q 508 235 497 268 q 518 168 518 201 q 512 118 518 143 q 492 72 506 93 q 459 34 478 51 q 419 2 440 17 q 378 -27 399 -12 q 340 -60 357 -42 q 309 -99 322 -78 q 289 -146 296 -121 l 515 -146 l 515 -233 l 181 -233 z "},"":{"ha":694,"x_min":86,"x_max":608,"o":"m 86 435 l 86 510 l 608 510 l 608 435 l 86 435 m 350 611 q 286 618 318 611 q 228 644 254 625 q 188 692 203 663 q 174 754 174 722 l 174 757 l 272 757 l 272 756 q 279 730 272 742 q 298 710 286 718 q 323 701 310 703 q 350 699 336 699 q 380 703 365 699 q 406 717 394 707 q 424 741 418 726 q 429 771 429 756 q 419 810 429 792 q 393 841 410 829 q 356 856 376 853 q 314 860 335 860 l 314 947 q 352 951 333 947 q 385 965 371 954 q 408 994 400 976 q 417 1029 417 1011 q 413 1056 417 1043 q 399 1078 408 1069 q 376 1092 389 1088 q 350 1096 364 1096 q 326 1093 338 1096 q 304 1083 314 1090 q 289 1063 294 1075 q 283 1039 283 1051 l 283 1038 l 185 1038 l 185 1042 q 198 1101 185 1072 q 235 1150 211 1131 q 289 1177 258 1169 q 350 1185 319 1185 q 413 1176 382 1185 q 468 1145 444 1167 q 503 1093 492 1124 q 515 1032 515 1063 q 510 994 515 1013 q 496 958 506 975 q 472 928 486 942 q 442 906 458 914 q 477 882 461 896 q 505 850 493 868 q 522 811 517 832 q 528 769 528 790 q 515 704 528 736 q 476 650 501 672 q 417 619 450 628 q 350 611 383 611 m 369 -233 l 369 -97 l 175 -97 l 175 -10 l 364 328 l 464 328 l 274 -10 l 369 -10 l 369 89 l 468 89 l 468 -10 l 515 -10 l 515 -97 l 468 -97 l 468 -233 l 369 -233 z "},"":{"ha":694,"x_min":86,"x_max":611,"o":"m 347 518 q 304 524 325 518 q 268 546 283 531 q 247 583 253 561 q 240 626 240 604 q 247 669 240 647 q 268 706 253 690 q 304 727 283 721 q 347 733 325 733 q 390 727 369 733 q 426 706 411 721 q 448 669 442 690 q 454 626 454 647 q 448 583 454 604 q 426 546 442 561 q 390 524 411 531 q 347 518 369 518 m 349 -310 q 281 -304 315 -310 q 217 -285 247 -299 q 160 -247 186 -271 q 118 -194 135 -224 q 94 -132 101 -165 q 86 -64 86 -99 q 93 2 86 -31 q 113 65 100 35 q 142 124 125 96 q 180 180 160 153 q 222 232 200 207 q 260 287 244 257 q 280 350 275 317 q 285 415 285 383 l 410 415 q 408 349 410 382 q 397 283 406 315 q 372 222 388 251 q 338 165 357 192 q 296 112 318 138 q 255 59 274 86 q 224 1 236 32 q 211 -64 211 -31 q 220 -118 211 -92 q 249 -163 229 -144 q 294 -190 268 -182 q 349 -199 321 -199 q 405 -189 378 -199 q 451 -158 432 -179 q 478 -108 469 -136 q 486 -51 486 -81 l 486 -43 l 611 -43 l 611 -57 q 603 -125 611 -92 q 579 -189 596 -158 q 538 -244 563 -219 q 482 -283 513 -268 q 417 -304 451 -299 q 349 -310 383 -310 z "},"":{"ha":694,"x_min":57,"x_max":638,"o":"m 57 0 l 275 1021 l 419 1021 l 638 0 l 510 0 l 460 250 l 235 250 l 185 0 l 57 0 m 439 361 l 375 681 q 361 753 368 717 q 347 826 354 789 q 333 753 340 789 q 319 681 326 717 l 256 361 l 439 361 m 364 1103 l 181 1290 l 271 1363 l 438 1161 l 364 1103 z "},"":{"ha":694,"x_min":57,"x_max":638,"o":"m 57 0 l 275 1021 l 419 1021 l 638 0 l 510 0 l 460 250 l 235 250 l 185 0 l 57 0 m 439 361 l 375 681 q 361 753 368 717 q 347 826 354 789 q 333 753 340 789 q 319 681 326 717 l 256 361 l 439 361 m 331 1103 l 257 1161 l 424 1363 l 514 1290 l 331 1103 z "},"":{"ha":694,"x_min":57,"x_max":638,"o":"m 57 0 l 275 1021 l 419 1021 l 638 0 l 510 0 l 460 250 l 235 250 l 185 0 l 57 0 m 439 361 l 375 681 q 361 753 368 717 q 347 826 354 789 q 333 753 340 789 q 319 681 326 717 l 256 361 l 439 361 m 217 1117 l 146 1167 l 276 1357 l 418 1357 l 549 1167 l 478 1117 l 347 1272 l 217 1117 z "},"":{"ha":694,"x_min":57,"x_max":638,"o":"m 57 0 l 275 1021 l 419 1021 l 638 0 l 510 0 l 460 250 l 235 250 l 185 0 l 57 0 m 439 361 l 375 681 q 361 753 368 717 q 347 826 354 789 q 333 753 340 789 q 319 681 326 717 l 256 361 l 439 361 m 428 1128 q 414 1129 421 1128 q 401 1132 407 1131 q 388 1135 394 1133 q 376 1141 382 1138 q 364 1148 369 1144 q 353 1156 358 1151 q 343 1165 349 1160 q 333 1175 338 1169 q 324 1185 329 1181 q 316 1195 319 1190 q 308 1205 313 1200 q 299 1216 304 1210 q 290 1228 294 1222 q 281 1239 285 1235 q 272 1247 278 1243 q 265 1256 265 1250 l 269 1256 q 265 1251 269 1254 q 258 1244 261 1249 q 251 1237 254 1240 q 247 1231 249 1233 q 242 1226 244 1229 q 238 1221 240 1224 q 234 1215 236 1218 q 230 1208 232 1211 q 225 1201 228 1204 q 220 1193 222 1197 q 215 1185 218 1189 q 210 1176 213 1181 q 204 1166 207 1171 q 199 1156 201 1161 q 193 1144 196 1150 q 188 1132 190 1139 l 90 1175 q 114 1221 103 1200 q 137 1259 125 1242 q 160 1291 149 1276 q 188 1320 171 1306 q 224 1343 204 1335 q 267 1351 244 1351 q 281 1351 274 1351 q 294 1349 288 1350 q 306 1344 300 1347 q 319 1339 313 1342 q 331 1332 325 1336 q 341 1324 336 1328 q 351 1315 346 1321 q 361 1305 357 1310 q 370 1295 365 1300 q 378 1285 375 1290 q 386 1276 382 1281 q 395 1264 390 1271 q 405 1251 400 1257 q 413 1241 410 1246 q 423 1233 417 1236 q 429 1225 429 1231 l 425 1225 q 429 1229 425 1226 q 437 1235 433 1232 q 443 1242 440 1239 q 448 1249 446 1246 q 452 1254 450 1251 q 456 1260 454 1257 q 460 1265 458 1263 q 465 1272 463 1268 q 469 1279 467 1275 q 474 1288 472 1283 q 479 1296 476 1292 q 485 1305 482 1300 q 490 1315 488 1310 q 496 1325 493 1319 q 501 1336 499 1331 q 507 1347 504 1342 l 604 1306 q 581 1259 592 1281 q 558 1221 569 1238 q 535 1189 546 1204 q 507 1160 524 1174 q 470 1137 490 1146 q 428 1128 450 1128 z "},"":{"ha":694,"x_min":57,"x_max":638,"o":"m 57 0 l 275 1021 l 419 1021 l 638 0 l 510 0 l 460 250 l 235 250 l 185 0 l 57 0 m 439 361 l 375 681 q 361 753 368 717 q 347 826 354 789 q 333 753 340 789 q 319 681 326 717 l 256 361 l 439 361 m 486 1136 q 449 1142 468 1136 q 417 1160 431 1147 q 399 1192 404 1174 q 393 1229 393 1211 q 399 1266 393 1247 q 417 1298 404 1285 q 449 1317 431 1311 q 486 1322 468 1322 q 523 1317 504 1322 q 555 1298 542 1311 q 574 1266 568 1285 q 579 1229 579 1247 q 574 1192 579 1211 q 555 1160 568 1174 q 523 1142 542 1147 q 486 1136 504 1136 m 208 1136 q 172 1142 190 1136 q 140 1160 153 1147 q 121 1192 126 1174 q 115 1229 115 1211 q 121 1266 115 1247 q 140 1298 126 1285 q 172 1317 153 1311 q 208 1322 190 1322 q 245 1317 226 1322 q 277 1298 264 1311 q 296 1266 290 1285 q 301 1229 301 1247 q 296 1192 301 1211 q 277 1160 290 1174 q 245 1142 264 1147 q 208 1136 226 1136 z "},"":{"ha":694,"x_min":57,"x_max":638,"o":"m 57 0 l 275 1021 l 419 1021 l 638 0 l 510 0 l 460 250 l 235 250 l 185 0 l 57 0 m 439 361 l 375 681 q 361 753 368 717 q 347 826 354 789 q 333 753 340 789 q 319 681 326 717 l 256 361 l 439 361 m 347 1097 q 294 1105 321 1097 q 249 1131 268 1113 q 223 1176 231 1150 q 215 1229 215 1203 q 223 1282 215 1256 q 249 1327 231 1308 q 294 1353 268 1346 q 347 1361 321 1361 q 400 1353 374 1361 q 445 1327 426 1346 q 472 1282 464 1308 q 479 1229 479 1256 q 472 1176 479 1203 q 445 1131 464 1150 q 400 1105 426 1113 q 347 1097 374 1097 m 347 1176 q 369 1179 358 1176 q 387 1190 379 1182 q 397 1208 394 1197 q 400 1229 400 1218 q 397 1251 400 1240 q 387 1269 394 1261 q 369 1279 379 1276 q 347 1282 358 1282 q 326 1279 336 1282 q 308 1269 315 1276 q 297 1251 300 1261 q 294 1229 294 1240 q 297 1208 294 1218 q 308 1190 300 1197 q 326 1179 315 1182 q 347 1176 336 1176 z "},"":{"ha":694,"x_min":43,"x_max":629,"o":"m 43 0 l 263 1021 l 629 1021 l 629 910 l 432 910 l 432 586 l 604 586 l 604 475 l 432 475 l 432 111 l 629 111 l 629 0 l 319 0 l 319 260 l 210 260 l 158 0 l 43 0 m 319 361 l 319 810 q 306 744 313 776 q 293 681 300 713 l 229 361 l 319 361 z "},"":{"ha":694,"x_min":75,"x_max":611,"o":"m 343 -11 q 269 -4 306 -11 q 200 21 232 3 q 143 67 168 39 q 102 128 118 94 q 81 199 86 163 q 75 272 75 236 l 75 749 q 81 822 75 785 q 102 892 86 858 q 143 954 118 926 q 200 1000 168 982 q 269 1025 232 1018 q 343 1032 306 1032 q 413 1026 378 1032 q 479 1004 447 1019 q 536 965 511 989 q 578 910 561 940 q 603 844 594 879 q 611 775 611 810 l 611 765 l 486 765 l 486 771 q 477 829 486 800 q 449 880 468 858 q 401 911 429 901 q 343 921 372 921 q 281 908 311 921 q 233 869 251 894 q 207 812 214 843 q 200 749 200 781 l 200 272 q 207 209 200 240 q 233 152 214 178 q 281 113 251 126 q 343 100 311 100 q 401 110 372 100 q 449 141 429 119 q 477 192 468 163 q 486 250 486 221 l 486 256 l 611 256 l 611 246 q 603 176 611 211 q 578 111 594 142 q 536 56 561 81 q 479 17 511 32 q 413 -5 447 1 q 343 -11 378 -11 m 208 -306 l 208 -208 l 347 -208 q 367 -206 357 -208 q 385 -199 376 -204 q 398 -185 393 -194 q 403 -165 403 -175 q 399 -146 403 -156 q 386 -131 394 -136 q 367 -122 378 -125 q 347 -119 357 -119 l 293 -119 l 293 100 l 401 100 l 401 -54 q 441 -71 422 -60 q 473 -99 460 -82 q 492 -135 486 -115 q 497 -178 497 -156 q 486 -232 497 -206 q 453 -276 475 -258 q 403 -299 431 -293 q 347 -306 375 -306 l 208 -306 z "},"":{"ha":694,"x_min":97,"x_max":608,"o":"m 97 0 l 97 1021 l 608 1021 l 608 910 l 222 910 l 222 586 l 531 586 l 531 475 l 222 475 l 222 111 l 608 111 l 608 0 l 97 0 m 364 1103 l 181 1290 l 271 1363 l 438 1161 l 364 1103 z "},"":{"ha":694,"x_min":97,"x_max":608,"o":"m 97 0 l 97 1021 l 608 1021 l 608 910 l 222 910 l 222 586 l 531 586 l 531 475 l 222 475 l 222 111 l 608 111 l 608 0 l 97 0 m 331 1103 l 257 1161 l 424 1363 l 514 1290 l 331 1103 z "},"":{"ha":694,"x_min":97,"x_max":608,"o":"m 97 0 l 97 1021 l 608 1021 l 608 910 l 222 910 l 222 586 l 531 586 l 531 475 l 222 475 l 222 111 l 608 111 l 608 0 l 97 0 m 217 1117 l 146 1167 l 276 1357 l 418 1357 l 549 1167 l 478 1117 l 347 1272 l 217 1117 z "},"":{"ha":694,"x_min":97,"x_max":608,"o":"m 97 0 l 97 1021 l 608 1021 l 608 910 l 222 910 l 222 586 l 531 586 l 531 475 l 222 475 l 222 111 l 608 111 l 608 0 l 97 0 m 486 1136 q 449 1142 468 1136 q 417 1160 431 1147 q 399 1192 404 1174 q 393 1229 393 1211 q 399 1266 393 1247 q 417 1298 404 1285 q 449 1317 431 1311 q 486 1322 468 1322 q 523 1317 504 1322 q 555 1298 542 1311 q 574 1266 568 1285 q 579 1229 579 1247 q 574 1192 579 1211 q 555 1160 568 1174 q 523 1142 542 1147 q 486 1136 504 1136 m 208 1136 q 172 1142 190 1136 q 140 1160 153 1147 q 121 1192 126 1174 q 115 1229 115 1211 q 121 1266 115 1247 q 140 1298 126 1285 q 172 1317 153 1311 q 208 1322 190 1322 q 245 1317 226 1322 q 277 1298 264 1311 q 296 1266 290 1285 q 301 1229 301 1247 q 296 1192 301 1211 q 277 1160 290 1174 q 245 1142 264 1147 q 208 1136 226 1136 z "},"":{"ha":694,"x_min":104,"x_max":590,"o":"m 104 0 l 104 111 l 285 111 l 285 910 l 104 910 l 104 1021 l 590 1021 l 590 910 l 410 910 l 410 111 l 590 111 l 590 0 l 104 0 m 364 1103 l 181 1290 l 271 1363 l 438 1161 l 364 1103 z "},"":{"ha":694,"x_min":104,"x_max":590,"o":"m 104 0 l 104 111 l 285 111 l 285 910 l 104 910 l 104 1021 l 590 1021 l 590 910 l 410 910 l 410 111 l 590 111 l 590 0 l 104 0 m 331 1103 l 257 1161 l 424 1363 l 514 1290 l 331 1103 z "},"":{"ha":694,"x_min":104,"x_max":590,"o":"m 104 0 l 104 111 l 285 111 l 285 910 l 104 910 l 104 1021 l 590 1021 l 590 910 l 410 910 l 410 111 l 590 111 l 590 0 l 104 0 m 217 1117 l 146 1167 l 276 1357 l 418 1357 l 549 1167 l 478 1117 l 347 1272 l 217 1117 z "},"":{"ha":694,"x_min":104,"x_max":590,"o":"m 104 0 l 104 111 l 285 111 l 285 910 l 104 910 l 104 1021 l 590 1021 l 590 910 l 410 910 l 410 111 l 590 111 l 590 0 l 104 0 m 486 1136 q 449 1142 468 1136 q 417 1160 431 1147 q 399 1192 404 1174 q 393 1229 393 1211 q 399 1266 393 1247 q 417 1298 404 1285 q 449 1317 431 1311 q 486 1322 468 1322 q 523 1317 504 1322 q 555 1298 542 1311 q 574 1266 568 1285 q 579 1229 579 1247 q 574 1192 579 1211 q 555 1160 568 1174 q 523 1142 542 1147 q 486 1136 504 1136 m 208 1136 q 172 1142 190 1136 q 140 1160 153 1147 q 121 1192 126 1174 q 115 1229 115 1211 q 121 1266 115 1247 q 140 1298 126 1285 q 172 1317 153 1311 q 208 1322 190 1322 q 245 1317 226 1322 q 277 1298 264 1311 q 296 1266 290 1285 q 301 1229 301 1247 q 296 1192 301 1211 q 277 1160 290 1174 q 245 1142 264 1147 q 208 1136 226 1136 z "},"":{"ha":694,"x_min":26,"x_max":619,"o":"m 308 0 l 86 0 l 86 464 l 26 464 l 26 557 l 86 557 l 86 1021 l 308 1021 q 390 1014 349 1021 q 468 990 431 1007 q 535 944 506 972 q 585 879 565 915 q 612 802 604 843 q 619 721 619 761 l 619 300 q 612 219 619 260 q 585 142 604 178 q 535 77 565 106 q 468 31 506 49 q 390 7 431 14 q 308 0 349 0 m 211 111 l 308 111 q 358 115 333 111 q 406 131 383 119 q 446 161 428 143 q 475 202 464 179 q 490 250 486 225 q 494 300 494 275 l 494 721 q 490 771 494 746 q 475 819 486 796 q 446 860 464 842 q 406 890 428 878 q 358 906 383 901 q 308 910 333 910 l 211 910 l 211 557 l 347 557 l 347 464 l 211 464 l 211 111 z "},"":{"ha":694,"x_min":86,"x_max":608,"o":"m 86 0 l 86 1021 l 229 1021 l 501 207 q 490 410 496 308 q 483 613 483 511 l 483 1021 l 608 1021 l 608 0 l 465 0 l 193 814 q 205 611 199 713 q 211 408 211 510 l 211 0 l 86 0 m 428 1128 q 414 1129 421 1128 q 401 1132 407 1131 q 388 1135 394 1133 q 376 1141 382 1138 q 364 1148 369 1144 q 353 1156 358 1151 q 343 1165 349 1160 q 333 1175 338 1169 q 324 1185 329 1181 q 316 1195 319 1190 q 308 1205 313 1200 q 299 1216 304 1210 q 290 1228 294 1222 q 281 1239 285 1235 q 272 1247 278 1243 q 265 1256 265 1250 l 269 1256 q 265 1251 269 1254 q 258 1244 261 1249 q 251 1237 254 1240 q 247 1231 249 1233 q 242 1226 244 1229 q 238 1221 240 1224 q 234 1215 236 1218 q 230 1208 232 1211 q 225 1201 228 1204 q 220 1193 222 1197 q 215 1185 218 1189 q 210 1176 213 1181 q 204 1166 207 1171 q 199 1156 201 1161 q 193 1144 196 1150 q 188 1132 190 1139 l 90 1175 q 114 1221 103 1200 q 137 1259 125 1242 q 160 1291 149 1276 q 188 1320 171 1306 q 224 1343 204 1335 q 267 1351 244 1351 q 281 1351 274 1351 q 294 1349 288 1350 q 306 1344 300 1347 q 319 1339 313 1342 q 331 1332 325 1336 q 341 1324 336 1328 q 351 1315 346 1321 q 361 1305 357 1310 q 370 1295 365 1300 q 378 1285 375 1290 q 386 1276 382 1281 q 395 1264 390 1271 q 405 1251 400 1257 q 413 1241 410 1246 q 423 1233 417 1236 q 429 1225 429 1231 l 425 1225 q 429 1229 425 1226 q 437 1235 433 1232 q 443 1242 440 1239 q 448 1249 446 1246 q 452 1254 450 1251 q 456 1260 454 1257 q 460 1265 458 1263 q 465 1272 463 1268 q 469 1279 467 1275 q 474 1288 472 1283 q 479 1296 476 1292 q 485 1305 482 1300 q 490 1315 488 1310 q 496 1325 493 1319 q 501 1336 499 1331 q 507 1347 504 1342 l 604 1306 q 581 1259 592 1281 q 558 1221 569 1238 q 535 1189 546 1204 q 507 1160 524 1174 q 470 1137 490 1146 q 428 1128 450 1128 z "},"":{"ha":694,"x_min":75,"x_max":619,"o":"m 347 -11 q 273 -4 310 -11 q 203 21 236 3 q 144 67 171 39 q 103 128 118 94 q 81 199 88 161 q 75 272 75 236 l 75 749 q 81 822 75 785 q 103 893 88 860 q 144 954 118 926 q 203 1000 171 982 q 273 1025 236 1018 q 347 1032 310 1032 q 422 1025 385 1032 q 491 1000 458 1018 q 550 954 524 982 q 592 893 576 926 q 613 822 607 860 q 619 749 619 785 l 619 272 q 613 199 619 236 q 592 128 607 161 q 550 67 576 94 q 491 21 524 39 q 422 -4 458 3 q 347 -11 385 -11 m 347 100 q 410 113 379 100 q 460 151 440 125 q 488 208 481 176 q 494 272 494 240 l 494 749 q 488 813 494 781 q 460 870 481 844 q 410 908 440 896 q 347 921 379 921 q 285 908 315 921 q 234 870 254 896 q 207 813 214 844 q 200 749 200 781 l 200 272 q 207 208 200 240 q 234 151 214 176 q 285 113 254 125 q 347 100 315 100 m 364 1103 l 181 1290 l 271 1363 l 438 1161 l 364 1103 z "},"":{"ha":694,"x_min":75,"x_max":619,"o":"m 347 -11 q 273 -4 310 -11 q 203 21 236 3 q 144 67 171 39 q 103 128 118 94 q 81 199 88 161 q 75 272 75 236 l 75 749 q 81 822 75 785 q 103 893 88 860 q 144 954 118 926 q 203 1000 171 982 q 273 1025 236 1018 q 347 1032 310 1032 q 422 1025 385 1032 q 491 1000 458 1018 q 550 954 524 982 q 592 893 576 926 q 613 822 607 860 q 619 749 619 785 l 619 272 q 613 199 619 236 q 592 128 607 161 q 550 67 576 94 q 491 21 524 39 q 422 -4 458 3 q 347 -11 385 -11 m 347 100 q 410 113 379 100 q 460 151 440 125 q 488 208 481 176 q 494 272 494 240 l 494 749 q 488 813 494 781 q 460 870 481 844 q 410 908 440 896 q 347 921 379 921 q 285 908 315 921 q 234 870 254 896 q 207 813 214 844 q 200 749 200 781 l 200 272 q 207 208 200 240 q 234 151 214 176 q 285 113 254 125 q 347 100 315 100 m 331 1103 l 257 1161 l 424 1363 l 514 1290 l 331 1103 z "},"":{"ha":694,"x_min":75,"x_max":619,"o":"m 347 -11 q 273 -4 310 -11 q 203 21 236 3 q 144 67 171 39 q 103 128 118 94 q 81 199 88 161 q 75 272 75 236 l 75 749 q 81 822 75 785 q 103 893 88 860 q 144 954 118 926 q 203 1000 171 982 q 273 1025 236 1018 q 347 1032 310 1032 q 422 1025 385 1032 q 491 1000 458 1018 q 550 954 524 982 q 592 893 576 926 q 613 822 607 860 q 619 749 619 785 l 619 272 q 613 199 619 236 q 592 128 607 161 q 550 67 576 94 q 491 21 524 39 q 422 -4 458 3 q 347 -11 385 -11 m 347 100 q 410 113 379 100 q 460 151 440 125 q 488 208 481 176 q 494 272 494 240 l 494 749 q 488 813 494 781 q 460 870 481 844 q 410 908 440 896 q 347 921 379 921 q 285 908 315 921 q 234 870 254 896 q 207 813 214 844 q 200 749 200 781 l 200 272 q 207 208 200 240 q 234 151 214 176 q 285 113 254 125 q 347 100 315 100 m 217 1117 l 146 1167 l 276 1357 l 418 1357 l 549 1167 l 478 1117 l 347 1272 l 217 1117 z "},"":{"ha":694,"x_min":75,"x_max":619,"o":"m 347 -11 q 273 -4 310 -11 q 203 21 236 3 q 144 67 171 39 q 103 128 118 94 q 81 199 88 161 q 75 272 75 236 l 75 749 q 81 822 75 785 q 103 893 88 860 q 144 954 118 926 q 203 1000 171 982 q 273 1025 236 1018 q 347 1032 310 1032 q 422 1025 385 1032 q 491 1000 458 1018 q 550 954 524 982 q 592 893 576 926 q 613 822 607 860 q 619 749 619 785 l 619 272 q 613 199 619 236 q 592 128 607 161 q 550 67 576 94 q 491 21 524 39 q 422 -4 458 3 q 347 -11 385 -11 m 347 100 q 410 113 379 100 q 460 151 440 125 q 488 208 481 176 q 494 272 494 240 l 494 749 q 488 813 494 781 q 460 870 481 844 q 410 908 440 896 q 347 921 379 921 q 285 908 315 921 q 234 870 254 896 q 207 813 214 844 q 200 749 200 781 l 200 272 q 207 208 200 240 q 234 151 214 176 q 285 113 254 125 q 347 100 315 100 m 428 1128 q 414 1129 421 1128 q 401 1132 407 1131 q 388 1135 394 1133 q 376 1141 382 1138 q 364 1148 369 1144 q 353 1156 358 1151 q 343 1165 349 1160 q 333 1175 338 1169 q 324 1185 329 1181 q 316 1195 319 1190 q 308 1205 313 1200 q 299 1216 304 1210 q 290 1228 294 1222 q 281 1239 285 1235 q 272 1247 278 1243 q 265 1256 265 1250 l 269 1256 q 265 1251 269 1254 q 258 1244 261 1249 q 251 1237 254 1240 q 247 1231 249 1233 q 242 1226 244 1229 q 238 1221 240 1224 q 234 1215 236 1218 q 230 1208 232 1211 q 225 1201 228 1204 q 220 1193 222 1197 q 215 1185 218 1189 q 210 1176 213 1181 q 204 1166 207 1171 q 199 1156 201 1161 q 193 1144 196 1150 q 188 1132 190 1139 l 90 1175 q 114 1221 103 1200 q 137 1259 125 1242 q 160 1291 149 1276 q 188 1320 171 1306 q 224 1343 204 1335 q 267 1351 244 1351 q 281 1351 274 1351 q 294 1349 288 1350 q 306 1344 300 1347 q 319 1339 313 1342 q 331 1332 325 1336 q 341 1324 336 1328 q 351 1315 346 1321 q 361 1305 357 1310 q 370 1295 365 1300 q 378 1285 375 1290 q 386 1276 382 1281 q 395 1264 390 1271 q 405 1251 400 1257 q 413 1241 410 1246 q 423 1233 417 1236 q 429 1225 429 1231 l 425 1225 q 429 1229 425 1226 q 437 1235 433 1232 q 443 1242 440 1239 q 448 1249 446 1246 q 452 1254 450 1251 q 456 1260 454 1257 q 460 1265 458 1263 q 465 1272 463 1268 q 469 1279 467 1275 q 474 1288 472 1283 q 479 1296 476 1292 q 485 1305 482 1300 q 490 1315 488 1310 q 496 1325 493 1319 q 501 1336 499 1331 q 507 1347 504 1342 l 604 1306 q 581 1259 592 1281 q 558 1221 569 1238 q 535 1189 546 1204 q 507 1160 524 1174 q 470 1137 490 1146 q 428 1128 450 1128 z "},"":{"ha":694,"x_min":75,"x_max":619,"o":"m 347 -11 q 273 -4 310 -11 q 203 21 236 3 q 144 67 171 39 q 103 128 118 94 q 81 199 88 161 q 75 272 75 236 l 75 749 q 81 822 75 785 q 103 893 88 860 q 144 954 118 926 q 203 1000 171 982 q 273 1025 236 1018 q 347 1032 310 1032 q 422 1025 385 1032 q 491 1000 458 1018 q 550 954 524 982 q 592 893 576 926 q 613 822 607 860 q 619 749 619 785 l 619 272 q 613 199 619 236 q 592 128 607 161 q 550 67 576 94 q 491 21 524 39 q 422 -4 458 3 q 347 -11 385 -11 m 347 100 q 410 113 379 100 q 460 151 440 125 q 488 208 481 176 q 494 272 494 240 l 494 749 q 488 813 494 781 q 460 870 481 844 q 410 908 440 896 q 347 921 379 921 q 285 908 315 921 q 234 870 254 896 q 207 813 214 844 q 200 749 200 781 l 200 272 q 207 208 200 240 q 234 151 214 176 q 285 113 254 125 q 347 100 315 100 m 486 1136 q 449 1142 468 1136 q 417 1160 431 1147 q 399 1192 404 1174 q 393 1229 393 1211 q 399 1266 393 1247 q 417 1298 404 1285 q 449 1317 431 1311 q 486 1322 468 1322 q 523 1317 504 1322 q 555 1298 542 1311 q 574 1266 568 1285 q 579 1229 579 1247 q 574 1192 579 1211 q 555 1160 568 1174 q 523 1142 542 1147 q 486 1136 504 1136 m 208 1136 q 172 1142 190 1136 q 140 1160 153 1147 q 121 1192 126 1174 q 115 1229 115 1211 q 121 1266 115 1247 q 140 1298 126 1285 q 172 1317 153 1311 q 208 1322 190 1322 q 245 1317 226 1322 q 277 1298 264 1311 q 296 1266 290 1285 q 301 1229 301 1247 q 296 1192 301 1211 q 277 1160 290 1174 q 245 1142 264 1147 q 208 1136 226 1136 z "},"":{"ha":694,"x_min":24,"x_max":671,"o":"m 106 153 l 24 226 l 269 472 l 24 718 l 106 792 l 347 550 l 589 792 l 671 718 l 425 472 l 671 226 l 589 153 l 347 394 l 106 153 z "},"":{"ha":694,"x_min":74,"x_max":621,"o":"m 169 -68 l 74 -33 l 124 92 q 100 133 110 111 q 85 178 90 156 q 77 225 79 201 q 75 272 75 249 l 75 749 q 81 822 75 785 q 103 893 88 860 q 144 954 118 926 q 203 1000 171 982 q 273 1025 236 1018 q 347 1032 310 1032 q 420 1025 383 1032 q 489 1001 457 1018 l 525 1089 l 621 1054 l 571 929 q 594 888 585 910 q 610 842 604 865 q 617 796 615 819 q 619 749 619 772 l 619 272 q 613 199 619 236 q 592 128 607 161 q 550 67 576 94 q 491 21 524 39 q 422 -4 458 3 q 347 -11 385 -11 q 274 -4 311 -11 q 206 19 238 3 l 169 -68 m 200 282 l 443 888 q 399 913 424 906 q 347 921 374 921 q 285 908 315 921 q 234 870 254 896 q 207 813 214 844 q 200 749 200 781 l 200 282 m 347 100 q 410 113 379 100 q 460 151 440 125 q 488 208 481 176 q 494 272 494 240 l 494 739 l 251 133 q 296 108 271 115 q 347 100 321 100 z "},"":{"ha":694,"x_min":86,"x_max":608,"o":"m 347 -11 q 274 -3 311 -11 q 206 22 238 4 q 151 69 175 40 q 112 131 126 97 q 92 200 97 164 q 86 272 86 236 l 86 1021 l 211 1021 l 211 272 q 213 231 211 251 q 222 191 215 211 q 241 153 229 171 q 269 124 253 136 q 306 106 286 111 q 347 100 326 100 q 388 106 368 100 q 425 124 408 111 q 453 153 442 136 q 472 191 465 171 q 481 231 479 211 q 483 272 483 251 l 483 1021 l 608 1021 l 608 272 q 603 200 608 236 q 583 131 597 164 q 544 69 568 97 q 488 22 519 40 q 420 -3 457 4 q 347 -11 383 -11 m 364 1103 l 181 1290 l 271 1363 l 438 1161 l 364 1103 z "},"":{"ha":694,"x_min":86,"x_max":608,"o":"m 347 -11 q 274 -3 311 -11 q 206 22 238 4 q 151 69 175 40 q 112 131 126 97 q 92 200 97 164 q 86 272 86 236 l 86 1021 l 211 1021 l 211 272 q 213 231 211 251 q 222 191 215 211 q 241 153 229 171 q 269 124 253 136 q 306 106 286 111 q 347 100 326 100 q 388 106 368 100 q 425 124 408 111 q 453 153 442 136 q 472 191 465 171 q 481 231 479 211 q 483 272 483 251 l 483 1021 l 608 1021 l 608 272 q 603 200 608 236 q 583 131 597 164 q 544 69 568 97 q 488 22 519 40 q 420 -3 457 4 q 347 -11 383 -11 m 331 1103 l 257 1161 l 424 1363 l 514 1290 l 331 1103 z "},"":{"ha":694,"x_min":86,"x_max":608,"o":"m 347 -11 q 274 -3 311 -11 q 206 22 238 4 q 151 69 175 40 q 112 131 126 97 q 92 200 97 164 q 86 272 86 236 l 86 1021 l 211 1021 l 211 272 q 213 231 211 251 q 222 191 215 211 q 241 153 229 171 q 269 124 253 136 q 306 106 286 111 q 347 100 326 100 q 388 106 368 100 q 425 124 408 111 q 453 153 442 136 q 472 191 465 171 q 481 231 479 211 q 483 272 483 251 l 483 1021 l 608 1021 l 608 272 q 603 200 608 236 q 583 131 597 164 q 544 69 568 97 q 488 22 519 40 q 420 -3 457 4 q 347 -11 383 -11 m 217 1117 l 146 1167 l 276 1357 l 418 1357 l 549 1167 l 478 1117 l 347 1272 l 217 1117 z "},"":{"ha":694,"x_min":86,"x_max":608,"o":"m 347 -11 q 274 -3 311 -11 q 206 22 238 4 q 151 69 175 40 q 112 131 126 97 q 92 200 97 164 q 86 272 86 236 l 86 1021 l 211 1021 l 211 272 q 213 231 211 251 q 222 191 215 211 q 241 153 229 171 q 269 124 253 136 q 306 106 286 111 q 347 100 326 100 q 388 106 368 100 q 425 124 408 111 q 453 153 442 136 q 472 191 465 171 q 481 231 479 211 q 483 272 483 251 l 483 1021 l 608 1021 l 608 272 q 603 200 608 236 q 583 131 597 164 q 544 69 568 97 q 488 22 519 40 q 420 -3 457 4 q 347 -11 383 -11 m 486 1136 q 449 1142 468 1136 q 417 1160 431 1147 q 399 1192 404 1174 q 393 1229 393 1211 q 399 1266 393 1247 q 417 1298 404 1285 q 449 1317 431 1311 q 486 1322 468 1322 q 523 1317 504 1322 q 555 1298 542 1311 q 574 1266 568 1285 q 579 1229 579 1247 q 574 1192 579 1211 q 555 1160 568 1174 q 523 1142 542 1147 q 486 1136 504 1136 m 208 1136 q 172 1142 190 1136 q 140 1160 153 1147 q 121 1192 126 1174 q 115 1229 115 1211 q 121 1266 115 1247 q 140 1298 126 1285 q 172 1317 153 1311 q 208 1322 190 1322 q 245 1317 226 1322 q 277 1298 264 1311 q 296 1266 290 1285 q 301 1229 301 1247 q 296 1192 301 1211 q 277 1160 290 1174 q 245 1142 264 1147 q 208 1136 226 1136 z "},"":{"ha":694,"x_min":57,"x_max":638,"o":"m 285 0 l 285 415 l 57 1021 l 190 1021 l 347 576 l 504 1021 l 638 1021 l 410 415 l 410 0 l 285 0 m 331 1103 l 257 1161 l 424 1363 l 514 1290 l 331 1103 z "},"":{"ha":694,"x_min":108,"x_max":619,"o":"m 108 0 l 108 1021 l 232 1021 l 232 826 l 292 826 q 378 819 335 826 q 460 794 421 813 q 531 746 499 776 q 583 677 563 715 q 612 597 604 639 q 619 511 619 554 q 612 424 619 467 q 583 344 604 382 q 531 275 563 306 q 460 226 499 244 q 378 201 421 208 q 292 194 335 194 l 232 194 l 232 0 l 108 0 m 232 306 l 292 306 q 347 310 319 306 q 398 328 374 315 q 442 360 422 340 q 473 404 461 379 q 490 456 485 429 q 494 511 494 483 q 490 565 494 538 q 473 617 485 592 q 442 661 461 642 q 398 693 422 681 q 347 710 374 706 q 292 715 319 715 l 232 715 l 232 306 z "},"":{"ha":694,"x_min":86,"x_max":619,"o":"m 86 0 l 86 722 q 91 797 86 760 q 108 870 96 835 q 142 938 121 906 q 194 991 164 969 q 262 1022 225 1013 q 336 1032 299 1032 q 406 1024 371 1032 q 470 998 440 1017 q 522 952 500 979 q 558 893 544 925 q 579 826 572 861 q 586 757 586 792 q 580 692 586 724 q 560 630 574 660 q 528 574 547 600 q 485 526 510 547 q 544 483 517 508 q 588 425 571 457 q 613 356 606 393 q 619 283 619 319 q 610 203 619 243 q 580 128 601 163 q 526 67 558 93 q 457 26 494 42 q 379 6 419 11 q 297 0 339 0 l 250 0 l 250 111 l 297 111 q 347 115 322 111 q 395 127 372 118 q 438 151 418 136 q 470 188 457 167 q 489 234 483 210 q 494 283 494 258 q 481 356 494 319 q 438 415 467 392 q 372 447 408 438 q 297 456 335 456 l 297 565 q 365 582 332 565 q 419 626 397 599 q 451 687 440 653 q 461 756 461 721 q 458 794 461 775 q 449 832 456 814 q 433 867 443 850 q 408 897 424 885 q 374 915 393 910 q 336 921 356 921 q 293 913 314 921 q 258 888 272 904 q 234 851 243 871 q 219 809 225 831 q 213 766 214 788 q 211 722 211 744 l 211 0 l 86 0 z "},"":{"ha":694,"x_min":75,"x_max":608,"o":"m 289 -11 q 206 1 247 -11 q 133 44 164 14 q 89 115 103 74 q 75 199 75 157 q 84 270 75 235 q 115 333 93 306 q 168 381 138 361 q 233 411 199 400 q 302 426 267 422 q 374 431 338 431 l 483 431 l 483 493 q 474 547 483 521 q 445 590 465 572 q 399 615 425 608 q 346 622 372 622 q 297 617 321 622 q 253 599 274 613 q 221 565 233 586 q 208 519 208 543 l 208 515 l 83 515 l 83 522 q 93 585 83 554 q 121 641 103 615 q 165 685 139 667 q 222 714 192 703 q 283 729 251 725 q 346 733 314 733 q 413 728 379 733 q 478 710 447 724 q 535 675 508 697 q 578 624 561 653 q 601 561 594 594 q 608 493 608 528 l 608 0 l 483 0 l 483 117 q 453 63 472 89 q 408 20 433 38 q 351 -4 382 3 q 289 -11 321 -11 m 342 100 q 399 110 371 100 q 448 141 428 119 q 476 192 468 163 q 483 250 483 221 l 483 319 l 374 319 q 335 318 354 319 q 297 312 315 317 q 261 299 279 307 q 228 279 243 292 q 207 249 214 267 q 200 211 200 231 q 212 163 200 186 q 244 124 224 139 q 290 105 265 110 q 342 100 315 100 m 364 804 l 181 992 l 271 1064 l 438 863 l 364 804 z "},"":{"ha":694,"x_min":75,"x_max":608,"o":"m 289 -11 q 206 1 247 -11 q 133 44 164 14 q 89 115 103 74 q 75 199 75 157 q 84 270 75 235 q 115 333 93 306 q 168 381 138 361 q 233 411 199 400 q 302 426 267 422 q 374 431 338 431 l 483 431 l 483 493 q 474 547 483 521 q 445 590 465 572 q 399 615 425 608 q 346 622 372 622 q 297 617 321 622 q 253 599 274 613 q 221 565 233 586 q 208 519 208 543 l 208 515 l 83 515 l 83 522 q 93 585 83 554 q 121 641 103 615 q 165 685 139 667 q 222 714 192 703 q 283 729 251 725 q 346 733 314 733 q 413 728 379 733 q 478 710 447 724 q 535 675 508 697 q 578 624 561 653 q 601 561 594 594 q 608 493 608 528 l 608 0 l 483 0 l 483 117 q 453 63 472 89 q 408 20 433 38 q 351 -4 382 3 q 289 -11 321 -11 m 342 100 q 399 110 371 100 q 448 141 428 119 q 476 192 468 163 q 483 250 483 221 l 483 319 l 374 319 q 335 318 354 319 q 297 312 315 317 q 261 299 279 307 q 228 279 243 292 q 207 249 214 267 q 200 211 200 231 q 212 163 200 186 q 244 124 224 139 q 290 105 265 110 q 342 100 315 100 m 331 804 l 257 863 l 424 1064 l 514 992 l 331 804 z "},"":{"ha":694,"x_min":75,"x_max":608,"o":"m 289 -11 q 206 1 247 -11 q 133 44 164 14 q 89 115 103 74 q 75 199 75 157 q 84 270 75 235 q 115 333 93 306 q 168 381 138 361 q 233 411 199 400 q 302 426 267 422 q 374 431 338 431 l 483 431 l 483 493 q 474 547 483 521 q 445 590 465 572 q 399 615 425 608 q 346 622 372 622 q 297 617 321 622 q 253 599 274 613 q 221 565 233 586 q 208 519 208 543 l 208 515 l 83 515 l 83 522 q 93 585 83 554 q 121 641 103 615 q 165 685 139 667 q 222 714 192 703 q 283 729 251 725 q 346 733 314 733 q 413 728 379 733 q 478 710 447 724 q 535 675 508 697 q 578 624 561 653 q 601 561 594 594 q 608 493 608 528 l 608 0 l 483 0 l 483 117 q 453 63 472 89 q 408 20 433 38 q 351 -4 382 3 q 289 -11 321 -11 m 342 100 q 399 110 371 100 q 448 141 428 119 q 476 192 468 163 q 483 250 483 221 l 483 319 l 374 319 q 335 318 354 319 q 297 312 315 317 q 261 299 279 307 q 228 279 243 292 q 207 249 214 267 q 200 211 200 231 q 212 163 200 186 q 244 124 224 139 q 290 105 265 110 q 342 100 315 100 m 217 818 l 146 868 l 276 1058 l 418 1058 l 549 868 l 478 818 l 347 974 l 217 818 z "},"":{"ha":694,"x_min":75,"x_max":608,"o":"m 289 -11 q 206 1 247 -11 q 133 44 164 14 q 89 115 103 74 q 75 199 75 157 q 84 270 75 235 q 115 333 93 306 q 168 381 138 361 q 233 411 199 400 q 302 426 267 422 q 374 431 338 431 l 483 431 l 483 493 q 474 547 483 521 q 445 590 465 572 q 399 615 425 608 q 346 622 372 622 q 297 617 321 622 q 253 599 274 613 q 221 565 233 586 q 208 519 208 543 l 208 515 l 83 515 l 83 522 q 93 585 83 554 q 121 641 103 615 q 165 685 139 667 q 222 714 192 703 q 283 729 251 725 q 346 733 314 733 q 413 728 379 733 q 478 710 447 724 q 535 675 508 697 q 578 624 561 653 q 601 561 594 594 q 608 493 608 528 l 608 0 l 483 0 l 483 117 q 453 63 472 89 q 408 20 433 38 q 351 -4 382 3 q 289 -11 321 -11 m 342 100 q 399 110 371 100 q 448 141 428 119 q 476 192 468 163 q 483 250 483 221 l 483 319 l 374 319 q 335 318 354 319 q 297 312 315 317 q 261 299 279 307 q 228 279 243 292 q 207 249 214 267 q 200 211 200 231 q 212 163 200 186 q 244 124 224 139 q 290 105 265 110 q 342 100 315 100 m 428 829 q 414 831 421 829 q 401 833 407 832 q 388 837 394 835 q 376 842 382 839 q 364 849 369 846 q 353 857 358 853 q 343 866 349 861 q 333 876 338 871 q 324 887 329 882 q 316 897 319 892 q 308 906 313 901 q 299 917 304 911 q 290 930 294 924 q 281 940 285 936 q 272 948 278 944 q 265 957 265 951 l 269 957 q 265 953 269 956 q 258 946 261 950 q 251 938 254 942 q 247 933 249 935 q 242 928 244 931 q 238 922 240 925 q 234 916 236 919 q 230 909 232 913 q 225 902 228 906 q 220 894 222 899 q 215 886 218 890 q 210 877 213 882 q 204 867 207 872 q 199 857 201 863 q 193 846 196 851 q 188 833 190 840 l 90 876 q 114 922 103 901 q 137 960 125 943 q 160 992 149 978 q 188 1022 171 1007 q 224 1044 204 1036 q 267 1053 244 1053 q 281 1052 274 1053 q 294 1050 288 1051 q 306 1046 300 1049 q 319 1040 313 1043 q 331 1033 325 1038 q 341 1026 336 1029 q 351 1017 346 1022 q 361 1006 357 1011 q 370 997 365 1001 q 378 987 375 992 q 386 977 382 982 q 395 965 390 972 q 405 953 400 958 q 413 942 410 947 q 423 935 417 938 q 429 926 429 932 l 425 926 q 429 931 425 928 q 437 937 433 933 q 443 944 440 940 q 448 950 446 947 q 452 956 450 953 q 456 961 454 958 q 460 967 458 964 q 465 973 463 969 q 469 981 467 976 q 474 989 472 985 q 479 997 476 993 q 485 1006 482 1001 q 490 1016 488 1011 q 496 1026 493 1021 q 501 1038 499 1032 q 507 1049 504 1043 l 604 1007 q 581 960 592 982 q 558 922 569 939 q 535 890 546 906 q 507 861 524 875 q 470 838 490 847 q 428 829 450 829 z "},"":{"ha":694,"x_min":75,"x_max":608,"o":"m 289 -11 q 206 1 247 -11 q 133 44 164 14 q 89 115 103 74 q 75 199 75 157 q 84 270 75 235 q 115 333 93 306 q 168 381 138 361 q 233 411 199 400 q 302 426 267 422 q 374 431 338 431 l 483 431 l 483 493 q 474 547 483 521 q 445 590 465 572 q 399 615 425 608 q 346 622 372 622 q 297 617 321 622 q 253 599 274 613 q 221 565 233 586 q 208 519 208 543 l 208 515 l 83 515 l 83 522 q 93 585 83 554 q 121 641 103 615 q 165 685 139 667 q 222 714 192 703 q 283 729 251 725 q 346 733 314 733 q 413 728 379 733 q 478 710 447 724 q 535 675 508 697 q 578 624 561 653 q 601 561 594 594 q 608 493 608 528 l 608 0 l 483 0 l 483 117 q 453 63 472 89 q 408 20 433 38 q 351 -4 382 3 q 289 -11 321 -11 m 342 100 q 399 110 371 100 q 448 141 428 119 q 476 192 468 163 q 483 250 483 221 l 483 319 l 374 319 q 335 318 354 319 q 297 312 315 317 q 261 299 279 307 q 228 279 243 292 q 207 249 214 267 q 200 211 200 231 q 212 163 200 186 q 244 124 224 139 q 290 105 265 110 q 342 100 315 100 m 486 838 q 449 843 468 838 q 417 862 431 849 q 399 894 404 875 q 393 931 393 913 q 399 967 393 949 q 417 999 404 986 q 449 1018 431 1013 q 486 1024 468 1024 q 523 1018 504 1024 q 555 999 542 1013 q 574 967 568 986 q 579 931 579 949 q 574 894 579 913 q 555 862 568 875 q 523 843 542 849 q 486 838 504 838 m 208 838 q 172 843 190 838 q 140 862 153 849 q 121 894 126 875 q 115 931 115 913 q 121 967 115 949 q 140 999 126 986 q 172 1018 153 1013 q 208 1024 190 1024 q 245 1018 226 1024 q 277 999 264 1013 q 296 967 290 986 q 301 931 301 949 q 296 894 301 913 q 277 862 290 875 q 245 843 264 849 q 208 838 226 838 z "},"":{"ha":694,"x_min":75,"x_max":608,"o":"m 289 -11 q 206 1 247 -11 q 133 44 164 14 q 89 115 103 74 q 75 199 75 157 q 84 270 75 235 q 115 333 93 306 q 168 381 138 361 q 233 411 199 400 q 302 426 267 422 q 374 431 338 431 l 483 431 l 483 493 q 474 547 483 521 q 445 590 465 572 q 399 615 425 608 q 346 622 372 622 q 297 617 321 622 q 253 599 274 613 q 221 565 233 586 q 208 519 208 543 l 208 515 l 83 515 l 83 522 q 93 585 83 554 q 121 641 103 615 q 165 685 139 667 q 222 714 192 703 q 283 729 251 725 q 346 733 314 733 q 413 728 379 733 q 478 710 447 724 q 535 675 508 697 q 578 624 561 653 q 601 561 594 594 q 608 493 608 528 l 608 0 l 483 0 l 483 117 q 453 63 472 89 q 408 20 433 38 q 351 -4 382 3 q 289 -11 321 -11 m 342 100 q 399 110 371 100 q 448 141 428 119 q 476 192 468 163 q 483 250 483 221 l 483 319 l 374 319 q 335 318 354 319 q 297 312 315 317 q 261 299 279 307 q 228 279 243 292 q 207 249 214 267 q 200 211 200 231 q 212 163 200 186 q 244 124 224 139 q 290 105 265 110 q 342 100 315 100 m 347 799 q 294 806 321 799 q 249 833 268 814 q 223 878 231 851 q 215 931 215 904 q 223 983 215 957 q 249 1028 231 1010 q 294 1055 268 1047 q 347 1063 321 1063 q 400 1055 374 1063 q 445 1028 426 1047 q 472 983 464 1010 q 479 931 479 957 q 472 878 479 904 q 445 833 464 851 q 400 806 426 814 q 347 799 374 799 m 347 878 q 369 881 358 878 q 387 891 379 883 q 397 909 394 899 q 400 931 400 919 q 397 952 400 942 q 387 970 394 963 q 369 981 379 978 q 347 983 358 983 q 326 981 336 983 q 308 970 315 978 q 297 952 300 963 q 294 931 294 942 q 297 909 294 919 q 308 891 300 899 q 326 881 315 883 q 347 878 336 878 z "},"":{"ha":694,"x_min":54,"x_max":640,"o":"m 229 -11 q 177 -5 203 -11 q 130 17 151 1 q 94 54 108 32 q 70 101 79 76 q 58 151 61 125 q 54 203 54 178 q 58 260 54 232 q 73 314 63 288 q 101 363 83 340 q 144 399 119 385 q 196 420 168 414 q 251 426 224 426 l 290 426 l 290 565 q 288 590 290 578 q 277 613 285 603 q 258 627 269 622 q 233 632 246 632 q 204 619 217 632 q 186 590 192 606 q 178 556 181 574 q 176 522 176 539 l 176 515 l 63 515 l 63 526 q 67 577 63 551 q 80 626 71 603 q 103 671 89 650 q 139 706 118 692 q 184 727 160 721 q 233 733 208 733 q 297 725 265 733 q 351 696 328 717 q 405 725 375 717 q 465 733 435 733 q 515 728 490 733 q 562 709 540 722 q 599 676 583 696 q 624 633 614 656 q 637 585 633 610 q 640 535 640 560 l 640 311 l 404 311 l 404 188 q 406 155 404 171 q 415 124 408 139 q 434 100 421 110 q 464 90 447 90 q 494 103 482 90 q 513 132 507 115 q 522 166 519 149 q 524 200 524 183 l 524 207 l 638 207 l 638 196 q 633 144 638 169 q 620 96 629 119 q 596 51 611 72 q 560 16 581 31 q 514 -5 539 1 q 464 -11 489 -11 q 399 -1 431 -11 q 344 32 368 10 q 292 -1 322 10 q 229 -11 261 -11 m 404 411 l 526 411 l 526 535 q 524 567 526 550 q 515 598 522 583 q 495 622 508 613 q 465 632 482 632 q 435 622 449 632 q 415 598 422 613 q 406 567 408 583 q 404 535 404 551 l 404 411 m 229 90 q 262 105 249 90 q 281 138 275 119 q 288 175 286 156 q 290 213 290 194 l 290 325 l 251 325 q 213 315 231 325 q 184 287 194 304 q 171 249 174 269 q 168 208 168 229 q 170 172 168 190 q 178 135 172 153 q 198 104 185 118 q 229 90 211 90 z "},"":{"ha":694,"x_min":75,"x_max":611,"o":"m 343 -11 q 269 -3 306 -11 q 199 22 232 4 q 142 69 167 40 q 101 132 117 97 q 81 203 86 167 q 75 278 75 240 l 75 444 q 81 519 75 482 q 101 590 86 556 q 142 653 117 625 q 199 700 167 682 q 269 726 232 718 q 343 733 306 733 q 413 727 378 733 q 479 706 447 721 q 537 666 511 690 q 579 610 563 642 q 603 545 596 579 q 611 475 611 511 l 611 467 l 486 467 l 486 472 q 477 530 486 501 q 449 581 468 558 q 401 613 429 603 q 343 622 372 622 q 281 608 311 622 q 231 568 250 594 q 206 509 213 542 q 200 444 200 476 l 200 278 q 206 213 200 246 q 231 154 213 181 q 281 114 250 128 q 343 100 311 100 q 401 110 372 100 q 449 142 429 119 q 477 192 468 164 q 486 250 486 221 l 486 256 l 611 256 l 611 247 q 603 177 611 211 q 579 112 596 143 q 537 56 563 81 q 479 17 511 32 q 413 -5 447 1 q 343 -11 378 -11 m 208 -306 l 208 -208 l 347 -208 q 367 -206 357 -208 q 385 -199 376 -204 q 398 -185 393 -194 q 403 -165 403 -175 q 399 -146 403 -156 q 386 -131 394 -136 q 367 -122 378 -125 q 347 -119 357 -119 l 293 -119 l 293 100 l 401 100 l 401 -54 q 441 -71 422 -60 q 473 -99 460 -82 q 492 -135 486 -115 q 497 -178 497 -156 q 486 -232 497 -206 q 453 -276 475 -258 q 403 -299 431 -293 q 347 -306 375 -306 l 208 -306 z "},"":{"ha":694,"x_min":75,"x_max":619,"o":"m 347 -11 q 272 -4 310 -11 q 202 22 235 3 q 144 69 169 40 q 102 131 118 97 q 81 203 86 165 q 75 278 75 240 l 75 444 q 81 519 75 482 q 103 591 88 557 q 144 653 118 625 q 202 701 169 682 q 272 726 235 719 q 347 733 310 733 q 422 726 385 733 q 492 701 460 719 q 551 653 525 682 q 592 591 576 625 q 613 519 607 557 q 619 444 619 482 l 619 306 l 200 306 l 200 278 q 207 213 200 244 q 233 153 214 181 q 283 113 253 126 q 347 100 314 100 q 397 105 372 100 q 444 123 422 110 q 478 158 465 136 q 492 207 492 181 l 617 207 q 606 142 617 174 q 577 85 596 111 q 532 39 558 58 q 475 8 506 19 q 412 -7 444 -3 q 347 -11 379 -11 m 200 417 l 494 417 l 494 444 q 488 510 494 478 q 461 569 481 543 q 411 609 442 596 q 347 622 381 622 q 283 609 314 622 q 233 569 253 596 q 207 510 214 543 q 200 444 200 478 l 200 417 m 364 804 l 181 992 l 271 1064 l 438 863 l 364 804 z "},"":{"ha":694,"x_min":75,"x_max":619,"o":"m 347 -11 q 272 -4 310 -11 q 202 22 235 3 q 144 69 169 40 q 102 131 118 97 q 81 203 86 165 q 75 278 75 240 l 75 444 q 81 519 75 482 q 103 591 88 557 q 144 653 118 625 q 202 701 169 682 q 272 726 235 719 q 347 733 310 733 q 422 726 385 733 q 492 701 460 719 q 551 653 525 682 q 592 591 576 625 q 613 519 607 557 q 619 444 619 482 l 619 306 l 200 306 l 200 278 q 207 213 200 244 q 233 153 214 181 q 283 113 253 126 q 347 100 314 100 q 397 105 372 100 q 444 123 422 110 q 478 158 465 136 q 492 207 492 181 l 617 207 q 606 142 617 174 q 577 85 596 111 q 532 39 558 58 q 475 8 506 19 q 412 -7 444 -3 q 347 -11 379 -11 m 200 417 l 494 417 l 494 444 q 488 510 494 478 q 461 569 481 543 q 411 609 442 596 q 347 622 381 622 q 283 609 314 622 q 233 569 253 596 q 207 510 214 543 q 200 444 200 478 l 200 417 m 331 804 l 257 863 l 424 1064 l 514 992 l 331 804 z "},"":{"ha":694,"x_min":75,"x_max":619,"o":"m 347 -11 q 272 -4 310 -11 q 202 22 235 3 q 144 69 169 40 q 102 131 118 97 q 81 203 86 165 q 75 278 75 240 l 75 444 q 81 519 75 482 q 103 591 88 557 q 144 653 118 625 q 202 701 169 682 q 272 726 235 719 q 347 733 310 733 q 422 726 385 733 q 492 701 460 719 q 551 653 525 682 q 592 591 576 625 q 613 519 607 557 q 619 444 619 482 l 619 306 l 200 306 l 200 278 q 207 213 200 244 q 233 153 214 181 q 283 113 253 126 q 347 100 314 100 q 397 105 372 100 q 444 123 422 110 q 478 158 465 136 q 492 207 492 181 l 617 207 q 606 142 617 174 q 577 85 596 111 q 532 39 558 58 q 475 8 506 19 q 412 -7 444 -3 q 347 -11 379 -11 m 200 417 l 494 417 l 494 444 q 488 510 494 478 q 461 569 481 543 q 411 609 442 596 q 347 622 381 622 q 283 609 314 622 q 233 569 253 596 q 207 510 214 543 q 200 444 200 478 l 200 417 m 217 818 l 146 868 l 276 1058 l 418 1058 l 549 868 l 478 818 l 347 974 l 217 818 z "},"":{"ha":694,"x_min":75,"x_max":619,"o":"m 347 -11 q 272 -4 310 -11 q 202 22 235 3 q 144 69 169 40 q 102 131 118 97 q 81 203 86 165 q 75 278 75 240 l 75 444 q 81 519 75 482 q 103 591 88 557 q 144 653 118 625 q 202 701 169 682 q 272 726 235 719 q 347 733 310 733 q 422 726 385 733 q 492 701 460 719 q 551 653 525 682 q 592 591 576 625 q 613 519 607 557 q 619 444 619 482 l 619 306 l 200 306 l 200 278 q 207 213 200 244 q 233 153 214 181 q 283 113 253 126 q 347 100 314 100 q 397 105 372 100 q 444 123 422 110 q 478 158 465 136 q 492 207 492 181 l 617 207 q 606 142 617 174 q 577 85 596 111 q 532 39 558 58 q 475 8 506 19 q 412 -7 444 -3 q 347 -11 379 -11 m 200 417 l 494 417 l 494 444 q 488 510 494 478 q 461 569 481 543 q 411 609 442 596 q 347 622 381 622 q 283 609 314 622 q 233 569 253 596 q 207 510 214 543 q 200 444 200 478 l 200 417 m 486 838 q 449 843 468 838 q 417 862 431 849 q 399 894 404 875 q 393 931 393 913 q 399 967 393 949 q 417 999 404 986 q 449 1018 431 1013 q 486 1024 468 1024 q 523 1018 504 1024 q 555 999 542 1013 q 574 967 568 986 q 579 931 579 949 q 574 894 579 913 q 555 862 568 875 q 523 843 542 849 q 486 838 504 838 m 208 838 q 172 843 190 838 q 140 862 153 849 q 121 894 126 875 q 115 931 115 913 q 121 967 115 949 q 140 999 126 986 q 172 1018 153 1013 q 208 1024 190 1024 q 245 1018 226 1024 q 277 999 264 1013 q 296 967 290 986 q 301 931 301 949 q 296 894 301 913 q 277 862 290 875 q 245 843 264 849 q 208 838 226 838 z "},"":{"ha":694,"x_min":104,"x_max":590,"o":"m 104 0 l 104 111 l 294 111 l 294 611 l 124 611 l 124 722 l 419 722 l 419 111 l 590 111 l 590 0 l 104 0 m 371 804 l 188 992 l 278 1064 l 444 863 l 371 804 z "},"":{"ha":694,"x_min":104,"x_max":590,"o":"m 104 0 l 104 111 l 294 111 l 294 611 l 124 611 l 124 722 l 419 722 l 419 111 l 590 111 l 590 0 l 104 0 m 338 804 l 264 863 l 431 1064 l 521 992 l 338 804 z "},"":{"ha":694,"x_min":104,"x_max":590,"o":"m 104 0 l 104 111 l 294 111 l 294 611 l 124 611 l 124 722 l 419 722 l 419 111 l 590 111 l 590 0 l 104 0 m 224 818 l 153 868 l 283 1058 l 425 1058 l 556 868 l 485 818 l 354 974 l 224 818 z "},"":{"ha":694,"x_min":104,"x_max":590,"o":"m 104 0 l 104 111 l 294 111 l 294 611 l 124 611 l 124 722 l 419 722 l 419 111 l 590 111 l 590 0 l 104 0 m 486 838 q 449 843 468 838 q 417 862 431 849 q 399 894 404 875 q 393 931 393 913 q 399 967 393 949 q 417 999 404 986 q 449 1018 431 1013 q 486 1024 468 1024 q 523 1018 504 1024 q 555 999 542 1013 q 574 967 568 986 q 579 931 579 949 q 574 894 579 913 q 555 862 568 875 q 523 843 542 849 q 486 838 504 838 m 208 838 q 172 843 190 838 q 140 862 153 849 q 121 894 126 875 q 115 931 115 913 q 121 967 115 949 q 140 999 126 986 q 172 1018 153 1013 q 208 1024 190 1024 q 245 1018 226 1024 q 277 999 264 1013 q 296 967 290 986 q 301 931 301 949 q 296 894 301 913 q 277 862 290 875 q 245 843 264 849 q 208 838 226 838 z "},"":{"ha":694,"x_min":75,"x_max":619,"o":"m 347 -11 q 268 -2 307 -11 q 196 29 229 7 q 138 83 163 51 q 99 153 114 115 q 80 231 85 190 q 75 310 75 271 q 78 382 75 346 q 92 453 82 418 q 120 519 103 488 q 164 576 138 551 q 225 612 190 600 q 296 624 260 624 q 358 615 328 624 q 415 586 389 606 q 458 540 440 567 q 488 485 476 514 q 459 613 479 550 q 404 731 439 675 l 151 663 l 125 753 l 342 811 q 264 872 307 846 q 172 914 221 899 l 208 1021 q 354 953 286 999 q 472 846 422 908 l 568 872 l 596 782 l 528 764 q 572 665 554 715 q 602 560 590 614 q 617 453 614 507 q 619 344 619 399 l 619 307 q 614 227 619 267 q 594 151 608 188 q 556 82 581 114 q 499 28 532 50 q 426 -2 465 7 q 347 -11 388 -11 m 347 100 q 394 108 371 100 q 435 131 417 115 q 465 168 453 147 q 483 212 476 189 q 492 258 490 235 q 494 306 494 282 q 492 354 494 331 q 483 401 490 378 q 465 444 476 424 q 435 481 453 465 q 394 505 418 497 q 347 513 371 513 q 301 505 324 513 q 260 482 278 497 q 230 445 242 467 q 211 401 218 424 q 202 354 204 378 q 200 307 200 331 q 202 259 200 283 q 211 212 204 235 q 230 168 218 189 q 259 131 242 147 q 300 108 276 115 q 347 100 324 100 z "},"":{"ha":694,"x_min":86,"x_max":608,"o":"m 86 0 l 86 722 l 211 722 l 211 593 q 238 649 221 622 q 281 696 256 676 q 336 724 306 715 q 399 733 367 733 q 465 723 432 733 q 523 690 497 713 q 565 639 549 668 q 592 577 582 610 q 605 511 601 544 q 608 444 608 478 l 608 0 l 483 0 l 483 444 q 481 487 483 465 q 472 528 479 508 q 454 567 465 549 q 426 598 443 585 q 389 617 410 611 q 347 622 368 622 q 306 617 326 622 q 268 598 285 611 q 240 567 251 585 q 222 528 229 549 q 213 487 215 508 q 211 444 211 465 l 211 0 l 86 0 m 428 829 q 414 831 421 829 q 401 833 407 832 q 388 837 394 835 q 376 842 382 839 q 364 849 369 846 q 353 857 358 853 q 343 866 349 861 q 333 876 338 871 q 324 887 329 882 q 316 897 319 892 q 308 906 313 901 q 299 917 304 911 q 290 930 294 924 q 281 940 285 936 q 272 948 278 944 q 265 957 265 951 l 269 957 q 265 953 269 956 q 258 946 261 950 q 251 938 254 942 q 247 933 249 935 q 242 928 244 931 q 238 922 240 925 q 234 916 236 919 q 230 909 232 913 q 225 902 228 906 q 220 894 222 899 q 215 886 218 890 q 210 877 213 882 q 204 867 207 872 q 199 857 201 863 q 193 846 196 851 q 188 833 190 840 l 90 876 q 114 922 103 901 q 137 960 125 943 q 160 992 149 978 q 188 1022 171 1007 q 224 1044 204 1036 q 267 1053 244 1053 q 281 1052 274 1053 q 294 1050 288 1051 q 306 1046 300 1049 q 319 1040 313 1043 q 331 1033 325 1038 q 341 1026 336 1029 q 351 1017 346 1022 q 361 1006 357 1011 q 370 997 365 1001 q 378 987 375 992 q 386 977 382 982 q 395 965 390 972 q 405 953 400 958 q 413 942 410 947 q 423 935 417 938 q 429 926 429 932 l 425 926 q 429 931 425 928 q 437 937 433 933 q 443 944 440 940 q 448 950 446 947 q 452 956 450 953 q 456 961 454 958 q 460 967 458 964 q 465 973 463 969 q 469 981 467 976 q 474 989 472 985 q 479 997 476 993 q 485 1006 482 1001 q 490 1016 488 1011 q 496 1026 493 1021 q 501 1038 499 1032 q 507 1049 504 1043 l 604 1007 q 581 960 592 982 q 558 922 569 939 q 535 890 546 906 q 507 861 524 875 q 470 838 490 847 q 428 829 450 829 z "},"":{"ha":694,"x_min":75,"x_max":619,"o":"m 347 -11 q 272 -4 310 -11 q 202 22 235 3 q 144 69 169 40 q 103 131 118 97 q 81 203 88 165 q 75 278 75 240 l 75 444 q 81 519 75 482 q 103 591 88 557 q 144 653 118 625 q 202 701 169 682 q 272 726 235 719 q 347 733 310 733 q 422 726 385 733 q 492 701 460 719 q 551 653 525 682 q 592 591 576 625 q 613 519 607 557 q 619 444 619 482 l 619 278 q 613 203 619 240 q 592 131 607 165 q 551 69 576 97 q 492 22 525 40 q 422 -4 460 3 q 347 -11 385 -11 m 347 100 q 411 113 381 100 q 461 153 442 126 q 488 212 481 179 q 494 278 494 244 l 494 444 q 488 510 494 478 q 461 569 481 543 q 411 609 442 596 q 347 622 381 622 q 283 609 314 622 q 233 569 253 596 q 207 510 214 543 q 200 444 200 478 l 200 278 q 207 212 200 244 q 233 153 214 179 q 283 113 253 126 q 347 100 314 100 m 364 804 l 181 992 l 271 1064 l 438 863 l 364 804 z "},"":{"ha":694,"x_min":75,"x_max":619,"o":"m 347 -11 q 272 -4 310 -11 q 202 22 235 3 q 144 69 169 40 q 103 131 118 97 q 81 203 88 165 q 75 278 75 240 l 75 444 q 81 519 75 482 q 103 591 88 557 q 144 653 118 625 q 202 701 169 682 q 272 726 235 719 q 347 733 310 733 q 422 726 385 733 q 492 701 460 719 q 551 653 525 682 q 592 591 576 625 q 613 519 607 557 q 619 444 619 482 l 619 278 q 613 203 619 240 q 592 131 607 165 q 551 69 576 97 q 492 22 525 40 q 422 -4 460 3 q 347 -11 385 -11 m 347 100 q 411 113 381 100 q 461 153 442 126 q 488 212 481 179 q 494 278 494 244 l 494 444 q 488 510 494 478 q 461 569 481 543 q 411 609 442 596 q 347 622 381 622 q 283 609 314 622 q 233 569 253 596 q 207 510 214 543 q 200 444 200 478 l 200 278 q 207 212 200 244 q 233 153 214 179 q 283 113 253 126 q 347 100 314 100 m 331 804 l 257 863 l 424 1064 l 514 992 l 331 804 z "},"":{"ha":694,"x_min":75,"x_max":619,"o":"m 347 -11 q 272 -4 310 -11 q 202 22 235 3 q 144 69 169 40 q 103 131 118 97 q 81 203 88 165 q 75 278 75 240 l 75 444 q 81 519 75 482 q 103 591 88 557 q 144 653 118 625 q 202 701 169 682 q 272 726 235 719 q 347 733 310 733 q 422 726 385 733 q 492 701 460 719 q 551 653 525 682 q 592 591 576 625 q 613 519 607 557 q 619 444 619 482 l 619 278 q 613 203 619 240 q 592 131 607 165 q 551 69 576 97 q 492 22 525 40 q 422 -4 460 3 q 347 -11 385 -11 m 347 100 q 411 113 381 100 q 461 153 442 126 q 488 212 481 179 q 494 278 494 244 l 494 444 q 488 510 494 478 q 461 569 481 543 q 411 609 442 596 q 347 622 381 622 q 283 609 314 622 q 233 569 253 596 q 207 510 214 543 q 200 444 200 478 l 200 278 q 207 212 200 244 q 233 153 214 179 q 283 113 253 126 q 347 100 314 100 m 217 818 l 146 868 l 276 1058 l 418 1058 l 549 868 l 478 818 l 347 974 l 217 818 z "},"":{"ha":694,"x_min":75,"x_max":619,"o":"m 347 -11 q 272 -4 310 -11 q 202 22 235 3 q 144 69 169 40 q 103 131 118 97 q 81 203 88 165 q 75 278 75 240 l 75 444 q 81 519 75 482 q 103 591 88 557 q 144 653 118 625 q 202 701 169 682 q 272 726 235 719 q 347 733 310 733 q 422 726 385 733 q 492 701 460 719 q 551 653 525 682 q 592 591 576 625 q 613 519 607 557 q 619 444 619 482 l 619 278 q 613 203 619 240 q 592 131 607 165 q 551 69 576 97 q 492 22 525 40 q 422 -4 460 3 q 347 -11 385 -11 m 347 100 q 411 113 381 100 q 461 153 442 126 q 488 212 481 179 q 494 278 494 244 l 494 444 q 488 510 494 478 q 461 569 481 543 q 411 609 442 596 q 347 622 381 622 q 283 609 314 622 q 233 569 253 596 q 207 510 214 543 q 200 444 200 478 l 200 278 q 207 212 200 244 q 233 153 214 179 q 283 113 253 126 q 347 100 314 100 m 428 829 q 414 831 421 829 q 401 833 407 832 q 388 837 394 835 q 376 842 382 839 q 364 849 369 846 q 353 857 358 853 q 343 866 349 861 q 333 876 338 871 q 324 887 329 882 q 316 897 319 892 q 308 906 313 901 q 299 917 304 911 q 290 930 294 924 q 281 940 285 936 q 272 948 278 944 q 265 957 265 951 l 269 957 q 265 953 269 956 q 258 946 261 950 q 251 938 254 942 q 247 933 249 935 q 242 928 244 931 q 238 922 240 925 q 234 916 236 919 q 230 909 232 913 q 225 902 228 906 q 220 894 222 899 q 215 886 218 890 q 210 877 213 882 q 204 867 207 872 q 199 857 201 863 q 193 846 196 851 q 188 833 190 840 l 90 876 q 114 922 103 901 q 137 960 125 943 q 160 992 149 978 q 188 1022 171 1007 q 224 1044 204 1036 q 267 1053 244 1053 q 281 1052 274 1053 q 294 1050 288 1051 q 306 1046 300 1049 q 319 1040 313 1043 q 331 1033 325 1038 q 341 1026 336 1029 q 351 1017 346 1022 q 361 1006 357 1011 q 370 997 365 1001 q 378 987 375 992 q 386 977 382 982 q 395 965 390 972 q 405 953 400 958 q 413 942 410 947 q 423 935 417 938 q 429 926 429 932 l 425 926 q 429 931 425 928 q 437 937 433 933 q 443 944 440 940 q 448 950 446 947 q 452 956 450 953 q 456 961 454 958 q 460 967 458 964 q 465 973 463 969 q 469 981 467 976 q 474 989 472 985 q 479 997 476 993 q 485 1006 482 1001 q 490 1016 488 1011 q 496 1026 493 1021 q 501 1038 499 1032 q 507 1049 504 1043 l 604 1007 q 581 960 592 982 q 558 922 569 939 q 535 890 546 906 q 507 861 524 875 q 470 838 490 847 q 428 829 450 829 z "},"":{"ha":694,"x_min":75,"x_max":619,"o":"m 347 -11 q 272 -4 310 -11 q 202 22 235 3 q 144 69 169 40 q 103 131 118 97 q 81 203 88 165 q 75 278 75 240 l 75 444 q 81 519 75 482 q 103 591 88 557 q 144 653 118 625 q 202 701 169 682 q 272 726 235 719 q 347 733 310 733 q 422 726 385 733 q 492 701 460 719 q 551 653 525 682 q 592 591 576 625 q 613 519 607 557 q 619 444 619 482 l 619 278 q 613 203 619 240 q 592 131 607 165 q 551 69 576 97 q 492 22 525 40 q 422 -4 460 3 q 347 -11 385 -11 m 347 100 q 411 113 381 100 q 461 153 442 126 q 488 212 481 179 q 494 278 494 244 l 494 444 q 488 510 494 478 q 461 569 481 543 q 411 609 442 596 q 347 622 381 622 q 283 609 314 622 q 233 569 253 596 q 207 510 214 543 q 200 444 200 478 l 200 278 q 207 212 200 244 q 233 153 214 179 q 283 113 253 126 q 347 100 314 100 m 486 838 q 449 843 468 838 q 417 862 431 849 q 399 894 404 875 q 393 931 393 913 q 399 967 393 949 q 417 999 404 986 q 449 1018 431 1013 q 486 1024 468 1024 q 523 1018 504 1024 q 555 999 542 1013 q 574 967 568 986 q 579 931 579 949 q 574 894 579 913 q 555 862 568 875 q 523 843 542 849 q 486 838 504 838 m 208 838 q 172 843 190 838 q 140 862 153 849 q 121 894 126 875 q 115 931 115 913 q 121 967 115 949 q 140 999 126 986 q 172 1018 153 1013 q 208 1024 190 1024 q 245 1018 226 1024 q 277 999 264 1013 q 296 967 290 986 q 301 931 301 949 q 296 894 301 913 q 277 862 290 875 q 245 843 264 849 q 208 838 226 838 z "},"":{"ha":694,"x_min":86,"x_max":608,"o":"m 347 632 q 307 638 326 632 q 273 659 288 644 q 252 693 258 674 q 246 733 246 713 q 252 774 246 754 q 273 808 258 793 q 307 828 288 822 q 347 835 326 835 q 388 828 368 835 q 422 808 407 822 q 442 774 436 793 q 449 733 449 754 q 442 693 449 713 q 422 659 436 674 q 388 638 407 644 q 347 632 368 632 m 86 421 l 86 524 l 608 524 l 608 421 l 86 421 m 347 110 q 307 116 326 110 q 273 137 288 122 q 252 171 258 151 q 246 211 246 190 q 252 251 246 232 q 273 285 258 271 q 307 306 288 300 q 347 313 326 313 q 388 306 368 313 q 422 285 407 300 q 442 251 436 271 q 449 211 449 232 q 442 171 449 190 q 422 137 436 151 q 388 116 407 122 q 347 110 368 110 z "},"":{"ha":694,"x_min":75,"x_max":619,"o":"m 167 -60 l 76 -12 l 131 83 q 104 128 115 104 q 86 176 93 151 q 77 226 79 200 q 75 278 75 251 l 75 444 q 81 519 75 482 q 103 591 88 557 q 144 653 118 625 q 202 701 169 682 q 272 726 235 719 q 347 733 310 733 q 417 727 382 733 q 485 706 453 721 l 528 782 l 618 735 l 564 639 q 590 594 579 618 q 608 547 601 571 q 617 497 615 522 q 619 444 619 471 l 619 278 q 613 203 619 240 q 592 131 607 165 q 551 69 576 97 q 492 22 525 40 q 422 -4 460 3 q 347 -11 385 -11 q 277 -5 313 -11 q 210 17 242 1 l 167 -60 m 206 215 l 426 603 q 388 618 408 614 q 347 622 368 622 q 283 609 314 622 q 233 569 253 596 q 207 510 214 543 q 200 444 200 478 l 200 278 q 201 247 200 263 q 206 215 203 231 m 347 100 q 411 113 381 100 q 461 153 442 126 q 488 212 481 179 q 494 278 494 244 l 494 444 q 493 476 494 460 q 489 507 492 492 l 268 119 q 306 104 286 108 q 347 100 326 100 z "},"":{"ha":694,"x_min":86,"x_max":608,"o":"m 296 -11 q 230 -1 263 -11 q 172 32 197 10 q 129 83 146 54 q 103 145 113 113 q 90 211 93 178 q 86 278 86 244 l 86 722 l 211 722 l 211 278 q 213 235 211 257 q 222 194 215 214 q 240 156 229 174 q 268 124 251 138 q 306 106 285 111 q 347 100 326 100 q 389 106 368 100 q 426 124 410 111 q 454 156 443 138 q 472 194 465 174 q 481 235 479 214 q 483 278 483 257 l 483 722 l 608 722 l 608 0 l 483 0 l 483 129 q 456 73 474 100 q 414 26 439 46 q 358 -2 389 7 q 296 -11 328 -11 m 364 804 l 181 992 l 271 1064 l 438 863 l 364 804 z "},"":{"ha":694,"x_min":86,"x_max":608,"o":"m 296 -11 q 230 -1 263 -11 q 172 32 197 10 q 129 83 146 54 q 103 145 113 113 q 90 211 93 178 q 86 278 86 244 l 86 722 l 211 722 l 211 278 q 213 235 211 257 q 222 194 215 214 q 240 156 229 174 q 268 124 251 138 q 306 106 285 111 q 347 100 326 100 q 389 106 368 100 q 426 124 410 111 q 454 156 443 138 q 472 194 465 174 q 481 235 479 214 q 483 278 483 257 l 483 722 l 608 722 l 608 0 l 483 0 l 483 129 q 456 73 474 100 q 414 26 439 46 q 358 -2 389 7 q 296 -11 328 -11 m 331 804 l 257 863 l 424 1064 l 514 992 l 331 804 z "},"":{"ha":694,"x_min":86,"x_max":608,"o":"m 296 -11 q 230 -1 263 -11 q 172 32 197 10 q 129 83 146 54 q 103 145 113 113 q 90 211 93 178 q 86 278 86 244 l 86 722 l 211 722 l 211 278 q 213 235 211 257 q 222 194 215 214 q 240 156 229 174 q 268 124 251 138 q 306 106 285 111 q 347 100 326 100 q 389 106 368 100 q 426 124 410 111 q 454 156 443 138 q 472 194 465 174 q 481 235 479 214 q 483 278 483 257 l 483 722 l 608 722 l 608 0 l 483 0 l 483 129 q 456 73 474 100 q 414 26 439 46 q 358 -2 389 7 q 296 -11 328 -11 m 217 818 l 146 868 l 276 1058 l 418 1058 l 549 868 l 478 818 l 347 974 l 217 818 z "},"":{"ha":694,"x_min":86,"x_max":608,"o":"m 296 -11 q 230 -1 263 -11 q 172 32 197 10 q 129 83 146 54 q 103 145 113 113 q 90 211 93 178 q 86 278 86 244 l 86 722 l 211 722 l 211 278 q 213 235 211 257 q 222 194 215 214 q 240 156 229 174 q 268 124 251 138 q 306 106 285 111 q 347 100 326 100 q 389 106 368 100 q 426 124 410 111 q 454 156 443 138 q 472 194 465 174 q 481 235 479 214 q 483 278 483 257 l 483 722 l 608 722 l 608 0 l 483 0 l 483 129 q 456 73 474 100 q 414 26 439 46 q 358 -2 389 7 q 296 -11 328 -11 m 486 838 q 449 843 468 838 q 417 862 431 849 q 399 894 404 875 q 393 931 393 913 q 399 967 393 949 q 417 999 404 986 q 449 1018 431 1013 q 486 1024 468 1024 q 523 1018 504 1024 q 555 999 542 1013 q 574 967 568 986 q 579 931 579 949 q 574 894 579 913 q 555 862 568 875 q 523 843 542 849 q 486 838 504 838 m 208 838 q 172 843 190 838 q 140 862 153 849 q 121 894 126 875 q 115 931 115 913 q 121 967 115 949 q 140 999 126 986 q 172 1018 153 1013 q 208 1024 190 1024 q 245 1018 226 1024 q 277 999 264 1013 q 296 967 290 986 q 301 931 301 949 q 296 894 301 913 q 277 862 290 875 q 245 843 264 849 q 208 838 226 838 z "},"":{"ha":694,"x_min":69,"x_max":625,"o":"m 201 -299 q 228 -208 215 -253 q 254 -117 242 -162 l 285 -14 l 69 722 l 197 722 l 349 149 l 497 722 l 625 722 l 374 -147 l 331 -299 l 201 -299 m 331 804 l 257 863 l 424 1064 l 514 992 l 331 804 z "},"":{"ha":694,"x_min":86,"x_max":619,"o":"m 86 -299 l 86 1021 l 211 1021 l 211 592 q 240 649 222 622 q 283 696 258 676 q 340 724 308 715 q 404 733 372 733 q 472 724 439 733 q 531 692 504 714 q 574 640 557 669 q 602 578 592 611 q 616 512 613 546 q 619 444 619 478 l 619 278 q 616 210 619 244 q 602 144 613 176 q 574 82 592 111 q 531 31 557 53 q 472 -1 504 8 q 404 -11 439 -11 q 340 -2 372 -11 q 283 26 308 7 q 240 73 258 46 q 211 131 222 100 l 211 -299 l 86 -299 m 353 100 q 395 106 374 100 q 434 124 417 111 q 463 154 451 136 q 482 193 475 172 q 492 235 489 214 q 494 278 494 257 l 494 444 q 492 487 494 465 q 482 529 489 508 q 463 568 475 550 q 434 599 451 586 q 395 617 417 611 q 353 622 374 622 q 310 617 332 622 q 272 599 289 611 q 242 568 254 586 q 224 529 231 550 q 214 487 217 508 q 211 444 211 465 l 211 278 q 214 235 211 257 q 224 193 217 214 q 242 154 231 172 q 272 124 254 136 q 310 106 289 111 q 353 100 332 100 z "},"":{"ha":694,"x_min":69,"x_max":625,"o":"m 201 -299 q 228 -208 215 -253 q 254 -117 242 -162 l 285 -14 l 69 722 l 197 722 l 349 149 l 497 722 l 625 722 l 374 -147 l 331 -299 l 201 -299 m 486 838 q 449 843 468 838 q 417 862 431 849 q 399 894 404 875 q 393 931 393 913 q 399 967 393 949 q 417 999 404 986 q 449 1018 431 1013 q 486 1024 468 1024 q 523 1018 504 1024 q 555 999 542 1013 q 574 967 568 986 q 579 931 579 949 q 574 894 579 913 q 555 862 568 875 q 523 843 542 849 q 486 838 504 838 m 208 838 q 172 843 190 838 q 140 862 153 849 q 121 894 126 875 q 115 931 115 913 q 121 967 115 949 q 140 999 126 986 q 172 1018 153 1013 q 208 1024 190 1024 q 245 1018 226 1024 q 277 999 264 1013 q 296 967 290 986 q 301 931 301 949 q 296 894 301 913 q 277 862 290 875 q 245 843 264 849 q 208 838 226 838 z "},"":{"ha":694,"x_min":57,"x_max":638,"o":"m 57 0 l 275 1021 l 419 1021 l 638 0 l 510 0 l 460 250 l 235 250 l 185 0 l 57 0 m 439 361 l 375 681 q 361 753 368 717 q 347 826 354 789 q 333 753 340 789 q 319 681 326 717 l 256 361 l 439 361 m 139 1181 l 139 1278 l 556 1278 l 556 1181 l 139 1181 z "},"":{"ha":694,"x_min":75,"x_max":608,"o":"m 289 -11 q 206 1 247 -11 q 133 44 164 14 q 89 115 103 74 q 75 199 75 157 q 84 270 75 235 q 115 333 93 306 q 168 381 138 361 q 233 411 199 400 q 302 426 267 422 q 374 431 338 431 l 483 431 l 483 493 q 474 547 483 521 q 445 590 465 572 q 399 615 425 608 q 346 622 372 622 q 297 617 321 622 q 253 599 274 613 q 221 565 233 586 q 208 519 208 543 l 208 515 l 83 515 l 83 522 q 93 585 83 554 q 121 641 103 615 q 165 685 139 667 q 222 714 192 703 q 283 729 251 725 q 346 733 314 733 q 413 728 379 733 q 478 710 447 724 q 535 675 508 697 q 578 624 561 653 q 601 561 594 594 q 608 493 608 528 l 608 0 l 483 0 l 483 117 q 453 63 472 89 q 408 20 433 38 q 351 -4 382 3 q 289 -11 321 -11 m 342 100 q 399 110 371 100 q 448 141 428 119 q 476 192 468 163 q 483 250 483 221 l 483 319 l 374 319 q 335 318 354 319 q 297 312 315 317 q 261 299 279 307 q 228 279 243 292 q 207 249 214 267 q 200 211 200 231 q 212 163 200 186 q 244 124 224 139 q 290 105 265 110 q 342 100 315 100 m 139 882 l 139 979 l 556 979 l 556 882 l 139 882 z "},"":{"ha":694,"x_min":57,"x_max":638,"o":"m 57 0 l 275 1021 l 419 1021 l 638 0 l 510 0 l 460 250 l 235 250 l 185 0 l 57 0 m 439 361 l 375 681 q 361 753 368 717 q 347 826 354 789 q 333 753 340 789 q 319 681 326 717 l 256 361 l 439 361 m 347 1132 q 292 1136 319 1132 q 238 1151 264 1140 q 190 1178 213 1161 q 153 1219 168 1196 q 132 1271 138 1243 q 126 1326 126 1299 l 235 1326 q 243 1285 235 1306 q 268 1252 251 1265 q 306 1234 285 1239 q 347 1229 326 1229 q 389 1234 368 1229 q 426 1252 410 1239 q 451 1285 443 1265 q 460 1326 460 1306 l 568 1326 q 563 1271 568 1299 q 542 1219 557 1243 q 504 1178 526 1196 q 456 1151 482 1161 q 403 1136 431 1140 q 347 1132 375 1132 z "},"":{"ha":694,"x_min":75,"x_max":608,"o":"m 289 -11 q 206 1 247 -11 q 133 44 164 14 q 89 115 103 74 q 75 199 75 157 q 84 270 75 235 q 115 333 93 306 q 168 381 138 361 q 233 411 199 400 q 302 426 267 422 q 374 431 338 431 l 483 431 l 483 493 q 474 547 483 521 q 445 590 465 572 q 399 615 425 608 q 346 622 372 622 q 297 617 321 622 q 253 599 274 613 q 221 565 233 586 q 208 519 208 543 l 208 515 l 83 515 l 83 522 q 93 585 83 554 q 121 641 103 615 q 165 685 139 667 q 222 714 192 703 q 283 729 251 725 q 346 733 314 733 q 413 728 379 733 q 478 710 447 724 q 535 675 508 697 q 578 624 561 653 q 601 561 594 594 q 608 493 608 528 l 608 0 l 483 0 l 483 117 q 453 63 472 89 q 408 20 433 38 q 351 -4 382 3 q 289 -11 321 -11 m 342 100 q 399 110 371 100 q 448 141 428 119 q 476 192 468 163 q 483 250 483 221 l 483 319 l 374 319 q 335 318 354 319 q 297 312 315 317 q 261 299 279 307 q 228 279 243 292 q 207 249 214 267 q 200 211 200 231 q 212 163 200 186 q 244 124 224 139 q 290 105 265 110 q 342 100 315 100 m 347 833 q 292 838 319 833 q 238 852 264 842 q 190 880 213 863 q 153 921 168 897 q 132 972 138 944 q 126 1028 126 1000 l 235 1028 q 243 987 235 1007 q 268 953 251 967 q 306 935 285 940 q 347 931 326 931 q 389 935 368 931 q 426 953 410 940 q 451 987 443 967 q 460 1028 460 1007 l 568 1028 q 563 972 568 1000 q 542 921 557 944 q 504 880 526 897 q 456 852 482 863 q 403 838 431 842 q 347 833 375 833 z "},"":{"ha":694,"x_min":57,"x_max":638,"o":"m 57 0 l 275 1021 l 419 1021 l 638 0 l 510 0 l 460 250 l 235 250 l 185 0 l 57 0 m 439 361 l 375 681 q 361 753 368 717 q 347 826 354 789 q 333 753 340 789 q 319 681 326 717 l 256 361 l 439 361 m 576 -310 q 535 -306 556 -310 q 496 -296 515 -303 q 459 -277 476 -289 q 428 -249 442 -265 q 410 -212 415 -233 q 404 -172 404 -192 q 423 -93 404 -131 q 470 -27 442 -56 q 534 22 499 1 q 608 57 569 43 l 608 0 q 573 -29 589 -12 q 544 -65 557 -46 q 523 -106 532 -85 q 514 -151 514 -128 q 519 -178 514 -165 q 536 -198 525 -190 q 560 -209 547 -206 q 588 -212 574 -212 q 607 -211 597 -212 q 626 -207 617 -210 l 626 -304 q 601 -308 614 -307 q 576 -310 589 -310 z "},"":{"ha":694,"x_min":75,"x_max":626,"o":"m 289 -11 q 206 1 247 -11 q 133 44 164 14 q 89 115 103 74 q 75 199 75 157 q 84 270 75 235 q 115 333 93 306 q 168 381 138 361 q 233 411 199 400 q 302 426 267 422 q 374 431 338 431 l 483 431 l 483 493 q 474 547 483 521 q 445 590 465 572 q 399 615 425 608 q 346 622 372 622 q 297 617 321 622 q 253 599 274 613 q 221 565 233 586 q 208 519 208 543 l 208 515 l 83 515 l 83 522 q 93 585 83 554 q 121 641 103 615 q 165 685 139 667 q 222 714 192 703 q 283 729 251 725 q 346 733 314 733 q 413 728 379 733 q 478 710 447 724 q 535 675 508 697 q 578 624 561 653 q 601 561 594 594 q 608 493 608 528 l 608 0 l 483 0 l 483 117 q 453 63 472 89 q 408 20 433 38 q 351 -4 382 3 q 289 -11 321 -11 m 342 100 q 399 110 371 100 q 448 141 428 119 q 476 192 468 163 q 483 250 483 221 l 483 319 l 374 319 q 335 318 354 319 q 297 312 315 317 q 261 299 279 307 q 228 279 243 292 q 207 249 214 267 q 200 211 200 231 q 212 163 200 186 q 244 124 224 139 q 290 105 265 110 q 342 100 315 100 m 576 -310 q 535 -306 556 -310 q 496 -296 515 -303 q 459 -277 476 -289 q 428 -249 442 -265 q 410 -212 415 -233 q 404 -172 404 -192 q 423 -93 404 -131 q 470 -27 442 -56 q 534 22 499 1 q 608 57 569 43 l 608 0 q 573 -29 589 -12 q 544 -65 557 -46 q 523 -106 532 -85 q 514 -151 514 -128 q 519 -178 514 -165 q 536 -198 525 -190 q 560 -209 547 -206 q 588 -212 574 -212 q 607 -211 597 -212 q 626 -207 617 -210 l 626 -304 q 601 -308 614 -307 q 576 -310 589 -310 z "},"":{"ha":694,"x_min":75,"x_max":611,"o":"m 343 -11 q 269 -4 306 -11 q 200 21 232 3 q 143 67 168 39 q 102 128 118 94 q 81 199 86 163 q 75 272 75 236 l 75 749 q 81 822 75 785 q 102 892 86 858 q 143 954 118 926 q 200 1000 168 982 q 269 1025 232 1018 q 343 1032 306 1032 q 413 1026 378 1032 q 479 1004 447 1019 q 536 965 511 989 q 578 910 561 940 q 603 844 594 879 q 611 775 611 810 l 611 765 l 486 765 l 486 771 q 477 829 486 800 q 449 880 468 858 q 401 911 429 901 q 343 921 372 921 q 281 908 311 921 q 233 869 251 894 q 207 812 214 843 q 200 749 200 781 l 200 272 q 207 209 200 240 q 233 152 214 178 q 281 113 251 126 q 343 100 311 100 q 401 110 372 100 q 449 141 429 119 q 477 192 468 163 q 486 250 486 221 l 486 256 l 611 256 l 611 246 q 603 176 611 211 q 578 111 594 142 q 536 56 561 81 q 479 17 511 32 q 413 -5 447 1 q 343 -11 378 -11 m 331 1103 l 257 1161 l 424 1363 l 514 1290 l 331 1103 z "},"":{"ha":694,"x_min":75,"x_max":611,"o":"m 343 -11 q 269 -3 306 -11 q 199 22 232 4 q 142 69 167 40 q 101 132 117 97 q 81 203 86 167 q 75 278 75 240 l 75 444 q 81 519 75 482 q 101 590 86 556 q 142 653 117 625 q 199 700 167 682 q 269 726 232 718 q 343 733 306 733 q 413 727 378 733 q 479 706 447 721 q 537 666 511 690 q 579 610 563 642 q 603 545 596 579 q 611 475 611 511 l 611 467 l 486 467 l 486 472 q 477 530 486 501 q 449 581 468 558 q 401 613 429 603 q 343 622 372 622 q 281 608 311 622 q 231 568 250 594 q 206 509 213 542 q 200 444 200 476 l 200 278 q 206 213 200 246 q 231 154 213 181 q 281 114 250 128 q 343 100 311 100 q 401 110 372 100 q 449 142 429 119 q 477 192 468 164 q 486 250 486 221 l 486 256 l 611 256 l 611 247 q 603 177 611 211 q 579 112 596 143 q 537 56 563 81 q 479 17 511 32 q 413 -5 447 1 q 343 -11 378 -11 m 331 804 l 257 863 l 424 1064 l 514 992 l 331 804 z "},"":{"ha":694,"x_min":75,"x_max":611,"o":"m 343 -11 q 269 -4 306 -11 q 200 21 232 3 q 143 67 168 39 q 102 128 118 94 q 81 199 86 163 q 75 272 75 236 l 75 749 q 81 822 75 785 q 102 892 86 858 q 143 954 118 926 q 200 1000 168 982 q 269 1025 232 1018 q 343 1032 306 1032 q 413 1026 378 1032 q 479 1004 447 1019 q 536 965 511 989 q 578 910 561 940 q 603 844 594 879 q 611 775 611 810 l 611 765 l 486 765 l 486 771 q 477 829 486 800 q 449 880 468 858 q 401 911 429 901 q 343 921 372 921 q 281 908 311 921 q 233 869 251 894 q 207 812 214 843 q 200 749 200 781 l 200 272 q 207 209 200 240 q 233 152 214 178 q 281 113 251 126 q 343 100 311 100 q 401 110 372 100 q 449 141 429 119 q 477 192 468 163 q 486 250 486 221 l 486 256 l 611 256 l 611 246 q 603 176 611 211 q 578 111 594 142 q 536 56 561 81 q 479 17 511 32 q 413 -5 447 1 q 343 -11 378 -11 m 217 1117 l 146 1167 l 276 1357 l 418 1357 l 549 1167 l 478 1117 l 347 1272 l 217 1117 z "},"":{"ha":694,"x_min":75,"x_max":611,"o":"m 343 -11 q 269 -3 306 -11 q 199 22 232 4 q 142 69 167 40 q 101 132 117 97 q 81 203 86 167 q 75 278 75 240 l 75 444 q 81 519 75 482 q 101 590 86 556 q 142 653 117 625 q 199 700 167 682 q 269 726 232 718 q 343 733 306 733 q 413 727 378 733 q 479 706 447 721 q 537 666 511 690 q 579 610 563 642 q 603 545 596 579 q 611 475 611 511 l 611 467 l 486 467 l 486 472 q 477 530 486 501 q 449 581 468 558 q 401 613 429 603 q 343 622 372 622 q 281 608 311 622 q 231 568 250 594 q 206 509 213 542 q 200 444 200 476 l 200 278 q 206 213 200 246 q 231 154 213 181 q 281 114 250 128 q 343 100 311 100 q 401 110 372 100 q 449 142 429 119 q 477 192 468 164 q 486 250 486 221 l 486 256 l 611 256 l 611 247 q 603 177 611 211 q 579 112 596 143 q 537 56 563 81 q 479 17 511 32 q 413 -5 447 1 q 343 -11 378 -11 m 217 818 l 146 868 l 276 1058 l 418 1058 l 549 868 l 478 818 l 347 974 l 217 818 z "},"":{"ha":694,"x_min":75,"x_max":611,"o":"m 343 -11 q 269 -4 306 -11 q 200 21 232 3 q 143 67 168 39 q 102 128 118 94 q 81 199 86 163 q 75 272 75 236 l 75 749 q 81 822 75 785 q 102 892 86 858 q 143 954 118 926 q 200 1000 168 982 q 269 1025 232 1018 q 343 1032 306 1032 q 413 1026 378 1032 q 479 1004 447 1019 q 536 965 511 989 q 578 910 561 940 q 603 844 594 879 q 611 775 611 810 l 611 765 l 486 765 l 486 771 q 477 829 486 800 q 449 880 468 858 q 401 911 429 901 q 343 921 372 921 q 281 908 311 921 q 233 869 251 894 q 207 812 214 843 q 200 749 200 781 l 200 272 q 207 209 200 240 q 233 152 214 178 q 281 113 251 126 q 343 100 311 100 q 401 110 372 100 q 449 141 429 119 q 477 192 468 163 q 486 250 486 221 l 486 256 l 611 256 l 611 246 q 603 176 611 211 q 578 111 594 142 q 536 56 561 81 q 479 17 511 32 q 413 -5 447 1 q 343 -11 378 -11 m 347 1133 q 309 1139 328 1133 q 276 1158 290 1144 q 257 1191 263 1172 q 251 1229 251 1210 q 257 1267 251 1249 q 276 1300 263 1286 q 309 1319 290 1314 q 347 1325 328 1325 q 385 1319 367 1325 q 418 1300 404 1314 q 438 1267 432 1286 q 443 1229 443 1249 q 438 1191 443 1210 q 418 1158 432 1172 q 385 1139 404 1144 q 347 1133 367 1133 z "},"":{"ha":694,"x_min":75,"x_max":611,"o":"m 343 -11 q 269 -3 306 -11 q 199 22 232 4 q 142 69 167 40 q 101 132 117 97 q 81 203 86 167 q 75 278 75 240 l 75 444 q 81 519 75 482 q 101 590 86 556 q 142 653 117 625 q 199 700 167 682 q 269 726 232 718 q 343 733 306 733 q 413 727 378 733 q 479 706 447 721 q 537 666 511 690 q 579 610 563 642 q 603 545 596 579 q 611 475 611 511 l 611 467 l 486 467 l 486 472 q 477 530 486 501 q 449 581 468 558 q 401 613 429 603 q 343 622 372 622 q 281 608 311 622 q 231 568 250 594 q 206 509 213 542 q 200 444 200 476 l 200 278 q 206 213 200 246 q 231 154 213 181 q 281 114 250 128 q 343 100 311 100 q 401 110 372 100 q 449 142 429 119 q 477 192 468 164 q 486 250 486 221 l 486 256 l 611 256 l 611 247 q 603 177 611 211 q 579 112 596 143 q 537 56 563 81 q 479 17 511 32 q 413 -5 447 1 q 343 -11 378 -11 m 347 835 q 309 840 328 835 q 276 860 290 846 q 257 892 263 874 q 251 931 251 911 q 257 969 251 950 q 276 1001 263 988 q 309 1021 290 1015 q 347 1026 328 1026 q 385 1021 367 1026 q 418 1001 404 1015 q 438 969 432 988 q 443 931 443 950 q 438 892 443 911 q 418 860 432 874 q 385 840 404 846 q 347 835 367 835 z "},"":{"ha":694,"x_min":75,"x_max":611,"o":"m 343 -11 q 269 -4 306 -11 q 200 21 232 3 q 143 67 168 39 q 102 128 118 94 q 81 199 86 163 q 75 272 75 236 l 75 749 q 81 822 75 785 q 102 892 86 858 q 143 954 118 926 q 200 1000 168 982 q 269 1025 232 1018 q 343 1032 306 1032 q 413 1026 378 1032 q 479 1004 447 1019 q 536 965 511 989 q 578 910 561 940 q 603 844 594 879 q 611 775 611 810 l 611 765 l 486 765 l 486 771 q 477 829 486 800 q 449 880 468 858 q 401 911 429 901 q 343 921 372 921 q 281 908 311 921 q 233 869 251 894 q 207 812 214 843 q 200 749 200 781 l 200 272 q 207 209 200 240 q 233 152 214 178 q 281 113 251 126 q 343 100 311 100 q 401 110 372 100 q 449 141 429 119 q 477 192 468 163 q 486 250 486 221 l 486 256 l 611 256 l 611 246 q 603 176 611 211 q 578 111 594 142 q 536 56 561 81 q 479 17 511 32 q 413 -5 447 1 q 343 -11 378 -11 m 276 1132 l 146 1322 l 217 1372 l 347 1217 l 478 1372 l 549 1322 l 418 1132 l 276 1132 z "},"":{"ha":694,"x_min":75,"x_max":611,"o":"m 343 -11 q 269 -3 306 -11 q 199 22 232 4 q 142 69 167 40 q 101 132 117 97 q 81 203 86 167 q 75 278 75 240 l 75 444 q 81 519 75 482 q 101 590 86 556 q 142 653 117 625 q 199 700 167 682 q 269 726 232 718 q 343 733 306 733 q 413 727 378 733 q 479 706 447 721 q 537 666 511 690 q 579 610 563 642 q 603 545 596 579 q 611 475 611 511 l 611 467 l 486 467 l 486 472 q 477 530 486 501 q 449 581 468 558 q 401 613 429 603 q 343 622 372 622 q 281 608 311 622 q 231 568 250 594 q 206 509 213 542 q 200 444 200 476 l 200 278 q 206 213 200 246 q 231 154 213 181 q 281 114 250 128 q 343 100 311 100 q 401 110 372 100 q 449 142 429 119 q 477 192 468 164 q 486 250 486 221 l 486 256 l 611 256 l 611 247 q 603 177 611 211 q 579 112 596 143 q 537 56 563 81 q 479 17 511 32 q 413 -5 447 1 q 343 -11 378 -11 m 276 833 l 146 1024 l 217 1074 l 347 918 l 478 1074 l 549 1024 l 418 833 l 276 833 z "},"":{"ha":694,"x_min":86,"x_max":619,"o":"m 308 0 l 86 0 l 86 1021 l 308 1021 q 390 1014 349 1021 q 468 990 431 1007 q 535 944 506 972 q 585 879 565 915 q 612 802 604 843 q 619 721 619 761 l 619 300 q 612 219 619 260 q 585 142 604 178 q 535 77 565 106 q 468 31 506 49 q 390 7 431 14 q 308 0 349 0 m 211 111 l 308 111 q 358 115 333 111 q 406 131 383 119 q 446 161 428 143 q 475 202 464 179 q 490 250 486 225 q 494 300 494 275 l 494 721 q 490 771 494 746 q 475 819 486 796 q 446 860 464 842 q 406 890 428 878 q 358 906 383 901 q 308 910 333 910 l 211 910 l 211 111 m 276 1132 l 146 1322 l 217 1372 l 347 1217 l 478 1372 l 549 1322 l 418 1132 l 276 1132 z "},"":{"ha":694,"x_min":75,"x_max":746,"o":"m 660 786 l 604 838 q 634 877 621 856 q 654 924 647 899 q 633 931 643 925 q 615 947 622 938 q 604 969 607 957 q 601 993 601 981 q 606 1022 601 1007 q 621 1046 611 1036 q 645 1060 631 1056 q 674 1065 660 1065 q 702 1060 688 1065 q 726 1046 717 1056 q 741 1022 736 1036 q 746 993 746 1007 q 740 935 746 964 q 724 880 735 907 q 697 829 713 853 q 660 786 681 806 m 272 -11 q 210 -1 240 -11 q 155 30 179 8 q 115 79 131 51 q 91 138 100 107 q 78 200 82 168 q 75 264 75 232 l 75 458 q 78 522 75 490 q 91 585 82 554 q 115 643 100 615 q 155 692 131 671 q 210 724 179 714 q 272 733 240 733 q 331 725 303 733 q 383 699 360 717 q 422 656 406 681 q 449 603 439 631 l 449 1021 l 574 1021 l 574 0 l 449 0 l 449 119 q 422 67 439 92 q 383 24 406 42 q 331 -3 360 6 q 272 -11 303 -11 m 324 100 q 363 106 343 100 q 397 123 382 111 q 422 152 413 135 q 438 188 432 169 q 447 225 444 206 q 449 264 449 244 l 449 458 q 447 497 449 478 q 438 535 444 517 q 422 570 432 553 q 397 599 413 588 q 363 617 382 611 q 325 622 343 622 q 286 617 306 622 q 251 599 267 611 q 226 570 236 588 q 210 535 217 553 q 202 497 204 517 q 200 458 200 478 l 200 264 q 202 225 200 244 q 210 188 204 206 q 226 152 217 169 q 251 123 236 135 q 286 106 267 111 q 324 100 306 100 z "},"":{"ha":694,"x_min":26,"x_max":619,"o":"m 308 0 l 86 0 l 86 464 l 26 464 l 26 557 l 86 557 l 86 1021 l 308 1021 q 390 1014 349 1021 q 468 990 431 1007 q 535 944 506 972 q 585 879 565 915 q 612 802 604 843 q 619 721 619 761 l 619 300 q 612 219 619 260 q 585 142 604 178 q 535 77 565 106 q 468 31 506 49 q 390 7 431 14 q 308 0 349 0 m 211 111 l 308 111 q 358 115 333 111 q 406 131 383 119 q 446 161 428 143 q 475 202 464 179 q 490 250 486 225 q 494 300 494 275 l 494 721 q 490 771 494 746 q 475 819 486 796 q 446 860 464 842 q 406 890 428 878 q 358 906 383 901 q 308 910 333 910 l 211 910 l 211 557 l 347 557 l 347 464 l 211 464 l 211 111 z "},"":{"ha":694,"x_min":75,"x_max":668,"o":"m 290 -11 q 223 -1 256 -11 q 164 31 190 8 q 120 82 138 53 q 92 144 103 111 q 78 210 82 176 q 75 278 75 244 l 75 444 q 78 512 75 478 q 92 578 82 546 q 120 640 103 611 q 164 692 138 669 q 223 724 190 714 q 290 733 256 733 q 354 724 322 733 q 411 696 386 715 q 454 649 436 676 q 483 592 472 622 l 483 825 l 342 825 l 342 918 l 483 918 l 483 1021 l 608 1021 l 608 918 l 668 918 l 668 825 l 608 825 l 608 0 l 483 0 l 483 131 q 454 73 472 100 q 411 26 436 46 q 354 -2 386 7 q 290 -11 322 -11 m 342 100 q 384 106 363 100 q 423 124 406 111 q 452 154 440 136 q 471 193 464 172 q 481 235 478 214 q 483 278 483 257 l 483 444 q 481 487 483 465 q 471 529 478 508 q 452 568 464 550 q 423 599 440 586 q 384 617 406 611 q 342 622 363 622 q 299 617 321 622 q 260 599 278 611 q 231 568 243 586 q 213 529 219 550 q 203 487 206 508 q 200 444 200 465 l 200 278 q 203 235 200 257 q 213 193 206 214 q 231 154 219 172 q 260 124 243 136 q 299 106 278 111 q 342 100 321 100 z "},"":{"ha":694,"x_min":97,"x_max":608,"o":"m 97 0 l 97 1021 l 608 1021 l 608 910 l 222 910 l 222 586 l 531 586 l 531 475 l 222 475 l 222 111 l 608 111 l 608 0 l 97 0 m 139 1181 l 139 1278 l 556 1278 l 556 1181 l 139 1181 z "},"":{"ha":694,"x_min":75,"x_max":619,"o":"m 347 -11 q 272 -4 310 -11 q 202 22 235 3 q 144 69 169 40 q 102 131 118 97 q 81 203 86 165 q 75 278 75 240 l 75 444 q 81 519 75 482 q 103 591 88 557 q 144 653 118 625 q 202 701 169 682 q 272 726 235 719 q 347 733 310 733 q 422 726 385 733 q 492 701 460 719 q 551 653 525 682 q 592 591 576 625 q 613 519 607 557 q 619 444 619 482 l 619 306 l 200 306 l 200 278 q 207 213 200 244 q 233 153 214 181 q 283 113 253 126 q 347 100 314 100 q 397 105 372 100 q 444 123 422 110 q 478 158 465 136 q 492 207 492 181 l 617 207 q 606 142 617 174 q 577 85 596 111 q 532 39 558 58 q 475 8 506 19 q 412 -7 444 -3 q 347 -11 379 -11 m 200 417 l 494 417 l 494 444 q 488 510 494 478 q 461 569 481 543 q 411 609 442 596 q 347 622 381 622 q 283 609 314 622 q 233 569 253 596 q 207 510 214 543 q 200 444 200 478 l 200 417 m 139 882 l 139 979 l 556 979 l 556 882 l 139 882 z "},"":{"ha":694,"x_min":97,"x_max":608,"o":"m 97 0 l 97 1021 l 608 1021 l 608 910 l 222 910 l 222 586 l 531 586 l 531 475 l 222 475 l 222 111 l 608 111 l 608 0 l 97 0 m 347 1132 q 292 1136 319 1132 q 238 1151 264 1140 q 190 1178 213 1161 q 153 1219 168 1196 q 132 1271 138 1243 q 126 1326 126 1299 l 235 1326 q 243 1285 235 1306 q 268 1252 251 1265 q 306 1234 285 1239 q 347 1229 326 1229 q 389 1234 368 1229 q 426 1252 410 1239 q 451 1285 443 1265 q 460 1326 460 1306 l 568 1326 q 563 1271 568 1299 q 542 1219 557 1243 q 504 1178 526 1196 q 456 1151 482 1161 q 403 1136 431 1140 q 347 1132 375 1132 z "},"":{"ha":694,"x_min":75,"x_max":619,"o":"m 347 -11 q 272 -4 310 -11 q 202 22 235 3 q 144 69 169 40 q 102 131 118 97 q 81 203 86 165 q 75 278 75 240 l 75 444 q 81 519 75 482 q 103 591 88 557 q 144 653 118 625 q 202 701 169 682 q 272 726 235 719 q 347 733 310 733 q 422 726 385 733 q 492 701 460 719 q 551 653 525 682 q 592 591 576 625 q 613 519 607 557 q 619 444 619 482 l 619 306 l 200 306 l 200 278 q 207 213 200 244 q 233 153 214 181 q 283 113 253 126 q 347 100 314 100 q 397 105 372 100 q 444 123 422 110 q 478 158 465 136 q 492 207 492 181 l 617 207 q 606 142 617 174 q 577 85 596 111 q 532 39 558 58 q 475 8 506 19 q 412 -7 444 -3 q 347 -11 379 -11 m 200 417 l 494 417 l 494 444 q 488 510 494 478 q 461 569 481 543 q 411 609 442 596 q 347 622 381 622 q 283 609 314 622 q 233 569 253 596 q 207 510 214 543 q 200 444 200 478 l 200 417 m 347 833 q 292 838 319 833 q 238 852 264 842 q 190 880 213 863 q 153 921 168 897 q 132 972 138 944 q 126 1028 126 1000 l 235 1028 q 243 987 235 1007 q 268 953 251 967 q 306 935 285 940 q 347 931 326 931 q 389 935 368 931 q 426 953 410 940 q 451 987 443 967 q 460 1028 460 1007 l 568 1028 q 563 972 568 1000 q 542 921 557 944 q 504 880 526 897 q 456 852 482 863 q 403 838 431 842 q 347 833 375 833 z "},"":{"ha":694,"x_min":97,"x_max":608,"o":"m 97 0 l 97 1021 l 608 1021 l 608 910 l 222 910 l 222 586 l 531 586 l 531 475 l 222 475 l 222 111 l 608 111 l 608 0 l 97 0 m 347 1133 q 309 1139 328 1133 q 276 1158 290 1144 q 257 1191 263 1172 q 251 1229 251 1210 q 257 1267 251 1249 q 276 1300 263 1286 q 309 1319 290 1314 q 347 1325 328 1325 q 385 1319 367 1325 q 418 1300 404 1314 q 438 1267 432 1286 q 443 1229 443 1249 q 438 1191 443 1210 q 418 1158 432 1172 q 385 1139 404 1144 q 347 1133 367 1133 z "},"":{"ha":694,"x_min":75,"x_max":619,"o":"m 347 -11 q 272 -4 310 -11 q 202 22 235 3 q 144 69 169 40 q 102 131 118 97 q 81 203 86 165 q 75 278 75 240 l 75 444 q 81 519 75 482 q 103 591 88 557 q 144 653 118 625 q 202 701 169 682 q 272 726 235 719 q 347 733 310 733 q 422 726 385 733 q 492 701 460 719 q 551 653 525 682 q 592 591 576 625 q 613 519 607 557 q 619 444 619 482 l 619 306 l 200 306 l 200 278 q 207 213 200 244 q 233 153 214 181 q 283 113 253 126 q 347 100 314 100 q 397 105 372 100 q 444 123 422 110 q 478 158 465 136 q 492 207 492 181 l 617 207 q 606 142 617 174 q 577 85 596 111 q 532 39 558 58 q 475 8 506 19 q 412 -7 444 -3 q 347 -11 379 -11 m 200 417 l 494 417 l 494 444 q 488 510 494 478 q 461 569 481 543 q 411 609 442 596 q 347 622 381 622 q 283 609 314 622 q 233 569 253 596 q 207 510 214 543 q 200 444 200 478 l 200 417 m 347 835 q 309 840 328 835 q 276 860 290 846 q 257 892 263 874 q 251 931 251 911 q 257 969 251 950 q 276 1001 263 988 q 309 1021 290 1015 q 347 1026 328 1026 q 385 1021 367 1026 q 418 1001 404 1015 q 438 969 432 988 q 443 931 443 950 q 438 892 443 911 q 418 860 432 874 q 385 840 404 846 q 347 835 367 835 z "},"":{"ha":694,"x_min":97,"x_max":626,"o":"m 97 0 l 97 1021 l 608 1021 l 608 910 l 222 910 l 222 586 l 531 586 l 531 475 l 222 475 l 222 111 l 608 111 l 608 0 l 97 0 m 576 -310 q 535 -306 556 -310 q 496 -296 515 -303 q 459 -277 476 -289 q 428 -249 442 -265 q 410 -212 415 -233 q 404 -172 404 -192 q 423 -93 404 -131 q 470 -27 442 -56 q 534 22 499 1 q 608 57 569 43 l 608 0 q 573 -29 589 -12 q 544 -65 557 -46 q 523 -106 532 -85 q 514 -151 514 -128 q 519 -178 514 -165 q 536 -198 525 -190 q 560 -209 547 -206 q 588 -212 574 -212 q 607 -211 597 -212 q 626 -207 617 -210 l 626 -304 q 601 -308 614 -307 q 576 -310 589 -310 z "},"":{"ha":694,"x_min":75,"x_max":619,"o":"m 560 -311 q 500 -303 529 -311 q 447 -276 471 -294 q 410 -229 424 -257 q 397 -172 397 -201 q 406 -120 397 -146 q 427 -72 414 -94 q 456 -28 440 -49 q 488 14 472 -7 q 419 -6 456 0 q 347 -11 383 -11 q 272 -4 310 -11 q 202 22 235 3 q 144 69 169 40 q 102 131 118 97 q 81 203 86 165 q 75 278 75 240 l 75 444 q 81 519 75 482 q 103 591 88 557 q 144 653 118 625 q 202 701 169 682 q 272 726 235 719 q 347 733 310 733 q 422 726 385 733 q 492 701 460 719 q 551 653 525 682 q 592 591 576 625 q 613 519 607 557 q 619 444 619 482 l 619 306 l 200 306 l 200 278 q 207 213 200 244 q 233 153 214 181 q 283 113 253 126 q 347 100 314 100 q 397 105 372 100 q 444 123 422 110 q 478 158 465 136 q 492 207 492 181 l 617 207 q 614 160 617 183 q 606 113 611 136 q 594 67 601 90 q 576 23 586 44 q 556 -19 567 1 q 535 -62 546 -40 q 516 -106 525 -83 q 507 -151 507 -128 q 513 -176 507 -164 q 528 -197 518 -189 q 552 -209 539 -206 q 579 -212 565 -212 q 599 -211 589 -212 q 617 -207 608 -210 l 617 -304 q 588 -309 603 -307 q 560 -311 574 -311 m 200 417 l 494 417 l 494 444 q 488 510 494 478 q 461 569 481 543 q 411 609 442 596 q 347 622 381 622 q 283 609 314 622 q 233 569 253 596 q 207 510 214 543 q 200 444 200 478 l 200 417 z "},"":{"ha":694,"x_min":97,"x_max":608,"o":"m 97 0 l 97 1021 l 608 1021 l 608 910 l 222 910 l 222 586 l 531 586 l 531 475 l 222 475 l 222 111 l 608 111 l 608 0 l 97 0 m 276 1132 l 146 1322 l 217 1372 l 347 1217 l 478 1372 l 549 1322 l 418 1132 l 276 1132 z "},"":{"ha":694,"x_min":75,"x_max":619,"o":"m 347 -11 q 272 -4 310 -11 q 202 22 235 3 q 144 69 169 40 q 102 131 118 97 q 81 203 86 165 q 75 278 75 240 l 75 444 q 81 519 75 482 q 103 591 88 557 q 144 653 118 625 q 202 701 169 682 q 272 726 235 719 q 347 733 310 733 q 422 726 385 733 q 492 701 460 719 q 551 653 525 682 q 592 591 576 625 q 613 519 607 557 q 619 444 619 482 l 619 306 l 200 306 l 200 278 q 207 213 200 244 q 233 153 214 181 q 283 113 253 126 q 347 100 314 100 q 397 105 372 100 q 444 123 422 110 q 478 158 465 136 q 492 207 492 181 l 617 207 q 606 142 617 174 q 577 85 596 111 q 532 39 558 58 q 475 8 506 19 q 412 -7 444 -3 q 347 -11 379 -11 m 200 417 l 494 417 l 494 444 q 488 510 494 478 q 461 569 481 543 q 411 609 442 596 q 347 622 381 622 q 283 609 314 622 q 233 569 253 596 q 207 510 214 543 q 200 444 200 478 l 200 417 m 276 833 l 146 1024 l 217 1074 l 347 918 l 478 1074 l 549 1024 l 418 833 l 276 833 z "},"":{"ha":694,"x_min":75,"x_max":611,"o":"m 290 -11 q 224 -1 257 -11 q 165 29 190 8 q 121 79 139 50 q 92 140 103 108 q 78 206 82 172 q 75 272 75 239 l 75 749 q 81 822 75 785 q 102 892 86 858 q 143 954 118 926 q 200 1000 168 982 q 269 1025 232 1018 q 343 1032 306 1032 q 413 1026 378 1032 q 479 1004 447 1019 q 536 965 511 989 q 578 910 561 940 q 603 844 594 879 q 611 775 611 810 l 611 765 l 486 765 l 486 771 q 477 829 486 800 q 449 880 468 858 q 401 911 429 901 q 343 921 372 921 q 281 908 311 921 q 233 869 251 894 q 207 812 214 843 q 200 749 200 781 l 200 272 q 207 210 200 242 q 232 152 214 178 q 280 113 250 126 q 342 100 310 100 q 403 113 374 100 q 451 152 433 126 q 476 210 469 178 q 483 272 483 242 l 483 447 l 347 447 l 347 558 l 608 558 l 608 0 l 494 0 l 494 164 q 469 96 486 129 q 425 38 451 63 q 363 1 399 13 q 290 -11 326 -11 m 217 1117 l 146 1167 l 276 1357 l 418 1357 l 549 1167 l 478 1117 l 347 1272 l 217 1117 z "},"":{"ha":694,"x_min":75,"x_max":608,"o":"m 344 -310 q 282 -306 313 -310 q 222 -291 251 -301 q 167 -263 193 -281 q 123 -222 142 -246 q 94 -167 104 -197 q 83 -106 85 -137 l 208 -106 q 222 -149 208 -129 q 256 -179 236 -168 q 298 -194 275 -190 q 344 -199 321 -199 q 386 -193 365 -199 q 424 -174 407 -187 q 453 -143 442 -161 q 472 -105 465 -125 q 481 -63 479 -85 q 483 -21 483 -42 l 483 131 q 454 73 472 100 q 411 26 436 46 q 354 -2 386 7 q 290 -11 322 -11 q 223 -1 256 -11 q 164 31 190 8 q 120 82 138 53 q 92 144 103 111 q 78 210 82 176 q 75 278 75 244 l 75 444 q 78 512 75 478 q 92 578 82 546 q 120 640 103 611 q 164 692 138 669 q 223 724 190 714 q 290 733 256 733 q 354 724 322 733 q 411 696 386 715 q 454 649 436 676 q 483 592 472 622 l 483 722 l 608 722 l 608 -21 q 603 -95 608 -58 q 583 -166 597 -132 q 544 -228 568 -200 q 487 -276 519 -257 q 417 -302 454 -294 q 344 -310 381 -310 m 342 100 q 384 106 363 100 q 423 124 406 111 q 452 154 440 136 q 471 193 464 172 q 481 235 478 214 q 483 278 483 257 l 483 444 q 481 487 483 465 q 471 529 478 508 q 452 568 464 550 q 423 599 440 586 q 384 617 406 611 q 342 622 363 622 q 299 617 321 622 q 260 599 278 611 q 231 568 243 586 q 213 529 219 550 q 203 487 206 508 q 200 444 200 465 l 200 278 q 203 235 200 257 q 213 193 206 214 q 231 154 219 172 q 260 124 243 136 q 299 106 278 111 q 342 100 321 100 m 217 818 l 146 868 l 276 1058 l 418 1058 l 549 868 l 478 818 l 347 974 l 217 818 z "},"":{"ha":694,"x_min":75,"x_max":611,"o":"m 290 -11 q 224 -1 257 -11 q 165 29 190 8 q 121 79 139 50 q 92 140 103 108 q 78 206 82 172 q 75 272 75 239 l 75 749 q 81 822 75 785 q 102 892 86 858 q 143 954 118 926 q 200 1000 168 982 q 269 1025 232 1018 q 343 1032 306 1032 q 413 1026 378 1032 q 479 1004 447 1019 q 536 965 511 989 q 578 910 561 940 q 603 844 594 879 q 611 775 611 810 l 611 765 l 486 765 l 486 771 q 477 829 486 800 q 449 880 468 858 q 401 911 429 901 q 343 921 372 921 q 281 908 311 921 q 233 869 251 894 q 207 812 214 843 q 200 749 200 781 l 200 272 q 207 210 200 242 q 232 152 214 178 q 280 113 250 126 q 342 100 310 100 q 403 113 374 100 q 451 152 433 126 q 476 210 469 178 q 483 272 483 242 l 483 447 l 347 447 l 347 558 l 608 558 l 608 0 l 494 0 l 494 164 q 469 96 486 129 q 425 38 451 63 q 363 1 399 13 q 290 -11 326 -11 m 347 1132 q 292 1136 319 1132 q 238 1151 264 1140 q 190 1178 213 1161 q 153 1219 168 1196 q 132 1271 138 1243 q 126 1326 126 1299 l 235 1326 q 243 1285 235 1306 q 268 1252 251 1265 q 306 1234 285 1239 q 347 1229 326 1229 q 389 1234 368 1229 q 426 1252 410 1239 q 451 1285 443 1265 q 460 1326 460 1306 l 568 1326 q 563 1271 568 1299 q 542 1219 557 1243 q 504 1178 526 1196 q 456 1151 482 1161 q 403 1136 431 1140 q 347 1132 375 1132 z "},"":{"ha":694,"x_min":75,"x_max":608,"o":"m 344 -310 q 282 -306 313 -310 q 222 -291 251 -301 q 167 -263 193 -281 q 123 -222 142 -246 q 94 -167 104 -197 q 83 -106 85 -137 l 208 -106 q 222 -149 208 -129 q 256 -179 236 -168 q 298 -194 275 -190 q 344 -199 321 -199 q 386 -193 365 -199 q 424 -174 407 -187 q 453 -143 442 -161 q 472 -105 465 -125 q 481 -63 479 -85 q 483 -21 483 -42 l 483 131 q 454 73 472 100 q 411 26 436 46 q 354 -2 386 7 q 290 -11 322 -11 q 223 -1 256 -11 q 164 31 190 8 q 120 82 138 53 q 92 144 103 111 q 78 210 82 176 q 75 278 75 244 l 75 444 q 78 512 75 478 q 92 578 82 546 q 120 640 103 611 q 164 692 138 669 q 223 724 190 714 q 290 733 256 733 q 354 724 322 733 q 411 696 386 715 q 454 649 436 676 q 483 592 472 622 l 483 722 l 608 722 l 608 -21 q 603 -95 608 -58 q 583 -166 597 -132 q 544 -228 568 -200 q 487 -276 519 -257 q 417 -302 454 -294 q 344 -310 381 -310 m 342 100 q 384 106 363 100 q 423 124 406 111 q 452 154 440 136 q 471 193 464 172 q 481 235 478 214 q 483 278 483 257 l 483 444 q 481 487 483 465 q 471 529 478 508 q 452 568 464 550 q 423 599 440 586 q 384 617 406 611 q 342 622 363 622 q 299 617 321 622 q 260 599 278 611 q 231 568 243 586 q 213 529 219 550 q 203 487 206 508 q 200 444 200 465 l 200 278 q 203 235 200 257 q 213 193 206 214 q 231 154 219 172 q 260 124 243 136 q 299 106 278 111 q 342 100 321 100 m 347 833 q 292 838 319 833 q 238 852 264 842 q 190 880 213 863 q 153 921 168 897 q 132 972 138 944 q 126 1028 126 1000 l 235 1028 q 243 987 235 1007 q 268 953 251 967 q 306 935 285 940 q 347 931 326 931 q 389 935 368 931 q 426 953 410 940 q 451 987 443 967 q 460 1028 460 1007 l 568 1028 q 563 972 568 1000 q 542 921 557 944 q 504 880 526 897 q 456 852 482 863 q 403 838 431 842 q 347 833 375 833 z "},"":{"ha":694,"x_min":75,"x_max":611,"o":"m 290 -11 q 224 -1 257 -11 q 165 29 190 8 q 121 79 139 50 q 92 140 103 108 q 78 206 82 172 q 75 272 75 239 l 75 749 q 81 822 75 785 q 102 892 86 858 q 143 954 118 926 q 200 1000 168 982 q 269 1025 232 1018 q 343 1032 306 1032 q 413 1026 378 1032 q 479 1004 447 1019 q 536 965 511 989 q 578 910 561 940 q 603 844 594 879 q 611 775 611 810 l 611 765 l 486 765 l 486 771 q 477 829 486 800 q 449 880 468 858 q 401 911 429 901 q 343 921 372 921 q 281 908 311 921 q 233 869 251 894 q 207 812 214 843 q 200 749 200 781 l 200 272 q 207 210 200 242 q 232 152 214 178 q 280 113 250 126 q 342 100 310 100 q 403 113 374 100 q 451 152 433 126 q 476 210 469 178 q 483 272 483 242 l 483 447 l 347 447 l 347 558 l 608 558 l 608 0 l 494 0 l 494 164 q 469 96 486 129 q 425 38 451 63 q 363 1 399 13 q 290 -11 326 -11 m 347 1133 q 309 1139 328 1133 q 276 1158 290 1144 q 257 1191 263 1172 q 251 1229 251 1210 q 257 1267 251 1249 q 276 1300 263 1286 q 309 1319 290 1314 q 347 1325 328 1325 q 385 1319 367 1325 q 418 1300 404 1314 q 438 1267 432 1286 q 443 1229 443 1249 q 438 1191 443 1210 q 418 1158 432 1172 q 385 1139 404 1144 q 347 1133 367 1133 z "},"":{"ha":694,"x_min":75,"x_max":608,"o":"m 344 -310 q 282 -306 313 -310 q 222 -291 251 -301 q 167 -263 193 -281 q 123 -222 142 -246 q 94 -167 104 -197 q 83 -106 85 -137 l 208 -106 q 222 -149 208 -129 q 256 -179 236 -168 q 298 -194 275 -190 q 344 -199 321 -199 q 386 -193 365 -199 q 424 -174 407 -187 q 453 -143 442 -161 q 472 -105 465 -125 q 481 -63 479 -85 q 483 -21 483 -42 l 483 131 q 454 73 472 100 q 411 26 436 46 q 354 -2 386 7 q 290 -11 322 -11 q 223 -1 256 -11 q 164 31 190 8 q 120 82 138 53 q 92 144 103 111 q 78 210 82 176 q 75 278 75 244 l 75 444 q 78 512 75 478 q 92 578 82 546 q 120 640 103 611 q 164 692 138 669 q 223 724 190 714 q 290 733 256 733 q 354 724 322 733 q 411 696 386 715 q 454 649 436 676 q 483 592 472 622 l 483 722 l 608 722 l 608 -21 q 603 -95 608 -58 q 583 -166 597 -132 q 544 -228 568 -200 q 487 -276 519 -257 q 417 -302 454 -294 q 344 -310 381 -310 m 342 100 q 384 106 363 100 q 423 124 406 111 q 452 154 440 136 q 471 193 464 172 q 481 235 478 214 q 483 278 483 257 l 483 444 q 481 487 483 465 q 471 529 478 508 q 452 568 464 550 q 423 599 440 586 q 384 617 406 611 q 342 622 363 622 q 299 617 321 622 q 260 599 278 611 q 231 568 243 586 q 213 529 219 550 q 203 487 206 508 q 200 444 200 465 l 200 278 q 203 235 200 257 q 213 193 206 214 q 231 154 219 172 q 260 124 243 136 q 299 106 278 111 q 342 100 321 100 m 347 835 q 309 840 328 835 q 276 860 290 846 q 257 892 263 874 q 251 931 251 911 q 257 969 251 950 q 276 1001 263 988 q 309 1021 290 1015 q 347 1026 328 1026 q 385 1021 367 1026 q 418 1001 404 1015 q 438 969 432 988 q 443 931 443 950 q 438 892 443 911 q 418 860 432 874 q 385 840 404 846 q 347 835 367 835 z "},"":{"ha":694,"x_min":75,"x_max":611,"o":"m 290 -11 q 224 -1 257 -11 q 165 29 190 8 q 121 79 139 50 q 92 140 103 108 q 78 206 82 172 q 75 272 75 239 l 75 749 q 81 822 75 785 q 102 892 86 858 q 143 954 118 926 q 200 1000 168 982 q 269 1025 232 1018 q 343 1032 306 1032 q 413 1026 378 1032 q 479 1004 447 1019 q 536 965 511 989 q 578 910 561 940 q 603 844 594 879 q 611 775 611 810 l 611 765 l 486 765 l 486 771 q 477 829 486 800 q 449 880 468 858 q 401 911 429 901 q 343 921 372 921 q 281 908 311 921 q 233 869 251 894 q 207 812 214 843 q 200 749 200 781 l 200 272 q 207 210 200 242 q 232 152 214 178 q 280 113 250 126 q 342 100 310 100 q 403 113 374 100 q 451 152 433 126 q 476 210 469 178 q 483 272 483 242 l 483 447 l 347 447 l 347 558 l 608 558 l 608 0 l 494 0 l 494 164 q 469 96 486 129 q 425 38 451 63 q 363 1 399 13 q 290 -11 326 -11 m 333 -347 l 278 -296 q 308 -256 294 -278 q 328 -210 321 -235 q 306 -202 317 -208 q 288 -186 296 -196 q 278 -165 281 -176 q 275 -140 275 -153 q 280 -111 275 -125 q 294 -87 285 -97 q 319 -72 304 -76 q 347 -68 333 -68 q 376 -72 361 -68 q 400 -87 390 -76 q 415 -111 410 -97 q 419 -140 419 -125 q 414 -198 419 -169 q 397 -253 408 -226 q 370 -303 386 -279 q 333 -347 354 -328 z "},"":{"ha":694,"x_min":75,"x_max":608,"o":"m 344 -310 q 282 -306 313 -310 q 222 -291 251 -301 q 167 -263 193 -281 q 123 -222 142 -246 q 94 -167 104 -197 q 83 -106 85 -137 l 208 -106 q 222 -149 208 -129 q 256 -179 236 -168 q 298 -194 275 -190 q 344 -199 321 -199 q 386 -193 365 -199 q 424 -174 407 -187 q 453 -143 442 -161 q 472 -105 465 -125 q 481 -63 479 -85 q 483 -21 483 -42 l 483 131 q 454 73 472 100 q 411 26 436 46 q 354 -2 386 7 q 290 -11 322 -11 q 223 -1 256 -11 q 164 31 190 8 q 120 82 138 53 q 92 144 103 111 q 78 210 82 176 q 75 278 75 244 l 75 444 q 78 512 75 478 q 92 578 82 546 q 120 640 103 611 q 164 692 138 669 q 223 724 190 714 q 290 733 256 733 q 354 724 322 733 q 411 696 386 715 q 454 649 436 676 q 483 592 472 622 l 483 722 l 608 722 l 608 -21 q 603 -95 608 -58 q 583 -166 597 -132 q 544 -228 568 -200 q 487 -276 519 -257 q 417 -302 454 -294 q 344 -310 381 -310 m 342 100 q 384 106 363 100 q 423 124 406 111 q 452 154 440 136 q 471 193 464 172 q 481 235 478 214 q 483 278 483 257 l 483 444 q 481 487 483 465 q 471 529 478 508 q 452 568 464 550 q 423 599 440 586 q 384 617 406 611 q 342 622 363 622 q 299 617 321 622 q 260 599 278 611 q 231 568 243 586 q 213 529 219 550 q 203 487 206 508 q 200 444 200 465 l 200 278 q 203 235 200 257 q 213 193 206 214 q 231 154 219 172 q 260 124 243 136 q 299 106 278 111 q 342 100 321 100 m 347 790 q 319 794 333 790 q 294 809 304 799 q 280 833 285 819 q 275 863 275 847 q 281 920 275 892 q 297 975 286 949 q 324 1026 308 1001 q 361 1069 340 1050 l 417 1018 q 387 978 400 1000 q 367 932 374 957 q 388 924 378 931 q 406 908 399 918 q 417 887 414 899 q 419 863 419 875 q 415 833 419 847 q 400 809 410 819 q 376 794 390 799 q 347 790 361 790 z "},"":{"ha":694,"x_min":86,"x_max":608,"o":"m 86 0 l 86 1021 l 211 1021 l 211 582 l 483 582 l 483 1021 l 608 1021 l 608 0 l 483 0 l 483 471 l 211 471 l 211 0 l 86 0 m 217 1117 l 146 1167 l 276 1357 l 418 1357 l 549 1167 l 478 1117 l 347 1272 l 217 1117 z "},"":{"ha":694,"x_min":-54,"x_max":608,"o":"m 86 0 l 86 1021 l 211 1021 l 211 593 q 238 649 221 622 q 281 696 256 676 q 336 724 306 715 q 399 733 367 733 q 465 723 432 733 q 523 690 497 713 q 565 639 549 668 q 592 577 582 610 q 605 511 601 544 q 608 444 608 478 l 608 0 l 483 0 l 483 444 q 481 487 483 465 q 472 528 479 508 q 454 567 465 549 q 426 598 443 585 q 389 617 410 611 q 347 622 368 622 q 306 617 326 622 q 268 598 285 611 q 240 567 251 585 q 222 528 229 549 q 213 487 215 508 q 211 444 211 465 l 211 0 l 86 0 m 18 1117 l -53 1167 l 78 1357 l 219 1357 l 350 1167 l 279 1117 l 149 1272 l 18 1117 z "},"":{"ha":694,"x_min":26,"x_max":668,"o":"m 86 0 l 86 754 l 26 754 l 26 847 l 86 847 l 86 1021 l 211 1021 l 211 847 l 483 847 l 483 1021 l 608 1021 l 608 847 l 668 847 l 668 754 l 608 754 l 608 0 l 483 0 l 483 471 l 211 471 l 211 0 l 86 0 m 483 582 l 483 754 l 211 754 l 211 582 l 483 582 z "},"":{"ha":694,"x_min":26,"x_max":608,"o":"m 86 0 l 86 810 l 26 810 l 26 903 l 86 903 l 86 1021 l 211 1021 l 211 903 l 347 903 l 347 810 l 211 810 l 211 593 q 238 649 221 622 q 281 696 256 676 q 336 724 306 715 q 399 733 367 733 q 465 723 432 733 q 523 690 497 713 q 565 639 549 668 q 592 577 582 610 q 605 511 601 544 q 608 444 608 478 l 608 0 l 483 0 l 483 444 q 481 487 483 465 q 472 528 479 508 q 454 567 465 549 q 426 598 443 585 q 389 617 410 611 q 347 622 368 622 q 306 617 326 622 q 268 598 285 611 q 240 567 251 585 q 222 528 229 549 q 213 487 215 508 q 211 444 211 465 l 211 0 l 86 0 z "},"":{"ha":694,"x_min":90,"x_max":604,"o":"m 104 0 l 104 111 l 285 111 l 285 910 l 104 910 l 104 1021 l 590 1021 l 590 910 l 410 910 l 410 111 l 590 111 l 590 0 l 104 0 m 428 1128 q 414 1129 421 1128 q 401 1132 407 1131 q 388 1135 394 1133 q 376 1141 382 1138 q 364 1148 369 1144 q 353 1156 358 1151 q 343 1165 349 1160 q 333 1175 338 1169 q 324 1185 329 1181 q 316 1195 319 1190 q 308 1205 313 1200 q 299 1216 304 1210 q 290 1228 294 1222 q 281 1239 285 1235 q 272 1247 278 1243 q 265 1256 265 1250 l 269 1256 q 265 1251 269 1254 q 258 1244 261 1249 q 251 1237 254 1240 q 247 1231 249 1233 q 242 1226 244 1229 q 238 1221 240 1224 q 234 1215 236 1218 q 230 1208 232 1211 q 225 1201 228 1204 q 220 1193 222 1197 q 215 1185 218 1189 q 210 1176 213 1181 q 204 1166 207 1171 q 199 1156 201 1161 q 193 1144 196 1150 q 188 1132 190 1139 l 90 1175 q 114 1221 103 1200 q 137 1259 125 1242 q 160 1291 149 1276 q 188 1320 171 1306 q 224 1343 204 1335 q 267 1351 244 1351 q 281 1351 274 1351 q 294 1349 288 1350 q 306 1344 300 1347 q 319 1339 313 1342 q 331 1332 325 1336 q 341 1324 336 1328 q 351 1315 346 1321 q 361 1305 357 1310 q 370 1295 365 1300 q 378 1285 375 1290 q 386 1276 382 1281 q 395 1264 390 1271 q 405 1251 400 1257 q 413 1241 410 1246 q 423 1233 417 1236 q 429 1225 429 1231 l 425 1225 q 429 1229 425 1226 q 437 1235 433 1232 q 443 1242 440 1239 q 448 1249 446 1246 q 452 1254 450 1251 q 456 1260 454 1257 q 460 1265 458 1263 q 465 1272 463 1268 q 469 1279 467 1275 q 474 1288 472 1283 q 479 1296 476 1292 q 485 1305 482 1300 q 490 1315 488 1310 q 496 1325 493 1319 q 501 1336 499 1331 q 507 1347 504 1342 l 604 1306 q 581 1259 592 1281 q 558 1221 569 1238 q 535 1189 546 1204 q 507 1160 524 1174 q 470 1137 490 1146 q 428 1128 450 1128 z "},"":{"ha":694,"x_min":90,"x_max":604,"o":"m 104 0 l 104 111 l 294 111 l 294 611 l 124 611 l 124 722 l 419 722 l 419 111 l 590 111 l 590 0 l 104 0 m 428 829 q 414 831 421 829 q 401 833 407 832 q 388 837 394 835 q 376 842 382 839 q 364 849 369 846 q 353 857 358 853 q 343 866 349 861 q 333 876 338 871 q 324 887 329 882 q 316 897 319 892 q 308 906 313 901 q 299 917 304 911 q 290 930 294 924 q 281 940 285 936 q 272 948 278 944 q 265 957 265 951 l 269 957 q 265 953 269 956 q 258 946 261 950 q 251 938 254 942 q 247 933 249 935 q 242 928 244 931 q 238 922 240 925 q 234 916 236 919 q 230 909 232 913 q 225 902 228 906 q 220 894 222 899 q 215 886 218 890 q 210 877 213 882 q 204 867 207 872 q 199 857 201 863 q 193 846 196 851 q 188 833 190 840 l 90 876 q 114 922 103 901 q 137 960 125 943 q 160 992 149 978 q 188 1022 171 1007 q 224 1044 204 1036 q 267 1053 244 1053 q 281 1052 274 1053 q 294 1050 288 1051 q 306 1046 300 1049 q 319 1040 313 1043 q 331 1033 325 1038 q 341 1026 336 1029 q 351 1017 346 1022 q 361 1006 357 1011 q 370 997 365 1001 q 378 987 375 992 q 386 977 382 982 q 395 965 390 972 q 405 953 400 958 q 413 942 410 947 q 423 935 417 938 q 429 926 429 932 l 425 926 q 429 931 425 928 q 437 937 433 933 q 443 944 440 940 q 448 950 446 947 q 452 956 450 953 q 456 961 454 958 q 460 967 458 964 q 465 973 463 969 q 469 981 467 976 q 474 989 472 985 q 479 997 476 993 q 485 1006 482 1001 q 490 1016 488 1011 q 496 1026 493 1021 q 501 1038 499 1032 q 507 1049 504 1043 l 604 1007 q 581 960 592 982 q 558 922 569 939 q 535 890 546 906 q 507 861 524 875 q 470 838 490 847 q 428 829 450 829 z "},"":{"ha":694,"x_min":104,"x_max":590,"o":"m 104 0 l 104 111 l 285 111 l 285 910 l 104 910 l 104 1021 l 590 1021 l 590 910 l 410 910 l 410 111 l 590 111 l 590 0 l 104 0 m 139 1181 l 139 1278 l 556 1278 l 556 1181 l 139 1181 z "},"":{"ha":694,"x_min":104,"x_max":590,"o":"m 104 0 l 104 111 l 294 111 l 294 611 l 124 611 l 124 722 l 419 722 l 419 111 l 590 111 l 590 0 l 104 0 m 139 882 l 139 979 l 556 979 l 556 882 l 139 882 z "},"":{"ha":694,"x_min":104,"x_max":590,"o":"m 104 0 l 104 111 l 285 111 l 285 910 l 104 910 l 104 1021 l 590 1021 l 590 910 l 410 910 l 410 111 l 590 111 l 590 0 l 104 0 m 347 1132 q 292 1136 319 1132 q 238 1151 264 1140 q 190 1178 213 1161 q 153 1219 168 1196 q 132 1271 138 1243 q 126 1326 126 1299 l 235 1326 q 243 1285 235 1306 q 268 1252 251 1265 q 306 1234 285 1239 q 347 1229 326 1229 q 389 1234 368 1229 q 426 1252 410 1239 q 451 1285 443 1265 q 460 1326 460 1306 l 568 1326 q 563 1271 568 1299 q 542 1219 557 1243 q 504 1178 526 1196 q 456 1151 482 1161 q 403 1136 431 1140 q 347 1132 375 1132 z "},"":{"ha":694,"x_min":104,"x_max":590,"o":"m 104 0 l 104 111 l 294 111 l 294 611 l 124 611 l 124 722 l 419 722 l 419 111 l 590 111 l 590 0 l 104 0 m 347 833 q 292 838 319 833 q 238 852 264 842 q 190 880 213 863 q 153 921 168 897 q 132 972 138 944 q 126 1028 126 1000 l 235 1028 q 243 987 235 1007 q 268 953 251 967 q 306 935 285 940 q 347 931 326 931 q 389 935 368 931 q 426 953 410 940 q 451 987 443 967 q 460 1028 460 1007 l 568 1028 q 563 972 568 1000 q 542 921 557 944 q 504 880 526 897 q 456 852 482 863 q 403 838 431 842 q 347 833 375 833 z "},"":{"ha":694,"x_min":104,"x_max":608,"o":"m 104 0 l 104 111 l 285 111 l 285 910 l 104 910 l 104 1021 l 590 1021 l 590 910 l 410 910 l 410 111 l 590 111 l 590 0 l 104 0 m 558 -310 q 517 -306 538 -310 q 478 -296 497 -303 q 441 -277 458 -289 q 410 -249 424 -265 q 392 -212 397 -233 q 386 -172 386 -192 q 405 -93 386 -131 q 452 -27 424 -56 q 516 22 481 1 q 590 57 551 43 l 590 0 q 555 -29 571 -12 q 526 -65 539 -46 q 505 -106 514 -85 q 496 -151 496 -128 q 501 -178 496 -165 q 518 -198 507 -190 q 542 -209 529 -206 q 569 -212 556 -212 q 589 -211 579 -212 q 608 -207 599 -210 l 608 -304 q 583 -308 596 -307 q 558 -310 571 -310 z "},"":{"ha":694,"x_min":104,"x_max":608,"o":"m 104 0 l 104 111 l 294 111 l 294 611 l 124 611 l 124 722 l 419 722 l 419 111 l 590 111 l 590 0 l 104 0 m 354 835 q 316 840 335 835 q 283 860 297 846 q 264 892 269 874 q 258 931 258 911 q 264 969 258 950 q 283 1001 269 988 q 316 1021 297 1015 q 354 1026 335 1026 q 392 1021 374 1026 q 425 1001 411 1015 q 444 969 439 988 q 450 931 450 950 q 444 892 450 911 q 425 860 439 874 q 392 840 411 846 q 354 835 374 835 m 558 -310 q 517 -306 538 -310 q 478 -296 497 -303 q 441 -277 458 -289 q 410 -249 424 -265 q 392 -212 397 -233 q 386 -172 386 -192 q 405 -93 386 -131 q 452 -27 424 -56 q 516 22 481 1 q 590 57 551 43 l 590 0 q 555 -29 571 -12 q 526 -65 539 -46 q 505 -106 514 -85 q 496 -151 496 -128 q 501 -178 496 -165 q 518 -198 507 -190 q 542 -209 529 -206 q 569 -212 556 -212 q 589 -211 579 -212 q 608 -207 599 -210 l 608 -304 q 583 -308 596 -307 q 558 -310 571 -310 z "},"":{"ha":694,"x_min":104,"x_max":590,"o":"m 104 0 l 104 111 l 285 111 l 285 910 l 104 910 l 104 1021 l 590 1021 l 590 910 l 410 910 l 410 111 l 590 111 l 590 0 l 104 0 m 347 1133 q 309 1139 328 1133 q 276 1158 290 1144 q 257 1191 263 1172 q 251 1229 251 1210 q 257 1267 251 1249 q 276 1300 263 1286 q 309 1319 290 1314 q 347 1325 328 1325 q 385 1319 367 1325 q 418 1300 404 1314 q 438 1267 432 1286 q 443 1229 443 1249 q 438 1191 443 1210 q 418 1158 432 1172 q 385 1139 404 1144 q 347 1133 367 1133 z "},"":{"ha":694,"x_min":104,"x_max":590,"o":"m 104 0 l 104 111 l 294 111 l 294 611 l 124 611 l 124 722 l 419 722 l 419 111 l 590 111 l 590 0 l 104 0 z "},"":{"ha":694,"x_min":61,"x_max":679,"o":"m 317 -11 q 249 -5 282 -11 q 185 17 215 1 q 131 58 154 33 q 92 114 107 83 q 69 178 76 144 q 61 246 61 211 l 61 256 l 186 256 l 186 250 q 194 194 186 221 q 218 144 201 167 q 262 111 235 122 q 317 100 289 100 q 356 106 336 100 q 392 124 376 111 q 419 155 408 138 q 435 192 429 172 q 444 232 442 211 q 446 272 446 253 l 446 910 l 265 910 l 265 1021 l 571 1021 l 571 272 q 566 201 571 236 q 547 132 561 165 q 509 70 532 99 q 455 23 486 42 q 388 -3 424 4 q 317 -11 353 -11 m 347 1117 l 276 1167 l 407 1357 l 549 1357 l 679 1167 l 608 1117 l 478 1272 l 347 1117 z "},"":{"ha":694,"x_min":19,"x_max":626,"o":"m 257 -310 q 196 -305 226 -310 q 138 -287 165 -300 q 87 -252 110 -274 q 49 -203 64 -231 q 27 -147 35 -176 q 19 -85 19 -117 l 144 -85 q 152 -130 144 -108 q 175 -168 160 -151 q 213 -192 190 -185 q 257 -199 235 -199 q 295 -192 276 -199 q 328 -171 314 -185 q 350 -140 342 -157 q 364 -103 358 -122 q 371 -65 369 -85 q 372 -26 372 -46 l 372 611 l 192 611 l 192 722 l 497 722 l 497 -26 q 492 -96 497 -61 q 475 -164 488 -131 q 442 -226 463 -197 q 392 -274 421 -254 q 328 -301 363 -293 q 257 -310 293 -310 m 293 818 l 222 868 l 353 1058 l 494 1058 l 625 868 l 554 818 l 424 974 l 293 818 z "},"":{"ha":694,"x_min":108,"x_max":625,"o":"m 490 0 l 289 439 l 232 342 l 232 0 l 108 0 l 108 1021 l 232 1021 l 232 560 l 486 1021 l 625 1021 l 357 557 l 625 0 l 490 0 m 333 -347 l 278 -296 q 308 -256 294 -278 q 328 -210 321 -235 q 306 -202 317 -208 q 288 -186 296 -196 q 278 -165 281 -176 q 275 -140 275 -153 q 280 -111 275 -125 q 294 -87 285 -97 q 319 -72 304 -76 q 347 -68 333 -68 q 376 -72 361 -68 q 400 -87 390 -76 q 415 -111 410 -97 q 419 -140 419 -125 q 414 -198 419 -169 q 397 -253 408 -226 q 370 -303 386 -279 q 333 -347 354 -328 z "},"":{"ha":694,"x_min":108,"x_max":622,"o":"m 481 0 l 300 299 l 232 211 l 232 0 l 108 0 l 108 1021 l 232 1021 l 232 388 l 475 722 l 622 722 l 371 393 l 622 0 l 481 0 m 333 -347 l 278 -296 q 308 -256 294 -278 q 328 -210 321 -235 q 306 -202 317 -208 q 288 -186 296 -196 q 278 -165 281 -176 q 275 -140 275 -153 q 280 -111 275 -125 q 294 -87 285 -97 q 319 -72 304 -76 q 347 -68 333 -68 q 376 -72 361 -68 q 400 -87 390 -76 q 415 -111 410 -97 q 419 -140 419 -125 q 414 -198 419 -169 q 397 -253 408 -226 q 370 -303 386 -279 q 333 -347 354 -328 z "},"":{"ha":694,"x_min":108,"x_max":622,"o":"m 481 0 l 300 299 l 232 211 l 232 0 l 108 0 l 108 722 l 232 722 l 232 388 l 475 722 l 622 722 l 371 393 l 622 0 l 481 0 z "},"":{"ha":694,"x_min":100,"x_max":617,"o":"m 129 0 l 129 1021 l 254 1021 l 254 111 l 617 111 l 617 0 l 129 0 m 175 1103 l 101 1161 l 268 1363 l 358 1290 l 175 1103 z "},"":{"ha":694,"x_min":104,"x_max":590,"o":"m 104 0 l 104 111 l 294 111 l 294 910 l 124 910 l 124 1021 l 419 1021 l 419 111 l 590 111 l 590 0 l 104 0 m 338 1103 l 264 1161 l 431 1363 l 521 1290 l 338 1103 z "},"":{"ha":694,"x_min":129,"x_max":617,"o":"m 129 0 l 129 1021 l 254 1021 l 254 111 l 617 111 l 617 0 l 129 0 m 333 -347 l 278 -296 q 308 -256 294 -278 q 328 -210 321 -235 q 306 -202 317 -208 q 288 -186 296 -196 q 278 -165 281 -176 q 275 -140 275 -153 q 280 -111 275 -125 q 294 -87 285 -97 q 319 -72 304 -76 q 347 -68 333 -68 q 376 -72 361 -68 q 400 -87 390 -76 q 415 -111 410 -97 q 419 -140 419 -125 q 414 -198 419 -169 q 397 -253 408 -226 q 370 -303 386 -279 q 333 -347 354 -328 z "},"":{"ha":694,"x_min":104,"x_max":590,"o":"m 104 0 l 104 111 l 294 111 l 294 910 l 124 910 l 124 1021 l 419 1021 l 419 111 l 590 111 l 590 0 l 104 0 m 343 -347 l 288 -296 q 317 -256 304 -278 q 338 -210 331 -235 q 316 -202 326 -208 q 298 -186 306 -196 q 288 -165 290 -176 q 285 -140 285 -153 q 290 -111 285 -125 q 304 -87 294 -97 q 328 -72 314 -76 q 357 -68 343 -68 q 385 -72 371 -68 q 410 -87 400 -76 q 424 -111 419 -97 q 429 -140 429 -125 q 424 -198 429 -169 q 407 -253 418 -226 q 380 -303 396 -279 q 343 -347 364 -328 z "},"":{"ha":694,"x_min":129,"x_max":617,"o":"m 529 786 l 474 838 q 503 877 490 856 q 524 924 517 899 q 502 931 513 925 q 484 947 492 938 q 474 969 476 957 q 471 993 471 981 q 476 1022 471 1007 q 490 1046 481 1036 q 515 1060 500 1056 q 543 1065 529 1065 q 572 1060 557 1065 q 596 1046 586 1056 q 610 1022 606 1036 q 615 993 615 1007 q 610 935 615 964 q 593 880 604 907 q 566 829 582 853 q 529 786 550 806 m 129 0 l 129 1021 l 254 1021 l 254 111 l 617 111 l 617 0 l 129 0 z "},"":{"ha":694,"x_min":104,"x_max":635,"o":"m 547 786 l 492 838 q 522 877 508 856 q 542 924 535 899 q 520 931 531 925 q 502 947 510 938 q 492 969 494 957 q 489 993 489 981 q 494 1022 489 1007 q 508 1046 499 1036 q 533 1060 518 1056 q 561 1065 547 1065 q 590 1060 575 1065 q 614 1046 604 1056 q 628 1022 624 1036 q 633 993 633 1007 q 628 935 633 964 q 611 880 622 907 q 584 829 600 853 q 547 786 568 806 m 104 0 l 104 111 l 294 111 l 294 910 l 124 910 l 124 1021 l 419 1021 l 419 111 l 590 111 l 590 0 l 104 0 z "},"":{"ha":694,"x_min":129,"x_max":617,"o":"m 129 0 l 129 1021 l 254 1021 l 254 111 l 617 111 l 617 0 l 129 0 m 457 458 q 414 465 435 458 q 378 486 393 471 q 356 522 363 501 q 350 565 350 543 q 356 608 350 588 q 378 644 363 629 q 414 666 393 660 q 457 672 435 672 q 500 666 479 672 q 536 644 521 660 q 558 608 551 629 q 564 565 564 588 q 558 522 564 543 q 536 486 551 501 q 500 465 521 471 q 457 458 479 458 z "},"":{"ha":694,"x_min":56,"x_max":619,"o":"m 56 0 l 56 111 l 246 111 l 246 910 l 75 910 l 75 1021 l 371 1021 l 371 111 l 542 111 l 542 0 l 56 0 m 513 458 q 469 465 490 458 q 433 486 449 471 q 412 522 418 501 q 406 565 406 543 q 412 608 406 588 q 433 644 418 629 q 469 666 449 660 q 513 672 490 672 q 556 666 535 672 q 592 644 576 660 q 613 608 607 629 q 619 565 619 588 q 613 522 619 543 q 592 486 607 501 q 556 465 576 471 q 513 458 535 458 z "},"":{"ha":694,"x_min":19,"x_max":617,"o":"m 129 0 l 129 458 l 67 428 l 19 510 l 129 565 l 129 1021 l 254 1021 l 254 628 l 408 704 l 456 622 l 254 521 l 254 111 l 617 111 l 617 0 l 129 0 z "},"":{"ha":694,"x_min":104,"x_max":590,"o":"m 104 0 l 104 111 l 294 111 l 294 446 l 186 392 l 139 475 l 294 553 l 294 910 l 124 910 l 124 1021 l 419 1021 l 419 615 l 528 669 l 575 586 l 419 508 l 419 111 l 590 111 l 590 0 l 104 0 z "},"":{"ha":694,"x_min":86,"x_max":608,"o":"m 86 0 l 86 1021 l 229 1021 l 501 207 q 490 410 496 308 q 483 613 483 511 l 483 1021 l 608 1021 l 608 0 l 465 0 l 193 814 q 205 611 199 713 q 211 408 211 510 l 211 0 l 86 0 m 331 1103 l 257 1161 l 424 1363 l 514 1290 l 331 1103 z "},"":{"ha":694,"x_min":86,"x_max":608,"o":"m 86 0 l 86 722 l 211 722 l 211 593 q 238 649 221 622 q 281 696 256 676 q 336 724 306 715 q 399 733 367 733 q 465 723 432 733 q 523 690 497 713 q 565 639 549 668 q 592 577 582 610 q 605 511 601 544 q 608 444 608 478 l 608 0 l 483 0 l 483 444 q 481 487 483 465 q 472 528 479 508 q 454 567 465 549 q 426 598 443 585 q 389 617 410 611 q 347 622 368 622 q 306 617 326 622 q 268 598 285 611 q 240 567 251 585 q 222 528 229 549 q 213 487 215 508 q 211 444 211 465 l 211 0 l 86 0 m 331 804 l 257 863 l 424 1064 l 514 992 l 331 804 z "},"":{"ha":694,"x_min":86,"x_max":608,"o":"m 86 0 l 86 1021 l 229 1021 l 501 207 q 490 410 496 308 q 483 613 483 511 l 483 1021 l 608 1021 l 608 0 l 465 0 l 193 814 q 205 611 199 713 q 211 408 211 510 l 211 0 l 86 0 m 333 -347 l 278 -296 q 308 -256 294 -278 q 328 -210 321 -235 q 306 -202 317 -208 q 288 -186 296 -196 q 278 -165 281 -176 q 275 -140 275 -153 q 280 -111 275 -125 q 294 -87 285 -97 q 319 -72 304 -76 q 347 -68 333 -68 q 376 -72 361 -68 q 400 -87 390 -76 q 415 -111 410 -97 q 419 -140 419 -125 q 414 -198 419 -169 q 397 -253 408 -226 q 370 -303 386 -279 q 333 -347 354 -328 z "},"":{"ha":694,"x_min":86,"x_max":608,"o":"m 86 0 l 86 722 l 211 722 l 211 593 q 238 649 221 622 q 281 696 256 676 q 336 724 306 715 q 399 733 367 733 q 465 723 432 733 q 523 690 497 713 q 565 639 549 668 q 592 577 582 610 q 605 511 601 544 q 608 444 608 478 l 608 0 l 483 0 l 483 444 q 481 487 483 465 q 472 528 479 508 q 454 567 465 549 q 426 598 443 585 q 389 617 410 611 q 347 622 368 622 q 306 617 326 622 q 268 598 285 611 q 240 567 251 585 q 222 528 229 549 q 213 487 215 508 q 211 444 211 465 l 211 0 l 86 0 m 333 -347 l 278 -296 q 308 -256 294 -278 q 328 -210 321 -235 q 306 -202 317 -208 q 288 -186 296 -196 q 278 -165 281 -176 q 275 -140 275 -153 q 280 -111 275 -125 q 294 -87 285 -97 q 319 -72 304 -76 q 347 -68 333 -68 q 376 -72 361 -68 q 400 -87 390 -76 q 415 -111 410 -97 q 419 -140 419 -125 q 414 -198 419 -169 q 397 -253 408 -226 q 370 -303 386 -279 q 333 -347 354 -328 z "},"":{"ha":694,"x_min":86,"x_max":608,"o":"m 86 0 l 86 1021 l 229 1021 l 501 207 q 490 410 496 308 q 483 613 483 511 l 483 1021 l 608 1021 l 608 0 l 465 0 l 193 814 q 205 611 199 713 q 211 408 211 510 l 211 0 l 86 0 m 276 1132 l 146 1322 l 217 1372 l 347 1217 l 478 1372 l 549 1322 l 418 1132 l 276 1132 z "},"":{"ha":694,"x_min":86,"x_max":608,"o":"m 86 0 l 86 722 l 211 722 l 211 593 q 238 649 221 622 q 281 696 256 676 q 336 724 306 715 q 399 733 367 733 q 465 723 432 733 q 523 690 497 713 q 565 639 549 668 q 592 577 582 610 q 605 511 601 544 q 608 444 608 478 l 608 0 l 483 0 l 483 444 q 481 487 483 465 q 472 528 479 508 q 454 567 465 549 q 426 598 443 585 q 389 617 410 611 q 347 622 368 622 q 306 617 326 622 q 268 598 285 611 q 240 567 251 585 q 222 528 229 549 q 213 487 215 508 q 211 444 211 465 l 211 0 l 86 0 m 276 833 l 146 1024 l 217 1074 l 347 918 l 478 1074 l 549 1024 l 418 833 l 276 833 z "},"":{"ha":694,"x_min":14,"x_max":608,"o":"m 86 0 l 86 722 l 211 722 l 211 593 q 238 649 221 622 q 281 696 256 676 q 336 724 306 715 q 399 733 367 733 q 465 723 432 733 q 523 690 497 713 q 565 639 549 668 q 592 577 582 610 q 605 511 601 544 q 608 444 608 478 l 608 0 l 483 0 l 483 444 q 481 487 483 465 q 472 528 479 508 q 454 567 465 549 q 426 598 443 585 q 389 617 410 611 q 347 622 368 622 q 306 617 326 622 q 268 598 285 611 q 240 567 251 585 q 222 528 229 549 q 213 487 215 508 q 211 444 211 465 l 211 0 l 86 0 m 72 786 l 17 838 q 47 877 33 856 q 67 924 60 899 q 45 931 56 925 q 27 947 35 938 q 17 969 19 957 q 14 993 14 981 q 19 1022 14 1007 q 33 1046 24 1036 q 58 1060 43 1056 q 86 1065 72 1065 q 115 1060 100 1065 q 139 1046 129 1056 q 153 1022 149 1036 q 158 993 158 1007 q 153 935 158 964 q 136 880 147 907 q 109 829 125 853 q 72 786 93 806 z "},"":{"ha":694,"x_min":86,"x_max":608,"o":"m 310 -299 l 310 -187 l 338 -187 q 398 -177 368 -187 q 448 -144 428 -167 q 476 -92 468 -122 q 483 -32 483 -62 l 483 0 l 465 0 l 193 814 q 205 611 199 713 q 211 408 211 510 l 211 0 l 86 0 l 86 1021 l 229 1021 l 501 207 q 490 410 496 308 q 483 613 483 511 l 483 1021 l 608 1021 l 608 -32 q 602 -103 608 -68 q 579 -172 596 -139 q 536 -229 563 -204 q 478 -270 510 -254 q 410 -292 446 -286 q 338 -299 374 -299 l 310 -299 z "},"":{"ha":694,"x_min":86,"x_max":608,"o":"m 310 -299 l 310 -187 l 338 -187 q 398 -177 368 -187 q 448 -144 428 -167 q 476 -92 468 -122 q 483 -32 483 -62 l 483 444 q 481 487 483 465 q 472 528 479 508 q 454 567 465 549 q 426 598 443 585 q 389 617 410 611 q 347 622 368 622 q 306 617 326 622 q 268 598 285 611 q 240 567 251 585 q 222 528 229 549 q 213 487 215 508 q 211 444 211 465 l 211 0 l 86 0 l 86 722 l 211 722 l 211 593 q 238 649 221 622 q 281 696 256 676 q 336 724 306 715 q 399 733 367 733 q 465 723 432 733 q 523 690 497 713 q 565 639 549 668 q 592 577 582 610 q 605 511 601 544 q 608 444 608 478 l 608 -32 q 602 -103 608 -68 q 579 -172 596 -139 q 536 -229 563 -204 q 478 -270 510 -254 q 410 -292 446 -286 q 338 -299 374 -299 l 310 -299 z "},"":{"ha":694,"x_min":75,"x_max":619,"o":"m 347 -11 q 273 -4 310 -11 q 203 21 236 3 q 144 67 171 39 q 103 128 118 94 q 81 199 88 161 q 75 272 75 236 l 75 749 q 81 822 75 785 q 103 893 88 860 q 144 954 118 926 q 203 1000 171 982 q 273 1025 236 1018 q 347 1032 310 1032 q 422 1025 385 1032 q 491 1000 458 1018 q 550 954 524 982 q 592 893 576 926 q 613 822 607 860 q 619 749 619 785 l 619 272 q 613 199 619 236 q 592 128 607 161 q 550 67 576 94 q 491 21 524 39 q 422 -4 458 3 q 347 -11 385 -11 m 347 100 q 410 113 379 100 q 460 151 440 125 q 488 208 481 176 q 494 272 494 240 l 494 749 q 488 813 494 781 q 460 870 481 844 q 410 908 440 896 q 347 921 379 921 q 285 908 315 921 q 234 870 254 896 q 207 813 214 844 q 200 749 200 781 l 200 272 q 207 208 200 240 q 234 151 214 176 q 285 113 254 125 q 347 100 315 100 m 139 1181 l 139 1278 l 556 1278 l 556 1181 l 139 1181 z "},"":{"ha":694,"x_min":75,"x_max":619,"o":"m 347 -11 q 272 -4 310 -11 q 202 22 235 3 q 144 69 169 40 q 103 131 118 97 q 81 203 88 165 q 75 278 75 240 l 75 444 q 81 519 75 482 q 103 591 88 557 q 144 653 118 625 q 202 701 169 682 q 272 726 235 719 q 347 733 310 733 q 422 726 385 733 q 492 701 460 719 q 551 653 525 682 q 592 591 576 625 q 613 519 607 557 q 619 444 619 482 l 619 278 q 613 203 619 240 q 592 131 607 165 q 551 69 576 97 q 492 22 525 40 q 422 -4 460 3 q 347 -11 385 -11 m 347 100 q 411 113 381 100 q 461 153 442 126 q 488 212 481 179 q 494 278 494 244 l 494 444 q 488 510 494 478 q 461 569 481 543 q 411 609 442 596 q 347 622 381 622 q 283 609 314 622 q 233 569 253 596 q 207 510 214 543 q 200 444 200 478 l 200 278 q 207 212 200 244 q 233 153 214 179 q 283 113 253 126 q 347 100 314 100 m 139 882 l 139 979 l 556 979 l 556 882 l 139 882 z "},"":{"ha":694,"x_min":75,"x_max":619,"o":"m 347 -11 q 273 -4 310 -11 q 203 21 236 3 q 144 67 171 39 q 103 128 118 94 q 81 199 88 161 q 75 272 75 236 l 75 749 q 81 822 75 785 q 103 893 88 860 q 144 954 118 926 q 203 1000 171 982 q 273 1025 236 1018 q 347 1032 310 1032 q 422 1025 385 1032 q 491 1000 458 1018 q 550 954 524 982 q 592 893 576 926 q 613 822 607 860 q 619 749 619 785 l 619 272 q 613 199 619 236 q 592 128 607 161 q 550 67 576 94 q 491 21 524 39 q 422 -4 458 3 q 347 -11 385 -11 m 347 100 q 410 113 379 100 q 460 151 440 125 q 488 208 481 176 q 494 272 494 240 l 494 749 q 488 813 494 781 q 460 870 481 844 q 410 908 440 896 q 347 921 379 921 q 285 908 315 921 q 234 870 254 896 q 207 813 214 844 q 200 749 200 781 l 200 272 q 207 208 200 240 q 234 151 214 176 q 285 113 254 125 q 347 100 315 100 m 347 1132 q 292 1136 319 1132 q 238 1151 264 1140 q 190 1178 213 1161 q 153 1219 168 1196 q 132 1271 138 1243 q 126 1326 126 1299 l 235 1326 q 243 1285 235 1306 q 268 1252 251 1265 q 306 1234 285 1239 q 347 1229 326 1229 q 389 1234 368 1229 q 426 1252 410 1239 q 451 1285 443 1265 q 460 1326 460 1306 l 568 1326 q 563 1271 568 1299 q 542 1219 557 1243 q 504 1178 526 1196 q 456 1151 482 1161 q 403 1136 431 1140 q 347 1132 375 1132 z "},"":{"ha":694,"x_min":75,"x_max":619,"o":"m 347 -11 q 272 -4 310 -11 q 202 22 235 3 q 144 69 169 40 q 103 131 118 97 q 81 203 88 165 q 75 278 75 240 l 75 444 q 81 519 75 482 q 103 591 88 557 q 144 653 118 625 q 202 701 169 682 q 272 726 235 719 q 347 733 310 733 q 422 726 385 733 q 492 701 460 719 q 551 653 525 682 q 592 591 576 625 q 613 519 607 557 q 619 444 619 482 l 619 278 q 613 203 619 240 q 592 131 607 165 q 551 69 576 97 q 492 22 525 40 q 422 -4 460 3 q 347 -11 385 -11 m 347 100 q 411 113 381 100 q 461 153 442 126 q 488 212 481 179 q 494 278 494 244 l 494 444 q 488 510 494 478 q 461 569 481 543 q 411 609 442 596 q 347 622 381 622 q 283 609 314 622 q 233 569 253 596 q 207 510 214 543 q 200 444 200 478 l 200 278 q 207 212 200 244 q 233 153 214 179 q 283 113 253 126 q 347 100 314 100 m 347 833 q 292 838 319 833 q 238 852 264 842 q 190 880 213 863 q 153 921 168 897 q 132 972 138 944 q 126 1028 126 1000 l 235 1028 q 243 987 235 1007 q 268 953 251 967 q 306 935 285 940 q 347 931 326 931 q 389 935 368 931 q 426 953 410 940 q 451 987 443 967 q 460 1028 460 1007 l 568 1028 q 563 972 568 1000 q 542 921 557 944 q 504 880 526 897 q 456 852 482 863 q 403 838 431 842 q 347 833 375 833 z "},"":{"ha":694,"x_min":75,"x_max":647,"o":"m 347 -11 q 273 -4 310 -11 q 203 21 236 3 q 144 67 171 39 q 103 128 118 94 q 81 199 88 161 q 75 272 75 236 l 75 749 q 81 822 75 785 q 103 893 88 860 q 144 954 118 926 q 203 1000 171 982 q 273 1025 236 1018 q 347 1032 310 1032 q 422 1025 385 1032 q 491 1000 458 1018 q 550 954 524 982 q 592 893 576 926 q 613 822 607 860 q 619 749 619 785 l 619 272 q 613 199 619 236 q 592 128 607 161 q 550 67 576 94 q 491 21 524 39 q 422 -4 458 3 q 347 -11 385 -11 m 347 100 q 410 113 379 100 q 460 151 440 125 q 488 208 481 176 q 494 272 494 240 l 494 749 q 488 813 494 781 q 460 870 481 844 q 410 908 440 896 q 347 921 379 921 q 285 908 315 921 q 234 870 254 896 q 207 813 214 844 q 200 749 200 781 l 200 272 q 207 208 200 240 q 234 151 214 176 q 285 113 254 125 q 347 100 315 100 m 447 1101 l 376 1163 l 561 1364 l 647 1289 l 447 1101 m 211 1101 l 140 1163 l 325 1364 l 411 1289 l 211 1101 z "},"":{"ha":694,"x_min":75,"x_max":647,"o":"m 347 -11 q 272 -4 310 -11 q 202 22 235 3 q 144 69 169 40 q 103 131 118 97 q 81 203 88 165 q 75 278 75 240 l 75 444 q 81 519 75 482 q 103 591 88 557 q 144 653 118 625 q 202 701 169 682 q 272 726 235 719 q 347 733 310 733 q 422 726 385 733 q 492 701 460 719 q 551 653 525 682 q 592 591 576 625 q 613 519 607 557 q 619 444 619 482 l 619 278 q 613 203 619 240 q 592 131 607 165 q 551 69 576 97 q 492 22 525 40 q 422 -4 460 3 q 347 -11 385 -11 m 347 100 q 411 113 381 100 q 461 153 442 126 q 488 212 481 179 q 494 278 494 244 l 494 444 q 488 510 494 478 q 461 569 481 543 q 411 609 442 596 q 347 622 381 622 q 283 609 314 622 q 233 569 253 596 q 207 510 214 543 q 200 444 200 478 l 200 278 q 207 212 200 244 q 233 153 214 179 q 283 113 253 126 q 347 100 314 100 m 447 803 l 376 864 l 561 1065 l 647 990 l 447 803 m 211 803 l 140 864 l 325 1065 l 411 990 l 211 803 z "},"":{"ha":694,"x_min":54,"x_max":629,"o":"m 319 0 l 319 1021 l 629 1021 l 629 919 l 432 919 l 432 582 l 604 582 l 604 481 l 432 481 l 432 101 l 629 101 l 629 0 l 319 0 m 319 0 q 247 7 283 0 q 179 31 211 14 q 122 74 147 47 q 82 133 97 100 q 60 201 67 165 q 54 272 54 236 l 54 749 q 60 820 54 785 q 82 888 67 856 q 122 947 97 921 q 179 990 147 974 q 247 1014 211 1007 q 319 1021 283 1021 l 319 919 q 255 908 286 919 q 203 870 224 896 q 176 813 183 844 q 168 749 168 781 l 168 272 q 176 208 168 240 q 203 151 183 176 q 255 113 224 125 q 319 101 286 101 l 319 0 z "},"":{"ha":694,"x_min":54,"x_max":640,"o":"m 229 -11 q 179 -6 204 -11 q 133 13 154 0 q 96 47 111 26 q 71 90 81 67 q 58 138 61 113 q 54 188 54 163 l 54 535 q 58 585 54 560 q 71 633 61 610 q 96 676 81 656 q 133 709 111 696 q 179 728 154 722 q 229 733 204 733 q 292 724 261 733 q 347 692 324 714 q 402 724 371 714 q 465 733 433 733 q 515 728 490 733 q 562 709 540 722 q 599 676 583 696 q 624 633 614 656 q 637 585 633 610 q 640 535 640 560 l 640 311 l 404 311 l 404 188 q 406 156 404 172 q 415 124 408 139 q 434 100 421 110 q 464 90 447 90 q 494 103 482 90 q 513 132 507 115 q 522 166 519 149 q 524 200 524 183 l 524 207 l 638 207 l 638 196 q 633 144 638 169 q 620 96 629 119 q 596 51 611 72 q 560 16 581 31 q 514 -5 539 1 q 464 -11 489 -11 q 401 -1 432 -11 q 347 29 371 8 q 292 -1 324 8 q 229 -11 261 -11 m 404 411 l 526 411 l 526 535 q 524 567 526 550 q 515 598 522 583 q 495 622 508 613 q 465 632 482 632 q 435 622 449 632 q 415 598 422 613 q 406 567 408 583 q 404 535 404 550 l 404 411 m 229 90 q 259 100 246 90 q 279 124 272 110 q 288 156 286 139 q 290 188 290 172 l 290 535 q 288 567 290 550 q 279 598 286 583 q 259 622 272 613 q 229 632 246 632 q 199 622 213 632 q 179 598 186 613 q 170 567 172 583 q 168 535 168 550 l 168 188 q 170 156 168 172 q 179 124 172 139 q 199 100 186 110 q 229 90 213 90 z "},"":{"ha":694,"x_min":86,"x_max":642,"o":"m 642 0 l 507 0 l 311 414 l 211 414 l 211 0 l 86 0 l 86 1021 l 356 1021 q 431 1013 393 1021 q 501 984 468 1004 q 557 933 533 964 q 594 867 581 903 q 614 794 608 832 q 619 717 619 756 q 611 625 619 671 q 581 538 603 579 q 522 467 558 497 q 442 424 486 438 l 642 0 m 356 525 q 399 531 378 525 q 438 552 421 538 q 466 587 454 567 q 484 628 478 607 q 492 672 490 650 q 494 717 494 694 q 492 762 494 739 q 484 806 490 785 q 466 847 478 828 q 438 881 454 867 q 399 903 421 896 q 356 910 378 910 l 211 910 l 211 525 l 356 525 m 331 1103 l 257 1161 l 424 1363 l 514 1290 l 331 1103 z "},"":{"ha":694,"x_min":169,"x_max":629,"o":"m 169 0 l 169 722 l 294 722 l 294 569 q 317 629 303 600 q 352 683 331 658 q 403 720 374 707 q 467 733 433 733 q 517 726 492 733 q 563 703 543 719 q 597 664 583 686 q 617 617 610 642 q 626 566 624 592 q 629 514 629 540 l 504 514 q 501 552 504 533 q 490 588 499 571 q 463 613 481 604 q 426 622 446 622 q 378 610 401 622 q 340 577 356 597 q 317 533 325 557 q 303 483 308 508 q 296 433 297 458 q 294 383 294 408 l 294 0 l 169 0 m 344 804 l 271 863 l 438 1064 l 528 992 l 344 804 z "},"":{"ha":694,"x_min":86,"x_max":642,"o":"m 642 0 l 507 0 l 311 414 l 211 414 l 211 0 l 86 0 l 86 1021 l 356 1021 q 431 1013 393 1021 q 501 984 468 1004 q 557 933 533 964 q 594 867 581 903 q 614 794 608 832 q 619 717 619 756 q 611 625 619 671 q 581 538 603 579 q 522 467 558 497 q 442 424 486 438 l 642 0 m 356 525 q 399 531 378 525 q 438 552 421 538 q 466 587 454 567 q 484 628 478 607 q 492 672 490 650 q 494 717 494 694 q 492 762 494 739 q 484 806 490 785 q 466 847 478 828 q 438 881 454 867 q 399 903 421 896 q 356 910 378 910 l 211 910 l 211 525 l 356 525 m 333 -347 l 278 -296 q 308 -256 294 -278 q 328 -210 321 -235 q 306 -202 317 -208 q 288 -186 296 -196 q 278 -165 281 -176 q 275 -140 275 -153 q 280 -111 275 -125 q 294 -87 285 -97 q 319 -72 304 -76 q 347 -68 333 -68 q 376 -72 361 -68 q 400 -87 390 -76 q 415 -111 410 -97 q 419 -140 419 -125 q 414 -198 419 -169 q 397 -253 408 -226 q 370 -303 386 -279 q 333 -347 354 -328 z "},"":{"ha":694,"x_min":158,"x_max":629,"o":"m 169 0 l 169 722 l 294 722 l 294 569 q 317 629 303 600 q 352 683 331 658 q 403 720 374 707 q 467 733 433 733 q 517 726 492 733 q 563 703 543 719 q 597 664 583 686 q 617 617 610 642 q 626 566 624 592 q 629 514 629 540 l 504 514 q 501 552 504 533 q 490 588 499 571 q 463 613 481 604 q 426 622 446 622 q 378 610 401 622 q 340 577 356 597 q 317 533 325 557 q 303 483 308 508 q 296 433 297 458 q 294 383 294 408 l 294 0 l 169 0 m 218 -347 l 163 -296 q 192 -256 179 -278 q 213 -210 206 -235 q 191 -202 201 -208 q 173 -186 181 -196 q 163 -165 165 -176 q 160 -140 160 -153 q 165 -111 160 -125 q 179 -87 169 -97 q 203 -72 189 -76 q 232 -68 218 -68 q 260 -72 246 -68 q 285 -87 275 -76 q 299 -111 294 -97 q 304 -140 304 -125 q 299 -198 304 -169 q 282 -253 293 -226 q 255 -303 271 -279 q 218 -347 239 -328 z "},"":{"ha":694,"x_min":86,"x_max":642,"o":"m 642 0 l 507 0 l 311 414 l 211 414 l 211 0 l 86 0 l 86 1021 l 356 1021 q 431 1013 393 1021 q 501 984 468 1004 q 557 933 533 964 q 594 867 581 903 q 614 794 608 832 q 619 717 619 756 q 611 625 619 671 q 581 538 603 579 q 522 467 558 497 q 442 424 486 438 l 642 0 m 356 525 q 399 531 378 525 q 438 552 421 538 q 466 587 454 567 q 484 628 478 607 q 492 672 490 650 q 494 717 494 694 q 492 762 494 739 q 484 806 490 785 q 466 847 478 828 q 438 881 454 867 q 399 903 421 896 q 356 910 378 910 l 211 910 l 211 525 l 356 525 m 276 1132 l 146 1322 l 217 1372 l 347 1217 l 478 1372 l 549 1322 l 418 1132 l 276 1132 z "},"":{"ha":694,"x_min":160,"x_max":629,"o":"m 169 0 l 169 722 l 294 722 l 294 569 q 317 629 303 600 q 352 683 331 658 q 403 720 374 707 q 467 733 433 733 q 517 726 492 733 q 563 703 543 719 q 597 664 583 686 q 617 617 610 642 q 626 566 624 592 q 629 514 629 540 l 504 514 q 501 552 504 533 q 490 588 499 571 q 463 613 481 604 q 426 622 446 622 q 378 610 401 622 q 340 577 356 597 q 317 533 325 557 q 303 483 308 508 q 296 433 297 458 q 294 383 294 408 l 294 0 l 169 0 m 290 833 l 160 1024 l 231 1074 l 361 918 l 492 1074 l 563 1024 l 432 833 l 290 833 z "},"":{"ha":694,"x_min":72,"x_max":619,"o":"m 346 -11 q 276 -6 311 -11 q 208 15 240 0 q 150 54 176 31 q 106 108 124 78 q 81 174 89 139 q 72 243 72 208 l 72 256 l 197 256 l 197 249 q 207 190 197 218 q 238 140 217 161 q 288 109 258 118 q 346 100 317 100 q 405 110 376 100 q 454 141 433 119 q 485 192 475 163 q 494 250 494 221 q 481 318 494 285 q 442 377 467 351 q 388 420 418 403 q 325 453 357 438 q 263 488 293 469 q 206 528 233 506 q 157 578 179 551 q 119 637 135 606 q 94 703 103 668 q 86 772 86 738 q 94 841 86 807 q 117 906 101 875 q 158 963 133 938 q 214 1003 183 988 q 279 1026 244 1019 q 349 1032 314 1032 q 417 1026 383 1032 q 483 1004 451 1019 q 539 965 514 989 q 580 910 564 940 q 603 845 596 879 q 611 778 611 811 l 611 765 l 486 765 l 486 772 q 478 829 486 801 q 451 878 469 857 q 405 910 432 900 q 349 921 378 921 q 292 910 319 921 q 247 878 265 900 q 219 828 228 857 q 211 771 211 800 q 225 703 211 736 q 263 644 239 669 q 318 601 288 619 q 380 567 349 583 q 442 533 411 551 q 499 493 472 515 q 549 443 526 471 q 587 384 571 415 q 611 319 603 353 q 619 249 619 285 q 611 178 619 214 q 585 113 603 143 q 542 57 568 82 q 485 17 517 32 q 417 -5 453 1 q 346 -11 382 -11 m 331 1103 l 257 1161 l 424 1363 l 514 1290 l 331 1103 z "},"":{"ha":694,"x_min":83,"x_max":608,"o":"m 346 -11 q 285 -8 315 -11 q 225 6 254 -4 q 169 31 196 15 q 124 71 143 47 q 94 124 104 94 q 83 183 83 153 l 83 193 l 208 193 l 208 189 q 222 147 208 167 q 257 117 236 128 q 301 103 278 107 q 346 100 324 100 q 391 103 368 100 q 435 117 414 107 q 469 146 456 126 q 483 188 483 165 q 469 231 483 211 q 435 263 456 250 q 393 283 415 275 q 349 297 371 290 q 304 311 326 304 q 261 328 282 318 q 219 349 240 338 q 181 376 199 361 q 147 408 163 390 q 121 447 132 426 q 103 490 110 467 q 97 536 97 513 q 107 594 97 565 q 134 648 117 624 q 177 689 151 672 q 231 716 203 706 q 288 730 258 726 q 349 733 318 733 q 408 730 378 733 q 466 717 438 726 q 519 690 494 707 q 563 650 544 674 q 590 597 581 626 q 600 539 600 568 l 600 529 l 475 529 l 475 533 q 463 574 475 556 q 433 604 451 593 q 392 619 414 615 q 349 622 371 622 q 306 619 326 622 q 265 605 285 615 q 234 576 246 594 q 222 535 222 557 q 236 492 222 513 q 269 460 250 472 q 311 440 289 447 q 356 426 333 432 q 400 412 378 419 q 444 394 422 404 q 485 373 465 385 q 524 347 506 361 q 558 315 543 332 q 585 276 574 297 q 602 233 596 256 q 608 188 608 211 q 598 127 608 157 q 569 73 588 97 q 524 32 550 49 q 467 6 497 15 q 407 -8 438 -4 q 346 -11 376 -11 m 331 804 l 257 863 l 424 1064 l 514 992 l 331 804 z "},"":{"ha":694,"x_min":72,"x_max":619,"o":"m 346 -11 q 276 -6 311 -11 q 208 15 240 0 q 150 54 176 31 q 106 108 124 78 q 81 174 89 139 q 72 243 72 208 l 72 256 l 197 256 l 197 249 q 207 190 197 218 q 238 140 217 161 q 288 109 258 118 q 346 100 317 100 q 405 110 376 100 q 454 141 433 119 q 485 192 475 163 q 494 250 494 221 q 481 318 494 285 q 442 377 467 351 q 388 420 418 403 q 325 453 357 438 q 263 488 293 469 q 206 528 233 506 q 157 578 179 551 q 119 637 135 606 q 94 703 103 668 q 86 772 86 738 q 94 841 86 807 q 117 906 101 875 q 158 963 133 938 q 214 1003 183 988 q 279 1026 244 1019 q 349 1032 314 1032 q 417 1026 383 1032 q 483 1004 451 1019 q 539 965 514 989 q 580 910 564 940 q 603 845 596 879 q 611 778 611 811 l 611 765 l 486 765 l 486 772 q 478 829 486 801 q 451 878 469 857 q 405 910 432 900 q 349 921 378 921 q 292 910 319 921 q 247 878 265 900 q 219 828 228 857 q 211 771 211 800 q 225 703 211 736 q 263 644 239 669 q 318 601 288 619 q 380 567 349 583 q 442 533 411 551 q 499 493 472 515 q 549 443 526 471 q 587 384 571 415 q 611 319 603 353 q 619 249 619 285 q 611 178 619 214 q 585 113 603 143 q 542 57 568 82 q 485 17 517 32 q 417 -5 453 1 q 346 -11 382 -11 m 217 1117 l 146 1167 l 276 1357 l 418 1357 l 549 1167 l 478 1117 l 347 1272 l 217 1117 z "},"":{"ha":694,"x_min":83,"x_max":608,"o":"m 346 -11 q 285 -8 315 -11 q 225 6 254 -4 q 169 31 196 15 q 124 71 143 47 q 94 124 104 94 q 83 183 83 153 l 83 193 l 208 193 l 208 189 q 222 147 208 167 q 257 117 236 128 q 301 103 278 107 q 346 100 324 100 q 391 103 368 100 q 435 117 414 107 q 469 146 456 126 q 483 188 483 165 q 469 231 483 211 q 435 263 456 250 q 393 283 415 275 q 349 297 371 290 q 304 311 326 304 q 261 328 282 318 q 219 349 240 338 q 181 376 199 361 q 147 408 163 390 q 121 447 132 426 q 103 490 110 467 q 97 536 97 513 q 107 594 97 565 q 134 648 117 624 q 177 689 151 672 q 231 716 203 706 q 288 730 258 726 q 349 733 318 733 q 408 730 378 733 q 466 717 438 726 q 519 690 494 707 q 563 650 544 674 q 590 597 581 626 q 600 539 600 568 l 600 529 l 475 529 l 475 533 q 463 574 475 556 q 433 604 451 593 q 392 619 414 615 q 349 622 371 622 q 306 619 326 622 q 265 605 285 615 q 234 576 246 594 q 222 535 222 557 q 236 492 222 513 q 269 460 250 472 q 311 440 289 447 q 356 426 333 432 q 400 412 378 419 q 444 394 422 404 q 485 373 465 385 q 524 347 506 361 q 558 315 543 332 q 585 276 574 297 q 602 233 596 256 q 608 188 608 211 q 598 127 608 157 q 569 73 588 97 q 524 32 550 49 q 467 6 497 15 q 407 -8 438 -4 q 346 -11 376 -11 m 217 818 l 146 868 l 276 1058 l 418 1058 l 549 868 l 478 818 l 347 974 l 217 818 z "}}}
